<?xml version="1.0" encoding="utf-8"?>
<!DOCTYPE svg PUBLIC "-//W3C//DTD SVG 1.1 Basic//EN" "http://www.w3.org/Graphics/SVG/1.1/DTD/svg11-basic.dtd">
<svg
  version="1.1"
  baseProfile="basic"
  xmlns="http://www.w3.org/2000/svg"
  xmlns:xlink="http://www.w3.org/1999/xlink"
  x="0px"
  y="0px"
  width="586.346px"
  height="448.453px"
  viewBox="0 0 586.346 448.453"
  xml:space="preserve">
  <g>
    <!-- 外側の青い縁 -->
    <path
      fill="#1160A4"
      d="M149.101,305.907l-101.43,38.386c0,0-9.107,2.666-9.107,11.791c0,0,0.031,3.188,0.813,5.031
         s2.685,6.084,4.125,11.969s16.688,21.625,52.688,21.625s76-15.75,76-15.75s1.375-0.541,2.292,0.376
         c0,0,13.083,20.124,47.708,36.749c0,0,0.667,0.293,0.958,0.584c0.292,0.291,6.292,5.166,10.042,6.666s52.125,18.5,106.875,18.5
         c0,0,23.75,0,38.5-4.75c0,0,0.666-0.5,2.583-0.5s23.542-3.375,34.542-7.375s18.25-8.875,20.125-10.75s10-5.875,14.375-10.25
         s16.375-14.5,23.875-25.875c0,0,7.5,0.5,13.75,0.5s22.625,0.5,34.875-5.125s20.375-12.125,22.125-18.125s3.869-10.748,4.435-13.187
         s0.19-10.438-4.06-12.438c0,0-42.625-15.125-43.542-16.041s0.084-2.75,0.084-2.75s2.917-17.334,2.917-34.334
         s-2.166-45.167-16.833-77.167s-48.333-74-103-74s-93.527,21.985-93.527,21.985l-53.116-87.798c0,0-4.856-12.354-21.024-12.354
         c0,0-3.208-0.479-7.458,2.583s-23.625,17-23.625,17s-4.437,2.821-4.437,14.254s-3.325,142.998-3.325,142.998
         s-20.734,15.998-24.988,32.873S149.101,297.355,149.101,305.907z" />
    <polyline fill="#2483BB" points="217.123,63.109 228.766,66.02 292.269,173.904 278.108,183.188 217.123,63.109    "/>
    <linearGradient id="SVGID_1_" gradientUnits="userSpaceOnUse" x1="192.5" y1="78.6743" x2="231.8315" y2="201.9297">
        <stop  offset="0" style="stop-color:#86B6DD"/>
        <stop  offset="1" style="stop-color:#2A96CF"/>
    </linearGradient>
    <polygon fill="url(#SVGID_1_)" points="217.337,63.531 217.123,63.109 193.802,80.342 190.293,231.217 192.438,234.708
        231.688,203.833 274.412,175.91  "/>
    <path fill="#2C9CD4" d="M488.032,325.049l-7.594,21.409l-12.729,23.354c6.662,0.725,14.145,1.188,22.438,1.188
        c39.333,0,45.5-15.166,45.5-15.166l4.134-12.738L488.032,325.049z"/>
    <path fill="#2483BB" d="M490.147,371c32.909,0,42.596-10.611,44.884-14.079l-52.945-15.105l-1.647,4.644l-12.729,23.354
        C474.372,370.537,481.854,371,490.147,371z"/>
    <path fill="#B4C8E4" d="M490.014,325.741l49.767,17.354c0,0-13.593,0.238-24.093-3.762
        C506.525,335.842,490.014,325.741,490.014,325.741"/>
    <linearGradient id="SVGID_2_" gradientUnits="userSpaceOnUse" x1="314.8062" y1="150.7026" x2="342.8061" y2="416.7025">
        <stop  offset="0" style="stop-color:#D3DEE5"/>
        <stop  offset="1" style="stop-color:#CEDBE2"/>
    </linearGradient>
    <path fill="url(#SVGID_2_)" d="M252.088,352.632l-65.052,18.895c0,0-1.723,0.807-0.64,1.89s17.667,21.042,42.167,31.417
        c0,0,2.375,0.938,3.5,2.063s6.938,5.125,11.25,6.75s51.25,16.188,97.5,16.188c0,0,25,0,36.875-3.875c0,0,3.125-1.5,4.75-1.5
        s37.625-4.5,46.75-14.875c0,0,42.375-21,57.125-74.75s8.834-98.833-9.166-130.5s-46.333-63-91.667-63s-104,25.333-140.333,50
        C208.813,216,172.813,248,168.146,261c-4.666,13-4.666,27.34-4.666,42.67v1.58c0,0,2.244-1.656,4.58-1.734
        c2.337-0.078,72.414-2.436,72.414-2.436l11.42-0.385c0,0,10.745-0.127,10.148,8.052c-0.598,8.179-2.592,35.501-2.592,35.501
        S258.696,350.681,252.088,352.632z"/>
    <path
      fill="#79B1DB"
      d="M168.813,311.333l85-2l-2.667,35l-108,32.333c0,0-23.334,6-46.667,6c-23.332,0-35.666-9.666-40.333-14.333
         c0,0,0.542-2.125-3.833-11.625L168.813,311.333z" />
    <radialGradient id="SVGID_3_" cx="153.0635" cy="334.4165" r="73.4158" gradientUnits="userSpaceOnUse">
      <stop offset="0" style="stop-color:#79B1DB" />
      <stop offset="1" style="stop-color:#298ECB" />
    </radialGradient>
    <path
      fill="url(#SVGID_3_)"
      d="M168.813,311.333l-116.5,45.375l5.333,1.791l5.667,0.667l18.166,0.334l31.834-2.042l8.333-1.458
         l20-6.334c0,0,34.667-11.083,72.917-22.833s39.25-17.5,39.25-17.5L168.813,311.333z" />
    <linearGradient id="SVGID_4_" gradientUnits="userSpaceOnUse" x1="52.3135" y1="346.0005" x2="253.8135" y2="346.0005">
      <stop offset="0" style="stop-color:#7AB0D8" />
      <stop offset="1" style="stop-color:#1F7CAC" />
    </linearGradient>
    <path
      fill="url(#SVGID_4_)"
      d="M56.146,368.333c4.667,4.667,17.001,14.333,40.333,14.333c23.333,0,46.667-6,46.667-6l108-32.333
         l2.667-35c0,0-1,5.75-39.25,17.5s-72.917,22.833-72.917,22.833l-20,6.334l-8.333,1.458L81.479,359.5l-18.166-0.334l-5.667-0.667
         l-5.333-1.791C56.688,366.208,56.146,368.333,56.146,368.333z" />
    <path
      fill="#FFFFFF"
      d="M52.728,357.627c2.563,1.048,8.814,2.956,20.336,2.956c15.875,0,34.375-1.75,40.25-3.125
         c0,0-25.75,1.25-38,1.25c-10.741,0-16.389-0.577-21.746-2.488l-1.254,0.488C52.462,357.031,52.59,357.323,52.728,357.627z" />

    <!-- プロペラの内側 -->
    <ellipse fill="#A6B1B8" cx="388.813" cy="281.333" rx="80.333" ry="108.667"/>
    <linearGradient id="SVGID_5_" gradientUnits="userSpaceOnUse" x1="414.7856" y1="218.8389" x2="388.7853" y2="191.5886">
      <stop offset="0" style="stop-color:#A6B1B8" />
      <stop offset="1" style="stop-color:#6D828F" />
    </linearGradient>
    <path
      fill="url(#SVGID_5_)"
      d="M399.313,227.084l49.25-25.25c0,0-24.5-31.75-57.75-31.75s-50.75,23.25-50.75,23.25
         S382.563,200.084,399.313,227.084z" />
    <!-- プロペラの奥の影 -->
    <ellipse fill="#798A96" cx="346.015" cy="292" rx="75.718" ry="98"/>
    <!-- プロペラ (6枚) -->
    <linearGradient id="SVGID_6_" gradientUnits="userSpaceOnUse" x1="335.5718" y1="361.9263" x2="349.4047" y2="345.7594">
      <stop offset="0" style="stop-color:#DFE5EC" />
      <stop offset="1" style="stop-color:#A4B0B8" />
    </linearGradient>
    <path
      fill="url(#SVGID_6_)"
      d="M390.314,356.5l4.667,3.167c0,0-14.501,17.667-30.834,22.667c0,0-35.834-14.499-45-37.333
         s-7-22.834-7-22.834s10.667,6.167,23.167,5.167c0,0,17.999,23.667,46.833,34.167L390.314,356.5z" />
    <linearGradient id="SVGID_7_" gradientUnits="userSpaceOnUse" x1="366.8589" y1="356.8628" x2="376.3588" y2="320.0292">
      <stop offset="0" style="stop-color:#DFE5EC" />
      <stop offset="1" style="stop-color:#A4B0B8" />
    </linearGradient>
    <path
      fill="url(#SVGID_7_)"
      d="M403.314,319.667L416.147,326c0,0-6.166,23.166-33.833,38.5c0,0-42.667-16.832-49.167-37.166
         c0,0,22.666-3.167,29.5-13.667c0,0,34.333,9.001,37.5,8.167S403.314,319.667,403.314,319.667z" />
    <linearGradient id="SVGID_8_" gradientUnits="userSpaceOnUse" x1="392.7583" y1="322.9653" x2="393.9253" y2="279.2987">
      <stop offset="0" style="stop-color:#DFE5EC" />
      <stop offset="1" style="stop-color:#A4B0B8" />
    </linearGradient>
    <path
      fill="url(#SVGID_8_)"
      d="M408.98,275.5c0,0,13.5,1,15.167,1c0,0-0.582,26.584-22.166,48.167c0,0-28-4.166-39.167-9.333
         c0,0,13.167-13.834,13.167-33.167C375.981,282.167,405.98,278.5,408.98,275.5z" />
    <linearGradient id="SVGID_9_" gradientUnits="userSpaceOnUse" x1="388.3921" y1="232.8506" x2="401.7261" y2="275.5176">
      <stop offset="0" style="stop-color:#A4B0B8" />
      <stop offset="1" style="stop-color:#DFE5EC" />
    </linearGradient>
    <path
      fill="url(#SVGID_9_)"
      d="M393.98,230.5c0,0,16.833-2.5,22.5-4.667c0,0,7,31.667-6.5,52.5c0,0-20.833,5.333-34.833,5.333
         c0,0-1.416-16.417-8.5-23.5C366.647,260.167,389.647,238,393.98,230.5z" />
    <linearGradient id="SVGID_10_" gradientUnits="userSpaceOnUse" x1="351.27" y1="213.6753" x2="384.77" y2="233.8418">
      <stop offset="0" style="stop-color:#A4B0B8" />
      <stop offset="1" style="stop-color:#DFE5EC" />
    </linearGradient>
    <path
      fill="url(#SVGID_10_)"
      d="M357.563,202.583c0,0,10.25-10.125,13.75-15.875c0,0,23.332,19.792,24.666,46.292
         c0,0-16.832,22-28.166,29.667l-17.125-14.708l11.458-29.792l0.667-8.5L357.563,202.583z" />
    <linearGradient id="SVGID_11_" gradientUnits="userSpaceOnUse" x1="311.688" y1="220.604" x2="366.0649" y2="220.604">
      <stop offset="0" style="stop-color:#A4B0B8" />
      <stop offset="1" style="stop-color:#E2E6EF" />
    </linearGradient>
    <path
      fill="url(#SVGID_11_)"
      d="M312.147,245.667c0,0,14.334-38,37.5-53.667c0,0,14.541,13.583,16.291,18.458
         c0,0,0.438,0.5-0.313,3.188s-6.438,22.563-13.688,35.563l-19.375-4.75l-17.75,3.25h-3.125L312.147,245.667z" />
    <!-- プロペラの軸(青いやつ) -->
    <radialGradient id="SVGID_12_" cx="328.1479" cy="246.9995" r="56.5839" gradientUnits="userSpaceOnUse">
      <stop offset="0" style="stop-color:#379ED4" />
      <stop offset="1" style="stop-color:#2691C9" />
    </radialGradient>
    <ellipse fill="url(#SVGID_12_)" cx="332.314" cy="285.616" rx="44.773" ry="43.052" />
    <!-- プロペラの軸の影の部分 -->
    <path
      fill="#1160A4"
      d="M374.313,297.083c0,0-8.5,11.75-26,11.75s-39.75-12.5-39.75-12.5l-9.25,9.25l14.5,18c0,0,8.25,3,15.75,3
         S360.063,328.083,374.313,297.083z" />
    <!-- ボディ全面 -->
    <linearGradient id="SVGID_13_" gradientUnits="userSpaceOnUse" x1="314.8062" y1="150.7026" x2="342.8061" y2="416.7025">
      <stop offset="0" style="stop-color:#D3DEE5" />
      <stop offset="1" style="stop-color:#CEDBE2" />
    </linearGradient>
    <path
      fill="url(#SVGID_13_)" d="M477.147,204.333c-18-31.667-46.333-63-91.667-63s-104,25.333-140.333,50
            C208.813,216,172.813,248,168.146,261c-4.666,13-4.666,27.34-4.666,42.67v1.58c0,0,2.244-1.656,4.58-1.734
            c2.337-0.078,72.414-2.436,72.414-2.436l11.42-0.385c0,0,10.745-0.127,10.148,8.052c-0.598,8.179-2.592,35.501-2.592,35.501
            s-0.755,6.433-7.363,8.384l-65.052,18.895c0,0-1.723,0.807-0.64,1.89s17.667,21.042,42.167,31.417c0,0,2.375,0.938,3.5,2.063
            s6.938,5.125,11.25,6.75s51.25,16.188,97.5,16.188c0,0,25,0,36.875-3.875c0,0,3.125-1.5,4.75-1.5s37.625-4.5,46.75-14.875
            c0,0,42.375-21,57.125-74.75S495.147,236,477.147,204.333z M388.813,390c-44.367,0-80.333-48.651-80.333-108.667
            c0-60.015,35.966-108.667,80.333-108.667c44.366,0,80.333,48.652,80.333,108.667C469.146,341.349,433.179,390,388.813,390z" />
    <!-- ボディ側面 -->
    <linearGradient id="SVGID_14_" gradientUnits="userSpaceOnUse" x1="352.3638" y1="291.7388" x2="306.3911" y2="275.4156">
      <stop offset="0" style="stop-color:#CAD9DD" />
      <stop offset="1" style="stop-color:#C9D9DE" />
    </linearGradient>
    <path
      fill="url(#SVGID_14_)" d="M334.933,149.411c-32.832,9.438-66.067,25.82-89.787,41.922C208.813,216,172.813,248,168.146,261
            c-4.666,13-4.666,27.34-4.666,42.67v1.58c0,0,2.244-1.656,4.58-1.734c2.337-0.078,72.414-2.436,72.414-2.436l11.42-0.385
            c0,0,10.745-0.127,10.148,8.052c-0.598,8.179-2.592,35.501-2.592,35.501s-0.755,6.433-7.363,8.384l-65.052,18.895
            c0,0-1.723,0.807-0.64,1.89c0.647,0.646,6.828,8.029,16.921,16.081c9.462,5.892,21.187,11.285,33.496,12.337
            c0,0,21,17.25,108.25,14.5l1.36-1.432c-52.151-22.448-64.11-77.318-64.11-77.318l-22.462,1.183
            c0.077-1.066,0.164-2.251,0.257-3.518l21.205-1.165c-15.75-53,2.166-105.417,2.166-105.417
            c30.333-83.667,90.667-82.333,90.667-82.333S356.832,145.553,334.933,149.411z M301.147,372.001
            c0.688,1.073,1.378,2.11,2.067,3.132c-0.134-0.213-0.269-0.416-0.401-0.632c-2.806-4.563-5.354-8.994-7.674-13.314
            C297.012,365.059,299.017,368.682,301.147,372.001z M371.504,146.649c-0.466,0.071-0.999,0.162-1.575,0.267
            c1.385-0.222,2.788-0.419,4.218-0.582c-0.081,0.007-0.161,0.021-0.242,0.028c0.151-0.019,0.242-0.028,0.242-0.028
            s-0.911,0.053-2.561,0.302C371.559,146.64,371.532,146.645,371.504,146.649z" />
    <!-- ウィング -->
    <linearGradient id="SVGID_15_" gradientUnits="userSpaceOnUse" x1="106.1465" y1="346.0903" x2="250.7822" y2="346.0903">
      <stop offset="0" style="stop-color:#BED0E4" />
      <stop offset="0.149" style="stop-color:#B7C9DF" />
      <stop offset="0.4429" style="stop-color:#AFC3DB" />
      <stop offset="1" style="stop-color:#AEC1DA" />
    </linearGradient>
    <path
      fill="url(#SVGID_15_)"
      d="M135.563,350.084c0,0,108.25-34,114.75-37c0,0,1.875,5-1.875,6.125s-110.375,32.625-110.375,32.625
         s-24.125,6.625-24.125,9s3.124,1.083,5.541,2.833s2.417,2.5,2.417,3.75s-1.417,1.668-3.833,2.084
         c-2.417,0.416-10.25,2.332-10.25,6.166s7.083,3.334,7.083,3.334s-8.75,1-8.75-3.5s5.667-6.75,7.75-7.417
         c2.084-0.667,4.584-0.864,4.584-2.917s-5.917-1.584-7.75-2.5c-1.834-0.916-2.834-3.084,1.083-4.75S135.563,350.084,135.563,350.084z" />
    <!-- ボディの細い溝 -->
    <path
      fill="#C7D2D9"
      d="M374.147,146.334c0,0-41.333,2.333-74,52.333c-32.667,50-24.666,133.333,1,173.333
         c25.666,40,51.999,43.667,74.666,51c0,0-49.662-12.813-69.666-49.333C286.144,337.148,281.48,313,281.48,279.334
         s12.167-75.5,39.667-103S374.147,146.334,374.147,146.334z" />
    <path
      fill="#DDE5E9"
      d="M374.147,146.334c0,0-0.091,0.01-0.242,0.028C373.986,146.355,374.066,146.342,374.147,146.334z
         M353.265,415.846c-16.765-6.167-34.597-16.537-52.118-43.845c-25.666-40-33.667-123.333-1-173.333
         c23.756-36.361,52.09-47.511,65.783-50.89c1.232-0.313,2.472-0.583,3.717-0.812c0.693-0.13,1.313-0.235,1.857-0.318
         c0.027-0.004,0.055-0.009,0.082-0.013c1.649-0.249,2.561-0.302,2.561-0.302s-60.334-1.333-90.667,82.333
         c0,0-17.916,52.417-2.166,105.417l-21.205,1.165c-0.093,1.267-0.18,2.451-0.257,3.518l22.462-1.183c0,0,16.25,74.584,93.5,85.417
         C375.813,423.001,366.059,421.373,353.265,415.846z" />
    <path
      fill="#C7D2D9" d="M280.366,330.732l-19.986,0.791c-0.115,1.586-0.227,3.104-0.329,4.509c0.019-0.258,0.038-0.512,0.058-0.782
            l21.205-1.165l3.438-0.313L280.366,330.732z" />
    <!-- ウィングの影 -->
    <path
      fill="#AEBFC7"
      d="M246.838,354.157l-59.802,17.37c0,0-1.188,0.56-0.964,1.372c0.556,0.703,1.125,1.394,1.721,2.059
         c0.044,0.049,0.085,0.095,0.131,0.145c14.716,16.304,40.765,21.231,40.765,21.231c3.749,0.879,5.25-2.125,5.25-4
         s-3.5-9.125,2.75-22.75C240.487,361.301,244.37,356.589,246.838,354.157z" />
    <!-- プロペラの渦巻き -->
    <path
      fill="#FFFFFF"
      d="M361.313,266.209c0,0-5.5,0-9.375,6s-5.875,11.625-5.875,16.25s3.625,13,16.375,13
         c0,0,9.376,0.958,9.376-12.042s-3.25-15-5-15s-8.167,0.667-8.167,9.917c0,0-0.333,4.083,3.417,4.083s3.126-3.042,2.417-3.75
         s-2.23-1.083-2.23-3.083s3.688-3.438,5.063-3.438s1.875,1.625,2.188,5s1.75,14.375-5.75,14.375s-13.125-4.375-13.125-11.313
         s4.188-18.375,12.188-18.375c0,0,1.833,0.084,2.458,0.292s1.25-0.292,0-1.167S361.313,266.209,361.313,266.209z" />
    <!-- プロペラの影 -->
    <linearGradient id="SVGID_16_" gradientUnits="userSpaceOnUse" x1="308.4897" y1="295.4585" x2="385.1572" y2="380.7921">
      <stop  offset="0" style="stop-color:#000000" />
      <stop  offset="1" style="stop-color:#919BA2" />
    </linearGradient>
    <path
      opacity="0.36"
      fill="url(#SVGID_16_)"
      d="M388.563,370.834c-6.25-3-38.75-17.75-56-40s-20.5-38.75-20.5-52.75
         s2.25-14.417,1-14.417s-3.417,5.417-4.25,8c-0.006,0.018-0.012,0.05-0.018,0.07c-0.205,3.162-0.315,6.36-0.315,9.595
         c0,52.826,27.866,96.84,64.799,106.629c7.442,0.026,16.404-0.692,20.784-3.878C402.313,378.084,394.813,373.834,388.563,370.834z" />
    <!-- ボディのツヤ -->
    <path
      opacity="0.55"
      fill="#E2E9EE"
      d="M270.938,278.458c0,0,4.875-12,5.625-14.375s0.125-4.625,1.875-4.625s17,8.625,17,21.5
         s-8.375,12.875-11.625,12.875s-13.5-5.625-13.5-11.75C270.313,282.083,270.337,279.943,270.938,278.458z" />
    <!-- ボディのツヤ -->
    <path
      opacity="0.55"
      fill="#E2E9EE"
      d="M370.667,142.17c-13.434,3.274-43.571,12.215-61.188,29.831
         c-23.167,23.167-37,54.333-37,65.667s7.999,11,7.999,11s8.834-0.5,10.5-4.833c1.667-4.333,11.667-39.833,31-60.667
         s39.667-36.333,59.5-36.333c0,0,5.958-0.25,5.958-2.875c0-1.269-2.326-2.079-4.73-2.579
         C378.779,141.468,374.759,141.736,370.667,142.17z" />
  </g>
</svg>