<?xml version="1.0" encoding="UTF-8" standalone="no"?>
<!-- Generator: Adobe Illustrator 16.0.0, SVG Export Plug-In . SVG Version: 6.00 Build 0)  -->

<svg
   xmlns:dc="http://purl.org/dc/elements/1.1/"
   xmlns:cc="http://creativecommons.org/ns#"
   xmlns:rdf="http://www.w3.org/1999/02/22-rdf-syntax-ns#"
   xmlns:svg="http://www.w3.org/2000/svg"
   xmlns="http://www.w3.org/2000/svg"
   xmlns:sodipodi="http://sodipodi.sourceforge.net/DTD/sodipodi-0.dtd"
   xmlns:inkscape="http://www.inkscape.org/namespaces/inkscape"
   version="1.1"
   id="Layer_1"
   x="0px"
   y="0px"
   width="140"
   height="140"
   viewBox="0 0 140 140"
   xml:space="preserve"
   inkscape:version="0.48.4 r9939"
   sodipodi:docname="coffeescript_emblem.svg"><metadata
   id="metadata61"><rdf:RDF><cc:Work
       rdf:about=""><dc:format>image/svg+xml</dc:format><dc:type
         rdf:resource="http://purl.org/dc/dcmitype/StillImage" /></cc:Work></rdf:RDF></metadata><defs
   id="defs59" /><sodipodi:namedview
   pagecolor="#ffffff"
   bordercolor="#666666"
   borderopacity="1"
   objecttolerance="10"
   gridtolerance="10"
   guidetolerance="10"
   inkscape:pageopacity="0"
   inkscape:pageshadow="2"
   inkscape:window-width="640"
   inkscape:window-height="480"
   id="namedview57"
   showgrid="false"
   inkscape:zoom="1.0214286"
   inkscape:cx="140"
   inkscape:cy="70"
   inkscape:window-x="576"
   inkscape:window-y="141"
   inkscape:window-maximized="0"
   inkscape:current-layer="Layer_1" />
<style
   type="text/css"
   id="style3">

	.st0{fill:#28334C;}
	.st1{opacity:0.6;}
	.st2{fill:#323232;}

</style>
<g
   id="g5"
   transform="matrix(1.7268018,0,0,1.7268018,-50.880669,-50.876983)">
	<path
   class="st0"
   d="m 61.32,48.37 c 7.44,-0.66 9.58,-5.44 18.23,-6.2 4.25,-0.37 6.96,0.48 7.27,1.96 0.3,1.41 -1.88,2.31 -4.41,2.54 -3.49,0.31 -5.05,-0.96 -5.3,-2.15 -2.62,0.3 -3.09,1.46 -2.93,2.23 0.32,1.54 3.52,2.98 8.98,2.5 6.18,-0.54 8.25,-2.92 7.72,-5.43 -0.67,-3.19 -5.46,-5.81 -13.96,-5.06 -10.93,0.96 -10.9,6 -18.34,6.66 -3.04,0.27 -4.78,-0.41 -5.03,-1.62 -0.26,-1.21 1.27,-1.77 3.05,-1.93 1.67,-0.15 3.63,0.08 4.56,0.61 0.7,-0.36 0.93,-0.71 0.85,-1.11 -0.23,-1.1 -2.56,-1.61 -5.49,-1.35 -5.57,0.49 -5.54,3.04 -5.33,4.07 0.59,2.84 4.86,4.75 10.13,4.28 z"
   id="path7"
   inkscape:connector-curvature="0"
   style="fill:#28334c" />
	<path
   class="st0"
   d="m 46.1,55.25 c 6.8,1.75 15.58,2.63 26.11,2.63 10.75,0 19.31,-0.88 26.11,-2.63 7.24,-1.76 10.75,-3.95 10.75,-6.15 0,-1.53 -1.54,-3.07 -4.39,-4.17 0.66,0.44 1.1,1.1 1.1,1.97 0,2.19 -3.29,3.95 -9.87,5.49 -6.14,1.32 -14.04,2.19 -23.48,2.19 -9.22,0 -17.33,-0.88 -23.26,-2.19 -6.36,-1.53 -9.66,-3.29 -9.66,-5.49 0,-0.88 0.44,-1.75 1.75,-2.63 -3.95,1.53 -6.14,2.85 -6.14,4.83 0.23,2.2 3.74,4.4 10.98,6.15 z"
   id="path9"
   inkscape:connector-curvature="0"
   style="fill:#28334c" />
	<path
   class="st0"
   d="m 98.54,60.74 c -6.8,1.53 -15.58,2.63 -26.11,2.63 -10.75,0 -19.53,-1.1 -26.33,-2.63 -6.14,-1.54 -9.43,-3.29 -10.53,-5.05 0.57,4.01 1.57,7.89 2.89,11.6 -1.54,0.92 -2.94,2.15 -4.2,3.76 -2.41,3.07 -3.51,6.58 -3.29,10.09 0.22,3.51 1.97,6.36 4.61,8.56 2.85,2.19 5.92,2.85 9.43,2.19 1.32,-0.22 2.85,-0.88 4.17,-1.32 -2.85,0 -5.27,-0.88 -7.68,-2.85 -2.63,-1.98 -4.39,-4.61 -4.83,-7.9 -0.66,-3.07 0,-5.92 1.75,-8.34 0.37,-0.45 0.78,-0.83 1.18,-1.21 0.96,2.32 2.02,4.56 3.2,6.7 2.63,3.95 5.27,7.46 7.9,11.19 1.1,2.19 1.97,4.39 2.41,6.58 1.75,2.41 4.17,3.95 7.24,4.83 3.73,1.32 7.68,1.97 11.63,1.76 h 0.44 c 3.95,0.22 8.12,-0.44 12.07,-1.76 2.85,-0.88 5.27,-2.41 7.02,-4.83 h 0.22 c 0.44,-2.19 1.1,-4.39 2.19,-6.58 2.63,-3.73 5.27,-7.24 7.9,-11.19 3.51,-6.36 5.92,-13.6 7.24,-21.28 -1.31,1.98 -4.6,3.73 -10.52,5.05 z"
   id="path11"
   inkscape:connector-curvature="0"
   style="fill:#28334c" />
</g>

<g
   id="g21">
</g>
<g
   id="g23">
</g>
<g
   id="g25">
</g>
<g
   id="g27">
</g>
<g
   id="g29">
</g>
<g
   id="g31">
</g>
<g
   id="g33">
</g>
<g
   id="g35">
</g>
<g
   id="g37">
</g>
<g
   id="g39">
</g>
<g
   id="g41">
</g>
<g
   id="g43">
</g>
<g
   id="g45">
</g>
<g
   id="g47">
</g>
<g
   id="g49">
</g>
<g
   id="g51">
</g>
<g
   id="g53">
</g>
<g
   id="g55">
</g>
</svg>