<?xml version="1.0" encoding="UTF-8" standalone="no"?>
<!-- Generator: Adobe Illustrator 16.0.0, SVG Export Plug-In . SVG Version: 6.00 Build 0)  -->

<svg
   xmlns:dc="http://purl.org/dc/elements/1.1/"
   xmlns:cc="http://creativecommons.org/ns#"
   xmlns:rdf="http://www.w3.org/1999/02/22-rdf-syntax-ns#"
   xmlns:svg="http://www.w3.org/2000/svg"
   xmlns="http://www.w3.org/2000/svg"
   xmlns:sodipodi="http://sodipodi.sourceforge.net/DTD/sodipodi-0.dtd"
   xmlns:inkscape="http://www.inkscape.org/namespaces/inkscape"
   version="1.1"
   id="ClarityLogo_xA0_Image_1_"
   x="0px"
   y="0px"
   width="1024"
   height="400.12436"
   viewBox="0 0 1024 400.12435"
   enable-background="new 0 0 531.12 207.6"
   xml:space="preserve"
   inkscape:version="0.48.4 r9939"
   sodipodi:docname="ClarityLogo_black.svg"><metadata
   id="metadata37"><rdf:RDF><cc:Work
       rdf:about=""><dc:format>image/svg+xml</dc:format><dc:type
         rdf:resource="http://purl.org/dc/dcmitype/StillImage" /></cc:Work></rdf:RDF></metadata><defs
   id="defs35" /><sodipodi:namedview
   pagecolor="#ffffff"
   bordercolor="#666666"
   borderopacity="1"
   objecttolerance="10"
   gridtolerance="10"
   guidetolerance="10"
   inkscape:pageopacity="0"
   inkscape:pageshadow="2"
   inkscape:window-width="1191"
   inkscape:window-height="851"
   id="namedview33"
   showgrid="false"
   fit-margin-top="0"
   fit-margin-left="0"
   fit-margin-right="0"
   fit-margin-bottom="0"
   inkscape:zoom="0.53848472"
   inkscape:cx="265.343"
   inkscape:cy="104.062"
   inkscape:window-x="0"
   inkscape:window-y="0"
   inkscape:window-maximized="0"
   inkscape:current-layer="ClarityLogo_xA0_Image_1_" />
<g
   id="g3"
   transform="matrix(1.9269636,0,0,1.9269636,-0.4181511,-0.41815511)">
	<g
   id="g5">
		<path
   clip-rule="evenodd"
   d="M 0.24,110.64 C 0.24,74.2 0.243,37.76 0.217,1.32 0.217,0.421 0.42,0.217 1.32,0.217 39.44,0.244 77.56,0.24 115.68,0.24 c -0.012,0.279 -0.036,0.559 -0.036,0.838 -0.002,19.479 0.006,38.959 -0.024,58.438 -0.002,1.207 0.473,1.478 1.564,1.47 5.119,-0.039 10.24,-0.016 15.359,-0.018 1.905,0 1.907,-0.003 1.907,-1.933 0.001,-19.079 0.001,-38.159 -10e-4,-57.238 0,-0.52 -0.032,-1.039 -0.048,-1.558 132.039,0 264.079,0.001 396.119,-0.022 0.899,0 1.103,0.202 1.103,1.102 -0.024,68.48 -0.024,136.959 0,205.44 0,0.899 -0.202,1.104 -1.103,1.103 -16.76,-0.031 -33.52,-0.022 -50.28,-0.022 0.822,-1.864 1.621,-3.74 2.471,-5.592 8.157,-17.771 16.321,-35.538 24.487,-53.304 7.432,-16.168 14.869,-32.332 22.304,-48.499 0.556,-1.208 0.471,-1.357 -0.88,-1.359 -6,-0.008 -12,0.01 -17.999,-0.019 -0.887,-0.004 -1.352,0.299 -1.719,1.123 -1.874,4.199 -3.816,8.367 -5.73,12.549 -5.059,11.053 -10.11,22.109 -15.18,33.157 -0.399,0.871 -0.688,1.82 -1.438,2.646 -0.262,-0.591 -0.482,-1.058 -0.68,-1.534 -6.447,-15.552 -12.897,-31.103 -19.322,-46.664 -0.369,-0.893 -0.838,-1.292 -1.857,-1.285 -5.96,0.046 -11.92,0.019 -17.879,0.025 -1.375,10e-4 -1.406,0.063 -0.879,1.344 2.313,5.621 4.626,11.243 6.939,16.864 7.383,17.935 14.755,35.873 22.174,53.793 0.487,1.178 0.485,2.14 -0.057,3.279 -3.21,6.753 -6.371,13.53 -9.534,20.306 -2.046,4.384 -4.067,8.778 -6.101,13.169 -152.68,0 -305.359,-0.001 -458.039,0.022 -0.899,0 -1.104,-0.202 -1.103,-1.103 0.028,-25.8 0.023,-51.6 0.023,-77.4 0.239,0.017 0.478,0.046 0.717,0.047 19.507,0.002 39.015,-0.005 58.522,0.021 1.188,0.002 1.498,-0.468 1.49,-1.569 -0.038,-5.116 -0.016,-10.233 -0.017,-15.35 0,-1.901 -0.003,-1.904 -1.951,-1.904 -17.309,0 -34.618,-0.002 -51.927,0.001 -2.279,0.002 -4.557,0.024 -6.835,0.036 z m 127.259,70.846 c 2.119,-0.032 4.231,-0.049 6.349,-0.229 7.125,-0.604 13.982,-2.218 20.386,-5.436 7.288,-3.662 13.548,-8.739 19.361,-14.407 0.728,-0.71 0.391,-1.161 -0.113,-1.687 -4.12,-4.302 -8.25,-8.596 -12.356,-12.91 -0.555,-0.582 -0.952,-0.653 -1.576,-0.059 -1.562,1.488 -3.174,2.925 -4.798,4.346 -9.972,8.721 -21.52,11.94 -34.535,9.634 -8.688,-1.54 -16.069,-5.556 -21.617,-12.529 -7.015,-8.816 -8.807,-19.021 -7.221,-29.882 1.514,-10.367 7.116,-18.282 15.714,-24.078 6.888,-4.643 14.601,-6.217 22.829,-5.736 7.028,0.41 13.471,2.554 19.431,6.232 3.729,2.301 7.073,5.082 10.124,8.221 0.434,0.446 0.813,0.88 1.479,0.244 4.366,-4.167 8.749,-8.319 13.141,-12.459 0.564,-0.532 0.546,-0.919 0.035,-1.496 -2.152,-2.431 -4.458,-4.698 -6.989,-6.729 -13.093,-10.503 -27.974,-15.274 -44.759,-13.952 -9.099,0.717 -17.519,3.54 -25.34,8.181 -11.863,7.042 -20.16,16.997 -24.263,30.245 -3.004,9.696 -3.307,19.605 -1.525,29.54 3.134,17.476 12.704,30.394 28.319,38.729 8.686,4.635 18.139,6.286 27.924,6.217 z m 157.612,-74.283 c -0.27,-0.035 -0.367,-0.018 -0.416,-0.059 -0.671,-0.567 -1.333,-1.146 -2.003,-1.715 -7.534,-6.4 -16.313,-9.156 -26.058,-8.145 -14.654,1.521 -24.435,9.875 -30.432,22.955 -2.918,6.366 -3.683,13.185 -3.547,20.149 0.144,7.382 1.642,14.424 5.525,20.73 7.669,12.457 18.382,19.907 33.561,19.638 6.676,-0.118 12.717,-2.128 18.183,-5.951 1.723,-1.205 3.271,-2.633 5.113,-4.013 0.031,0.578 0.069,0.962 0.07,1.346 0.007,1.76 0.051,3.521 -0.014,5.279 -0.04,1.106 0.383,1.45 1.469,1.442 5.76,-0.04 11.52,-0.041 17.278,0.001 1.104,0.009 1.472,-0.368 1.458,-1.455 -0.046,-3.56 -0.017,-7.119 -0.017,-10.68 0,-21.798 0,-43.596 0,-65.395 0,-2.25 -0.001,-2.25 -2.305,-2.25 -4.959,0 -9.919,-0.018 -14.879,0.007 -3.386,0.017 -2.955,-0.48 -2.985,2.998 -0.014,1.7 -0.001,3.398 -0.001,5.118 z m 126.702,40.263 c 0,9.96 0.015,19.92 -0.02,29.879 -0.004,1.145 0.358,1.527 1.512,1.519 5.76,-0.046 11.52,-0.04 17.279,-0.004 1.036,0.007 1.492,-0.339 1.399,-1.382 -0.035,-0.396 -0.004,-0.799 -0.004,-1.199 0,-19.479 -10e-4,-38.958 0.001,-58.437 0,-1.605 0.031,-1.635 1.588,-1.638 2.96,-0.005 5.92,-0.029 8.879,0.013 0.985,0.014 1.344,-0.34 1.337,-1.325 -0.03,-4.84 -0.031,-9.68 0.001,-14.519 0.006,-1.006 -0.389,-1.318 -1.355,-1.304 -2.879,0.041 -5.759,0.015 -8.639,0.013 -1.807,-10e-4 -1.811,-0.003 -1.812,-1.774 -10e-4,-8.56 0.001,-17.12 -10e-4,-25.679 -0.001,-1.821 -0.005,-1.825 -1.77,-1.826 -5.521,-0.002 -11.04,-10e-4 -16.56,0 -1.833,0 -1.836,0.003 -1.837,1.87 -10e-4,8.64 -0.019,17.279 0.021,25.919 0.005,1.14 -0.328,1.547 -1.495,1.513 -2.518,-0.073 -5.04,0.004 -7.56,-0.034 -0.927,-0.014 -1.282,0.325 -1.277,1.257 0.025,4.879 0.025,9.759 0,14.639 -0.005,0.942 0.375,1.261 1.29,1.247 2.479,-0.037 4.96,-0.015 7.439,-0.01 1.574,0.003 1.58,0.008 1.581,1.623 0.004,9.88 0.002,19.76 0.003,29.639 z M 188.377,123.474 c 0,17.914 -0.001,35.827 10e-4,53.74 0,1.592 0.035,1.626 1.601,1.627 5.678,0.004 11.356,-0.028 17.034,0.025 1.209,0.011 1.581,-0.372 1.58,-1.578 -0.025,-35.786 -0.025,-71.573 0,-107.36 0.001,-1.189 -0.339,-1.602 -1.565,-1.59 -5.558,0.055 -11.116,0.023 -16.674,0.024 -1.974,0 -1.976,0.001 -1.976,1.971 -10e-4,17.714 -10e-4,35.428 -10e-4,53.141 z m 149.58,-15.053 c 0,-2.736 -0.047,-5.295 0.021,-7.85 0.03,-1.155 -0.366,-1.522 -1.514,-1.51 -4.719,0.051 -9.438,0.019 -14.158,0.022 -1.63,0.001 -1.663,0.032 -1.663,1.688 -0.002,25.436 -0.002,50.872 0,76.307 0,1.749 0.013,1.762 1.713,1.763 5.52,0.002 11.038,0.001 16.558,0 1.867,0 1.886,-0.003 1.869,-1.846 -0.1,-10.915 0.187,-21.831 -0.158,-32.746 -0.153,-4.877 0.121,-9.751 0.718,-14.595 0.45,-3.662 1.112,-7.28 3.228,-10.444 1.528,-2.287 3.441,-4.003 6.29,-4.356 1.949,-0.241 3.7,0.485 5.423,1.241 0.817,0.359 1.234,0.173 1.531,-0.66 1.813,-5.085 3.646,-10.162 5.492,-15.234 0.252,-0.691 0.152,-1.114 -0.566,-1.416 -2.042,-0.856 -4.127,-1.53 -6.357,-1.613 -7.887,-0.292 -13.494,3.416 -17.466,9.981 -0.242,0.399 -0.356,0.888 -0.961,1.268 z m 53.491,30.667 c 0,-12.797 0.001,-25.593 -0.002,-38.389 0,-1.576 -0.041,-1.614 -1.614,-1.615 -5.679,-0.003 -11.357,0.028 -17.035,-0.024 -1.198,-0.011 -1.584,0.347 -1.582,1.566 0.029,25.552 0.029,51.105 0.001,76.658 -0.002,1.199 0.351,1.595 1.568,1.583 5.598,-0.055 11.196,-0.023 16.795,-0.024 1.864,0 1.868,-0.003 1.868,-1.845 10e-4,-12.638 10e-4,-25.274 10e-4,-37.91 z M 42.666,28.059 c -0.458,0.042 -0.679,0.41 -0.953,0.684 -3.792,3.783 -7.555,7.597 -11.384,11.342 -0.889,0.87 -0.792,1.39 0.043,2.222 13.617,13.574 27.211,27.171 40.785,40.788 0.798,0.801 1.283,0.866 2.108,0.022 3.718,-3.801 7.48,-7.558 11.277,-11.28 0.81,-0.794 0.864,-1.279 0.024,-2.108 C 79.105,64.336 73.695,58.892 68.267,53.464 60.07,45.267 51.873,37.069 43.671,28.876 43.365,28.571 43.115,28.187 42.666,28.059 z m 351.466,51.234 c -0.02,-7.299 -5.622,-12.862 -12.943,-12.851 -7.049,0.012 -12.794,5.642 -12.749,12.698 0.05,7.821 6.472,13.232 13.104,13.089 7.127,-0.153 12.608,-5.658 12.588,-12.936 z"
   id="path7"
   inkscape:connector-curvature="0"
   style="fill:none" />
		<path
   clip-rule="evenodd"
   d="m 459.359,207.84 c 2.033,-4.391 4.055,-8.785 6.101,-13.169 3.163,-6.775 6.324,-13.553 9.534,-20.306 0.542,-1.14 0.544,-2.102 0.057,-3.279 -7.419,-17.92 -14.791,-35.858 -22.174,-53.793 -2.313,-5.621 -4.626,-11.243 -6.939,-16.864 -0.527,-1.281 -0.496,-1.343 0.879,-1.344 5.959,-0.006 11.919,0.021 17.879,-0.025 1.02,-0.007 1.488,0.392 1.857,1.285 6.425,15.562 12.875,31.112 19.322,46.664 0.197,0.477 0.418,0.943 0.68,1.534 0.75,-0.826 1.039,-1.775 1.438,-2.646 5.069,-11.048 10.121,-22.104 15.18,-33.157 1.914,-4.182 3.856,-8.35 5.73,-12.549 0.367,-0.824 0.832,-1.127 1.719,-1.123 5.999,0.029 11.999,0.011 17.999,0.019 1.351,10e-4 1.436,0.15 0.88,1.359 -7.435,16.167 -14.872,32.331 -22.304,48.499 -8.166,17.766 -16.33,35.533 -24.487,53.304 -0.85,1.852 -1.648,3.728 -2.471,5.592 -6.96,-0.001 -13.92,-0.001 -20.88,-0.001 z"
   id="path9"
   inkscape:connector-curvature="0"
   style="fill-rule:evenodd" />
		<path
   clip-rule="evenodd"
   d="m 134.4,0.24 c 0.017,0.519 0.048,1.039 0.048,1.558 0.002,19.079 0.002,38.159 0.001,57.238 0,1.929 -0.002,1.932 -1.907,1.933 -5.12,10e-4 -10.24,-0.021 -15.359,0.018 -1.091,0.008 -1.566,-0.263 -1.564,-1.47 0.03,-19.479 0.022,-38.958 0.024,-58.438 0,-0.279 0.023,-0.559 0.036,-0.838 C 121.92,0.24 128.16,0.24 134.4,0.24 z"
   id="path11"
   inkscape:connector-curvature="0"
   style="fill-rule:evenodd" />
		<path
   clip-rule="evenodd"
   d="m 0.24,110.64 c 2.278,-0.012 4.556,-0.033 6.834,-0.034 17.309,-0.003 34.618,-10e-4 51.927,-10e-4 1.948,0 1.951,0.003 1.951,1.904 0.001,5.116 -0.021,10.233 0.017,15.35 0.008,1.102 -0.302,1.571 -1.49,1.569 -19.508,-0.026 -39.015,-0.02 -58.522,-0.021 -0.239,-0.001 -0.479,-0.03 -0.717,-0.047 0,-6.24 0,-12.48 0,-18.72 z"
   id="path13"
   inkscape:connector-curvature="0"
   style="fill-rule:evenodd" />
		<path
   clip-rule="evenodd"
   d="m 127.499,181.486 c -9.785,0.068 -19.238,-1.582 -27.924,-6.218 -15.615,-8.335 -25.185,-21.253 -28.319,-38.729 -1.782,-9.935 -1.479,-19.844 1.525,-29.54 4.104,-13.248 12.4,-23.203 24.264,-30.245 7.821,-4.642 16.241,-7.464 25.34,-8.181 16.785,-1.322 31.666,3.449 44.759,13.952 2.531,2.031 4.837,4.298 6.989,6.729 0.511,0.577 0.529,0.964 -0.035,1.496 -4.392,4.14 -8.774,8.292 -13.141,12.459 -0.667,0.636 -1.045,0.203 -1.479,-0.244 -3.051,-3.139 -6.396,-5.919 -10.124,-8.221 -5.96,-3.679 -12.403,-5.822 -19.431,-6.232 -8.229,-0.481 -15.941,1.094 -22.829,5.736 -8.598,5.796 -14.201,13.711 -15.714,24.078 -1.585,10.86 0.207,21.065 7.221,29.882 5.548,6.974 12.929,10.989 21.617,12.529 13.015,2.307 24.563,-0.913 34.535,-9.634 1.624,-1.421 3.236,-2.857 4.798,-4.346 0.624,-0.595 1.021,-0.523 1.576,0.059 4.107,4.314 8.236,8.608 12.356,12.91 0.504,0.525 0.841,0.977 0.113,1.687 -5.813,5.668 -12.074,10.745 -19.361,14.407 -6.404,3.218 -13.261,4.831 -20.386,5.436 -2.119,0.182 -4.231,0.198 -6.35,0.23 z"
   id="path15"
   inkscape:connector-curvature="0"
   style="fill-rule:evenodd" />
		<path
   clip-rule="evenodd"
   d="m 285.111,107.203 c 0,-1.72 -0.013,-3.418 0.003,-5.116 0.03,-3.478 -0.4,-2.981 2.985,-2.998 4.96,-0.025 9.92,-0.007 14.879,-0.007 2.304,0 2.305,0 2.305,2.25 0,21.799 0,43.597 0,65.395 0,3.561 -0.029,7.12 0.017,10.68 0.014,1.087 -0.354,1.464 -1.458,1.455 -5.759,-0.042 -11.519,-0.041 -17.278,-0.001 -1.086,0.008 -1.509,-0.336 -1.469,-1.442 0.064,-1.758 0.021,-3.52 0.014,-5.279 -10e-4,-0.384 -0.039,-0.768 -0.07,-1.346 -1.843,1.38 -3.391,2.808 -5.113,4.013 -5.466,3.823 -11.507,5.833 -18.183,5.951 -15.179,0.27 -25.892,-7.181 -33.561,-19.638 -3.883,-6.307 -5.381,-13.349 -5.525,-20.73 -0.136,-6.965 0.628,-13.783 3.547,-20.149 5.997,-13.08 15.778,-21.434 30.432,-22.955 9.745,-1.011 18.523,1.745 26.058,8.145 0.67,0.569 1.332,1.147 2.003,1.715 0.047,0.04 0.144,0.022 0.414,0.057 z m 0.987,29.133 c 0.04,-3.855 -1.617,-9.551 -6.003,-14.185 -4.895,-5.173 -11.025,-7.134 -18.05,-6.482 -8.332,0.772 -13.966,5.313 -17.341,12.743 -1.975,4.348 -2.332,8.999 -1.827,13.745 0.696,6.542 3.53,11.914 8.683,15.981 4.385,3.461 9.445,4.618 14.982,4.127 6.05,-0.538 10.881,-3.224 14.641,-7.921 3.647,-4.555 4.88,-9.882 4.915,-18.008 z"
   id="path17"
   inkscape:connector-curvature="0"
   style="fill-rule:evenodd" />
		<path
   clip-rule="evenodd"
   d="m 411.813,147.466 c -10e-4,-9.879 0.001,-19.759 -10e-4,-29.639 -0.001,-1.615 -0.007,-1.62 -1.581,-1.623 -2.479,-0.005 -4.96,-0.027 -7.439,0.01 -0.915,0.014 -1.295,-0.305 -1.29,-1.247 0.025,-4.88 0.025,-9.76 0,-14.639 -0.005,-0.933 0.351,-1.271 1.277,-1.257 2.52,0.039 5.042,-0.039 7.56,0.034 1.167,0.034 1.5,-0.373 1.495,-1.513 -0.039,-8.64 -0.021,-17.279 -0.021,-25.919 0.001,-1.866 0.004,-1.869 1.837,-1.87 5.52,-10e-4 11.039,-0.002 16.56,0 1.765,0.001 1.769,0.004 1.77,1.826 0.002,8.56 0,17.12 10e-4,25.679 0.001,1.771 0.005,1.772 1.812,1.774 2.88,0.002 5.76,0.028 8.639,-0.013 0.967,-0.014 1.361,0.298 1.355,1.304 -0.032,4.839 -0.031,9.679 -10e-4,14.519 0.007,0.985 -0.352,1.339 -1.337,1.325 -2.959,-0.042 -5.919,-0.018 -8.879,-0.013 -1.557,0.003 -1.588,0.032 -1.588,1.638 -0.002,19.479 -0.001,38.958 -0.001,58.437 0,0.4 -0.031,0.803 0.004,1.199 0.093,1.043 -0.363,1.389 -1.399,1.382 -5.76,-0.036 -11.52,-0.042 -17.279,0.004 -1.153,0.009 -1.516,-0.374 -1.512,-1.519 0.033,-9.959 0.018,-19.919 0.018,-29.879 z"
   id="path19"
   inkscape:connector-curvature="0"
   style="fill-rule:evenodd" />
		<path
   clip-rule="evenodd"
   d="m 188.377,123.474 c 0,-17.713 0,-35.427 0,-53.14 0,-1.969 0.002,-1.971 1.976,-1.971 5.558,-0.001 11.116,0.031 16.674,-0.024 1.226,-0.012 1.566,0.4 1.565,1.59 -0.025,35.787 -0.025,71.574 0,107.36 10e-4,1.206 -0.371,1.589 -1.58,1.578 -5.677,-0.054 -11.355,-0.021 -17.034,-0.025 -1.566,-0.001 -1.601,-0.035 -1.601,-1.627 -0.001,-17.914 0,-35.827 0,-53.741 z"
   id="path21"
   inkscape:connector-curvature="0"
   style="fill-rule:evenodd" />
		<path
   clip-rule="evenodd"
   d="m 337.957,108.421 c 0.605,-0.38 0.72,-0.869 0.96,-1.267 3.972,-6.565 9.579,-10.273 17.466,-9.981 2.23,0.083 4.315,0.756 6.357,1.613 0.719,0.302 0.818,0.725 0.566,1.416 -1.847,5.072 -3.68,10.149 -5.492,15.234 -0.297,0.833 -0.714,1.02 -1.531,0.66 -1.723,-0.756 -3.474,-1.482 -5.423,-1.241 -2.849,0.354 -4.762,2.069 -6.29,4.356 -2.115,3.164 -2.777,6.782 -3.228,10.444 -0.597,4.844 -0.871,9.718 -0.718,14.595 0.345,10.915 0.059,21.831 0.158,32.746 0.017,1.843 -0.002,1.846 -1.869,1.846 -5.52,10e-4 -11.038,0.002 -16.558,0 -1.7,-0.001 -1.713,-0.014 -1.713,-1.763 -0.002,-25.436 -0.002,-50.871 0,-76.307 0,-1.657 0.033,-1.688 1.663,-1.688 4.72,-0.003 9.439,0.029 14.158,-0.022 1.147,-0.012 1.544,0.355 1.514,1.51 -0.067,2.554 -0.02,5.113 -0.02,7.849 z"
   id="path23"
   inkscape:connector-curvature="0"
   style="fill-rule:evenodd" />
		<path
   clip-rule="evenodd"
   d="m 391.448,139.088 c 0,12.636 0,25.272 -10e-4,37.909 0,1.842 -0.004,1.845 -1.868,1.845 -5.599,10e-4 -11.197,-0.03 -16.795,0.024 -1.218,0.012 -1.57,-0.384 -1.568,-1.583 0.028,-25.553 0.028,-51.105 -0.001,-76.658 -0.002,-1.219 0.384,-1.577 1.582,-1.566 5.678,0.052 11.356,0.021 17.035,0.024 1.573,0.001 1.614,0.04 1.614,1.615 0.003,12.797 0.002,25.593 0.002,38.39 z"
   id="path25"
   inkscape:connector-curvature="0"
   style="fill-rule:evenodd" />
		<path
   clip-rule="evenodd"
   d="m 42.666,28.059 c 0.449,0.127 0.7,0.512 1.005,0.816 8.202,8.193 16.398,16.391 24.596,24.588 5.428,5.427 10.838,10.872 16.299,16.265 0.84,0.829 0.786,1.313 -0.024,2.108 -3.796,3.722 -7.559,7.479 -11.277,11.28 -0.825,0.843 -1.31,0.779 -2.108,-0.022 C 57.582,69.478 43.988,55.881 30.371,42.307 c -0.835,-0.832 -0.932,-1.352 -0.043,-2.222 3.829,-3.746 7.592,-7.559 11.384,-11.342 0.275,-0.274 0.496,-0.642 0.954,-0.684 z"
   id="path27"
   inkscape:connector-curvature="0"
   style="fill-rule:evenodd" />
		<path
   clip-rule="evenodd"
   d="m 394.132,79.293 c 0.02,7.278 -5.461,12.783 -12.588,12.937 -6.633,0.143 -13.055,-5.268 -13.104,-13.089 -0.045,-7.057 5.7,-12.687 12.749,-12.698 7.321,-0.012 12.924,5.551 12.943,12.85 z"
   id="path29"
   inkscape:connector-curvature="0"
   style="fill-rule:evenodd" />
		<path
   clip-rule="evenodd"
   d="m 286.098,136.336 c -0.035,8.126 -1.269,13.453 -4.915,18.009 -3.76,4.697 -8.591,7.383 -14.641,7.921 -5.537,0.491 -10.597,-0.666 -14.982,-4.127 -5.153,-4.067 -7.987,-9.439 -8.683,-15.981 -0.505,-4.746 -0.148,-9.397 1.827,-13.745 3.375,-7.431 9.009,-11.971 17.341,-12.743 7.024,-0.651 13.155,1.31 18.05,6.482 4.386,4.633 6.043,10.328 6.003,14.184 z"
   id="path31"
   inkscape:connector-curvature="0"
   style="fill:none" />
	</g>
</g>
</svg>