<?xml version="1.0" encoding="UTF-8" standalone="no"?>
<!-- Created with Inkscape (http://www.inkscape.org/) -->

<svg
   xmlns:dc="http://purl.org/dc/elements/1.1/"
   xmlns:cc="http://creativecommons.org/ns#"
   xmlns:rdf="http://www.w3.org/1999/02/22-rdf-syntax-ns#"
   xmlns:svg="http://www.w3.org/2000/svg"
   xmlns="http://www.w3.org/2000/svg"
   xmlns:sodipodi="http://sodipodi.sourceforge.net/DTD/sodipodi-0.dtd"
   xmlns:inkscape="http://www.inkscape.org/namespaces/inkscape"
   width="2203.949"
   height="863.88586"
   id="svg2"
   version="1.1"
   inkscape:version="0.48.4 r9939"
   sodipodi:docname="ClarityLogo_black.svg">
  <defs
     id="defs4" />
  <sodipodi:namedview
     id="base"
     pagecolor="#ffffff"
     bordercolor="#666666"
     borderopacity="1.0"
     inkscape:pageopacity="0.0"
     inkscape:pageshadow="2"
     inkscape:zoom="0.35"
     inkscape:cx="249.35713"
     inkscape:cy="693.73699"
     inkscape:document-units="px"
     inkscape:current-layer="layer1"
     showgrid="false"
     fit-margin-top="0"
     fit-margin-left="0"
     fit-margin-right="0"
     fit-margin-bottom="0"
     inkscape:window-width="989"
     inkscape:window-height="520"
     inkscape:window-x="216"
     inkscape:window-y="107"
     inkscape:window-maximized="0" />
  <metadata
     id="metadata7">
    <rdf:RDF>
      <cc:Work
         rdf:about="">
        <dc:format>image/svg+xml</dc:format>
        <dc:type
           rdf:resource="http://purl.org/dc/dcmitype/StillImage" />
        <dc:title></dc:title>
      </cc:Work>
    </rdf:RDF>
  </metadata>
  <g
     inkscape:label="Layer 1"
     inkscape:groupmode="layer"
     id="layer1"
     transform="translate(320.07142,-495.27806)">
    <path
       inkscape:connector-curvature="0"
       id="path3011"
       d="m 1593.9286,1358.1479 c 0,-0.55 0.5625,-1.0059 1.25,-1.0132 1.3208,-0.014 67.7573,-141.3262 67.7527,-144.112 0,-1.1586 -100.4103,-246.31256 -123.3371,-301.13599 l -1.5729,-3.76118 40.5649,0.26118 40.5649,0.26118 42.7244,103.00001 c 46.0668,111.0577 44.3453,107.5128 48.2931,99.4434 0.9569,-1.9561 22.2009,-48.2501 47.2088,-102.8755 25.0079,-54.62544 45.6426,-99.49264 45.8549,-99.70491 0.2122,-0.21228 18.4442,-0.26829 40.5155,-0.12448 l 40.1297,0.26148 -102.9276,224.00001 c -56.6101,123.2 -102.4958,224.1509 -101.9682,224.3354 0.5277,0.1845 0.705,0.747 0.3941,1.25 -0.8009,1.2959 -85.4472,1.2113 -85.4472,-0.085 z M 186.6707,1246.1618 c -34.46829,-2.7129 -62.12165,-10.1517 -90.321503,-24.2966 -59.06357,-29.6262 -101.5025499,-83.855 -115.85044,-148.0346 -4.48825,-20.0764 -5.90352,-34.2732 -5.94969,-59.6827 -0.0775,-42.63273 6.29735,-72.78255 22.3067401,-105.50001 C 19.400957,862.5737 53.036427,829.88707 103.42858,805.08147 c 34.90621,-17.18263 66.7942,-24.35681 108,-24.29792 40.33502,0.0577 72.84744,7.24441 108.26309,23.9312 29.62222,13.95709 61.53964,37.10436 79.13217,57.38853 l 5.39527,6.22074 -3.39527,3.24664 c -7.85929,7.51526 -47.65729,45.20928 -50.61503,47.93919 l -3.21975,2.97175 -8.32129,-7.98877 c -36.60341,-35.14075 -77.06618,-53.34224 -122.33514,-55.03042 -29.25721,-1.09106 -54.09036,3.98639 -77.90405,15.92844 -28.59141,14.33798 -57.617863,44.26864 -69.871963,72.04859 -4.03831,9.1548 -9.45763,26.78786 -11.34673,36.9193 -2.70802,14.52341 -2.42595,45.72986 0.54797,60.62296 8.15705,40.8497 27.43876,71.509 59.388323,94.4318 38.03581,27.2894 91.75902,35.9828 140.14144,22.6773 28.60237,-7.8659 48.70239,-20.0121 79.98038,-48.3315 l 9.83943,-8.9087 4.76534,4.8986 c 22.26728,22.8903 50.04084,52.3776 49.97593,53.0596 -0.0439,0.4615 -4.65643,4.9935 -10.25,10.0711 -57.45306,52.1537 -105.1147,72.2119 -175.17012,73.7197 -10.45,0.2249 -23.84104,0.028 -29.75788,-0.4378 z m 561.25786,-3.0626 c -19.1135,-2.3812 -30.8993,-5.9057 -47.5,-14.2045 -31.3812,-15.6878 -56.4824,-41.0996 -72.84536,-73.7468 -3.99713,-7.975 -8.475,-18.325 -9.95082,-23 -9.78881,-31.0083 -11.30432,-68.9819 -4.17462,-104.6016 12.71503,-63.52364 62.2476,-114.27127 121.9708,-124.96287 13.3627,-2.39218 40.3488,-2.46142 53.1357,-0.13633 25.1082,4.56553 47.4427,15.41431 68.5874,33.31568 4.7977,4.06181 9.3621,7.38511 10.143,7.38511 2.3094,0 2.6339,-2.35092 2.6339,-19.08179 l 0,-15.91821 39,0 39,0 0,164.00001 0,164 -39,0 -39,0 0,-15.4182 c 0,-8.48 -0.2731,-16.13 -0.607,-17 -1.043,-2.7179 -3.2736,-1.7801 -10.7006,4.499 -14.4063,12.1799 -34.0026,23.8332 -48.319,28.7338 -16.3159,5.5851 -44.5242,8.3605 -62.3734,6.1367 z m 58,-74.2776 c 16.7246,-4.9682 24.6854,-9.5842 37.3757,-21.6719 13.6205,-12.9738 21.1882,-25.7741 26.1286,-44.1954 6.6391,-24.7547 5.117,-52.2458 -4.1783,-75.4649 -5.9623,-14.8936 -20.0785,-31.6507 -34.7076,-41.20066 -27.4006,-17.8873 -68.8177,-18.76608 -97.2839,-2.06414 -8.8586,5.19761 -26.0706,22.8029 -31.6989,32.4233 -5.4778,9.363 -10.964,25.5248 -12.6843,37.3668 -1.7058,11.7418 -0.7331,35.4018 1.8568,45.164 5.1965,19.5872 11.5558,31.145 24.6733,44.8424 13.288,13.8757 24.8963,20.9357 41.182,25.0461 11.7261,2.9596 11.7687,2.9637 26.8366,2.609 11.3961,-0.2683 15.5809,-0.7993 22.5,-2.8546 z m -338.99999,-160.6737 0,-228.00001 39.00001,0 39,0 0,228.00001 0,228 -39,0 -39.00001,0 0,-228 z m 551.00003,64 0,-164.00001 33.5,0 33.5,0 0,19.37756 c 0,14.55213 0.3196,19.64282 1.2835,20.44279 1.8503,1.53562 2.9845,0.43366 6.6108,-6.42333 15.0578,-28.47225 46.3849,-44.99473 76.6057,-40.40325 6.7497,1.0255 19.8434,5.01628 21.3275,6.50035 0.4551,0.45512 -22.6854,65.46904 -23.7472,66.71855 -0.3331,0.39197 -4.6298,-0.67439 -9.5482,-2.36968 -7.5008,-2.58541 -10.0003,-3.00668 -15.5034,-2.61293 -8.7247,0.62425 -14.9225,3.53333 -21.4635,10.07431 -10.915,10.91504 -16.7881,24.05104 -20.4949,45.83984 -3.5847,21.0716 -4.0703,35.9308 -4.0703,124.5557 l 0,86.3001 -39,0 -39,0 0,-164 z m 210,0 0,-164.00001 39.5,0 39.5,0 0,164.00001 0,164 -39.5,0 -39.5,0 0,-164 z m 169,35.0714 c 0,-115.87444 -0.1591,-129.08766 -1.5714,-130.49998 -1.3208,-1.32073 -4.671,-1.57143 -21,-1.57143 l -19.4286,0 0,-33.5 0,-33.5 19.4286,0 c 16.329,0 19.6792,-0.2507 21,-1.57143 1.3933,-1.39331 1.5714,-8.30736 1.5714,-61 l 0,-59.42857 39.5,0 39.5,0 0,59.42857 c 0,52.69264 0.1781,59.60669 1.5714,61 1.3372,1.33719 4.9892,1.57143 24.5,1.57143 l 22.9286,0 0,33.5 0,33.5 -22.9286,0 c -19.5108,0 -23.1628,0.23424 -24.5,1.57143 -1.4123,1.41232 -1.5714,14.62554 -1.5714,130.49998 l 0,128.9286 -39.5,0 -39.5,0 0,-128.9286 z M -320.07142,993.14789 c 0,-25.33333 0.35043,-39 1,-39 0.55,0 1,0.45 1,1 0,0.66127 41.83333,1 123.5,1 l 123.499997,0 0,37 0,37.00001 -123.499997,0 c -81.66667,0 -123.5,0.3387 -123.5,1 0,0.55 -0.45,1 -1,1 -0.64957,0 -1,-13.6667 -1,-39.00001 z M 1256.1913,873.63378 c -13.1598,-2.85908 -26.5768,-13.09323 -33.0245,-25.19031 -8.1048,-15.20614 -8.4508,-34.38869 -0.8795,-48.75687 16.0613,-30.47975 57.3326,-36.68745 81.7273,-12.29276 24.3862,24.38621 17.9833,66.07375 -12.586,81.94409 -10.9567,5.6883 -22.4044,7.0839 -35.2373,4.29585 z m -1364.21223,-121.67036 -87.17679,-87.18447 25.94172,-25.94172 25.94172,-25.94172 87.121427,87.14239 c 47.9167901,47.92831 87.12143,87.4759 87.12143,87.88354 0,0.89624 -50.24878,51.22645 -51.14357,51.22645 -0.34603,0 -39.8587,-39.23301 -87.805937,-87.18447 z m 270.94951,-131.31553 0,-123.5 37,0 37,0 0,123.5 0,123.5 -37,0 -37,0 0,-123.5 z m 17.25,-125.24875 c 10.8625,-0.16144 28.6375,-0.16144 39.5,0 10.8625,0.16144 1.975,0.29353 -19.75,0.29353 -21.725,0 -30.6125,-0.13209 -19.75,-0.29353 z"
       style="fill:#000000;fill-opacity:1" />
  </g>
</svg>
