<?xml version="1.0" encoding="UTF-8" standalone="no"?>
<!-- Generator: Adobe Illustrator 16.0.0, SVG Export Plug-In . SVG Version: 6.00 Build 0)  -->

<svg
   xmlns:dc="http://purl.org/dc/elements/1.1/"
   xmlns:cc="http://creativecommons.org/ns#"
   xmlns:rdf="http://www.w3.org/1999/02/22-rdf-syntax-ns#"
   xmlns:svg="http://www.w3.org/2000/svg"
   xmlns="http://www.w3.org/2000/svg"
   xmlns:sodipodi="http://sodipodi.sourceforge.net/DTD/sodipodi-0.dtd"
   xmlns:inkscape="http://www.inkscape.org/namespaces/inkscape"
   version="1.1"
   id="ClarityLogo_xA0_Image_1_"
   x="0px"
   y="0px"
   width="1024"
   height="400.12436"
   viewBox="0 0 1024 400.12435"
   enable-background="new 0 0 531.12 207.6"
   xml:space="preserve"
   inkscape:version="0.48.4 r9939"
   sodipodi:docname="ClarityLogo_blue.svg"><metadata
   id="metadata37"><rdf:RDF><cc:Work
       rdf:about=""><dc:format>image/svg+xml</dc:format><dc:type
         rdf:resource="http://purl.org/dc/dcmitype/StillImage" /><dc:title></dc:title></cc:Work></rdf:RDF></metadata><defs
   id="defs35">
	

		
		
		
		
		
		
		
		
		
		
		
		
		
	</defs><sodipodi:namedview
   pagecolor="#ffffff"
   bordercolor="#666666"
   borderopacity="1"
   objecttolerance="10"
   gridtolerance="10"
   guidetolerance="10"
   inkscape:pageopacity="0"
   inkscape:pageshadow="2"
   inkscape:window-width="1559"
   inkscape:window-height="851"
   id="namedview33"
   showgrid="false"
   fit-margin-top="0"
   fit-margin-left="0"
   fit-margin-right="0"
   fit-margin-bottom="0"
   inkscape:zoom="0.53848472"
   inkscape:cx="658.78493"
   inkscape:cy="104.062"
   inkscape:window-x="0"
   inkscape:window-y="0"
   inkscape:window-maximized="0"
   inkscape:current-layer="ClarityLogo_xA0_Image_1_" />
<path
   clip-rule="evenodd"
   d="M 0.04432016,212.7811 C 0.04432016,142.56254 0.05010105,72.34399 0,2.1254368 0,0.39309657 0.39117361,-4.0088e-6 2.1254409,-4.0088e-6 75.581293,0.05202401 149.03715,0.04431615 222.493,0.04431615 c -0.0231,0.53762285 -0.0694,1.07717265 -0.0694,1.61479555 -0.004,37.5353243 0.0116,75.0725753 -0.0463,112.6078983 -0.004,2.32585 0.91145,2.84805 3.01377,2.83264 9.86413,-0.0751 19.73211,-0.0308 29.59624,-0.0347 3.67086,0 3.67471,-0.006 3.67471,-3.72482 0.002,-36.764538 0.002,-73.531003 -0.002,-110.2955415 0,-1.0020211 -0.0617,-2.0021152 -0.0925,-3.00220931 254.43435,0 508.87062,0.001927 763.30692,-0.0423931988 1.7323,0 2.1254,0.3892466488 2.1254,2.1235139088 -0.046,131.9584701 -0.046,263.9150101 0,395.8754001 0,1.73234 -0.3892,2.12737 -2.1254,2.12544 -32.29593,-0.0597 -64.59184,-0.0424 -96.88775,-0.0424 1.58396,-3.59186 3.12361,-7.20684 4.76153,-10.77558 15.71824,-34.24407 31.44997,-68.48043 47.18555,-102.71487 14.3212,-31.15515 28.65207,-62.30259 42.97897,-93.45581 1.0714,-2.32777 0.9076,-2.61489 -1.6957,-2.61874 -11.5618,-0.0154 -23.12356,0.0193 -34.68342,-0.0366 -1.70921,-0.008 -2.60525,0.57616 -3.31245,2.16398 -3.61113,8.09132 -7.35329,16.1229 -11.0415,24.18146 -9.74851,21.29873 -19.4816,42.60324 -29.25131,63.89234 -0.76885,1.67838 -1.32575,3.50707 -2.77097,5.09874 -0.50486,-1.13883 -0.9288,-2.03873 -1.31033,-2.95596 -12.42314,-29.96814 -24.85205,-59.93435 -37.2328,-89.91983 -0.71105,-1.72078 -1.61479,-2.48964 -3.57837,-2.47615 -11.4847,0.0886 -22.9694,0.0366 -34.45218,0.0482 -2.64957,0.002 -2.70931,0.12139 -1.6938,2.58984 4.45707,10.83146 8.91413,21.66485 13.3712,32.49631 14.22677,34.56009 28.43235,69.12596 42.72849,103.65715 0.93843,2.26997 0.93458,4.1237 -0.10984,6.31852 -6.18555,13.01278 -12.27668,26.07181 -18.37167,39.12892 -3.94256,8.44781 -7.83696,16.91489 -11.7564,25.37618 -294.2088,0 -588.41568,-0.002 -882.6244822,0.0424 C 0.39502754,400.12243 0,399.73318 0.00192696,397.99698 0.05588195,348.28132 0.04624713,298.56566 0.04624713,248.85 c 0.4605443,0.0328 0.9210886,0.0886 1.38163287,0.0906 37.589279,0.004 75.180485,-0.01 112.76976,0.0405 2.28924,0.004 2.8866,-0.90182 2.87118,-3.02341 -0.0732,-9.85835 -0.0308,-19.71862 -0.0328,-29.57889 0,-3.66316 -0.006,-3.66894 -3.7595,-3.66894 -33.353818,0 -66.707631,-0.004 -100.061444,0.002 -4.3915497,0.004 -8.7811728,0.0462 -13.17079584,0.0694 z M 245.26778,349.29876 c 4.08324,-0.0617 8.15298,-0.0944 12.23429,-0.44127 13.72962,-1.16389 26.94281,-4.27401 39.28308,-10.47498 14.04371,-7.05654 26.10651,-16.83973 37.30795,-27.76176 1.40282,-1.36815 0.75344,-2.23721 -0.21775,-3.25079 -7.93909,-8.2898 -15.89745,-16.56418 -23.80956,-24.8771 -1.06947,-1.12149 -1.83447,-1.25831 -3.0369,-0.11369 -3.00992,2.86732 -6.11618,5.63637 -9.24557,8.37458 -19.21568,16.80505 -41.46826,23.00795 -66.54769,18.56437 -16.74146,-2.96752 -30.96438,-10.70621 -41.65517,-24.14293 -13.51765,-16.98811 -16.97077,-36.65277 -13.9146,-57.58152 2.91742,-19.97683 13.71227,-35.22875 30.2803,-46.39743 13.27293,-8.94689 28.1356,-11.97994 43.99065,-11.05307 13.5427,0.79006 25.95813,4.92147 37.44283,12.00884 7.18565,4.43394 13.62942,9.79283 19.50858,15.84157 0.83631,0.85942 1.56662,1.69573 2.84998,0.47018 8.41313,-8.02966 16.85901,-16.03041 25.32223,-24.00804 1.08681,-1.02515 1.05212,-1.77088 0.0674,-2.88274 -4.14682,-4.68445 -8.5904,-9.05287 -13.46754,-12.96654 -25.22974,-20.2389 -53.90488,-29.43244 -86.24897,-26.88499 -17.53344,1.38163 -33.75847,6.82145 -48.82926,15.76449 -22.85956,13.56967 -38.84758,32.7526 -46.75391,58.28101 -5.7886,18.68384 -6.37247,37.77812 -2.93862,56.9225 6.0391,33.67562 24.48014,58.56814 54.56968,74.62938 16.73761,8.93147 34.95319,12.11289 53.80853,11.97993 z M 548.98037,206.15812 c -0.52028,-0.0674 -0.7072,-0.0347 -0.80162,-0.11369 -1.29299,-1.09259 -2.56864,-2.2083 -3.85971,-3.30474 -14.51774,-12.33257 -31.43455,-17.64328 -50.21281,-15.69512 -28.23773,2.93091 -47.08536,19.02877 -58.64136,44.23345 -5.62288,12.26705 -7.09701,25.40702 -6.83494,38.82639 0.27748,14.22485 3.16407,27.79452 10.64647,39.94596 14.77789,24.00418 35.42145,38.36006 64.67083,37.84171 12.86441,-0.22738 24.50519,-4.10058 35.03798,-11.46736 3.32016,-2.32199 6.3031,-5.0737 9.85256,-7.73291 0.0597,1.11379 0.13296,1.85374 0.13489,2.5937 0.0135,3.39145 0.0983,6.78483 -0.027,10.17244 -0.0771,2.13122 0.73803,2.79409 2.83071,2.77868 11.09931,-0.0771 22.19862,-0.079 33.29408,0.002 2.12737,0.0174 2.83649,-0.70912 2.80951,-2.80373 -0.0886,-6.85999 -0.0328,-13.71805 -0.0328,-20.57997 0,-42.00395 0,-84.0079 0,-126.01378 0,-4.33567 -0.002,-4.33567 -4.44165,-4.33567 -9.55581,0 -19.11355,-0.0347 -28.67129,0.0135 -6.5247,0.0328 -5.69418,-0.92495 -5.75199,5.77703 -0.027,3.27584 -0.002,6.54783 -0.002,9.8622 z m 244.15014,77.58534 c 0,19.19256 0.0289,38.38511 -0.0385,57.57574 -0.008,2.20638 0.68985,2.94248 2.91357,2.92706 11.09931,-0.0886 22.19862,-0.0771 33.296,-0.008 1.99634,0.0135 2.87503,-0.65324 2.69583,-2.66306 -0.0675,-0.76308 -0.008,-1.53964 -0.008,-2.31043 0,-37.53532 -0.002,-75.07065 0.002,-112.60597 0,-3.09278 0.0597,-3.15059 3.06002,-3.15637 5.70382,-0.01 11.40763,-0.0559 17.10951,0.025 1.89806,0.027 2.58984,-0.65516 2.57635,-2.55322 -0.0578,-9.32651 -0.0597,-18.65301 0.002,-27.97759 0.0116,-1.93852 -0.74959,-2.53974 -2.61104,-2.51276 -5.54772,0.079 -11.09738,0.0289 -16.64703,0.0251 -3.48203,-0.002 -3.48974,-0.006 -3.49166,-3.41843 -0.002,-16.49481 0.002,-32.98962 -0.002,-49.4825 -0.002,-3.509 -0.01,-3.51671 -3.41072,-3.51863 -10.63877,-0.004 -21.27368,-0.002 -31.91052,0 -3.53213,0 -3.53791,0.006 -3.53983,3.60342 -0.002,16.64896 -0.0366,33.296 0.0405,49.94497 0.01,2.19674 -0.63204,2.98101 -2.88081,2.91549 -4.85209,-0.14067 -9.71189,0.008 -14.56784,-0.0655 -1.7863,-0.027 -2.47037,0.62626 -2.46074,2.42219 0.0482,9.40165 0.0482,18.80524 0,28.20882 -0.01,1.8152 0.72262,2.4299 2.48579,2.40292 4.77694,-0.0713 9.55774,-0.0289 14.33468,-0.0193 3.03304,0.006 3.0446,0.0154 3.04653,3.12746 0.008,19.03841 0.004,38.07681 0.006,57.11328 z M 362.57747,237.51175 c 0,34.51962 -0.002,69.03732 0.002,103.55502 0,3.06773 0.0674,3.13325 3.08507,3.13517 10.9413,0.008 21.8826,-0.0539 32.82389,0.0482 2.3297,0.0212 3.04653,-0.71683 3.04461,-3.04075 -0.0482,-68.95832 -0.0482,-137.91857 0,-206.87881 0.002,-2.29116 -0.65324,-3.087 -3.0157,-3.06388 -10.71006,0.10599 -21.42013,0.0443 -32.13019,0.0462 -3.80383,0 -3.80768,0.002 -3.80768,3.79805 -0.002,34.13423 -0.002,68.26846 -0.002,102.40077 z m 288.23522,-29.00658 c 0,-5.27218 -0.0906,-10.20328 0.0405,-15.12667 0.0578,-2.22564 -0.70527,-2.93284 -2.91742,-2.90971 -9.09334,0.0983 -18.18668,0.0366 -27.28195,0.0424 -3.14095,0.002 -3.20454,0.0617 -3.20454,3.25271 -0.004,49.01425 -0.004,98.0285 0,147.04082 0,3.37025 0.025,3.39531 3.30089,3.39723 10.63684,0.004 21.26982,0.002 31.90666,0 3.59764,0 3.63425,-0.006 3.6015,-3.55717 -0.1927,-21.03281 0.36034,-42.06755 -0.30446,-63.10035 -0.29483,-9.3978 0.23316,-18.78982 1.38356,-28.12404 0.86713,-7.05654 2.14278,-14.02829 6.22023,-20.1252 2.9444,-4.40697 6.63069,-7.71364 12.1206,-8.39386 3.75566,-0.4644 7.12977,0.93458 10.44993,2.39136 1.57433,0.69178 2.37787,0.33337 2.95018,-1.27179 3.49358,-9.79861 7.02571,-19.58181 10.58288,-29.35537 0.4856,-1.33153 0.2929,-2.14663 -1.09066,-2.72858 -3.93486,-1.64948 -7.95258,-2.94825 -12.24971,-3.10819 -15.19796,-0.56267 -26.00244,6.58251 -33.65634,19.23303 -0.46633,0.76885 -0.686,1.71114 -1.85181,2.44339 z m 103.07521,59.09419 c 0,-24.65936 0.002,-49.31678 -0.004,-73.97421 0,-3.03689 -0.079,-3.11012 -3.11012,-3.11204 -10.94322,-0.006 -21.88452,0.0539 -32.82582,-0.0463 -2.3085,-0.0212 -3.05231,0.66866 -3.04846,3.01762 0.0559,49.23778 0.0559,98.47748 0.002,147.71718 -0.004,2.31043 0.67636,3.07351 3.02148,3.05038 10.78714,-0.10598 21.57428,-0.0443 32.36335,-0.0462 3.59186,0 3.59957,-0.006 3.59957,-3.55525 0.002,-24.35297 0.002,-48.70208 0.002,-73.05119 z M 81.797678,53.650517 c -0.882549,0.08093 -1.308408,0.790055 -1.836396,1.318043 -7.307046,7.289703 -14.55821,14.639142 -21.936554,21.855621 -1.713071,1.676458 -1.526155,2.678479 0.08286,4.281713 26.239464,26.156606 52.434603,52.357526 78.591213,78.596996 1.53771,1.54349 2.47229,1.66875 4.06204,0.0424 7.16445,-7.32439 14.41368,-14.56399 21.73037,-21.73615 1.56084,-1.53001 1.66489,-2.46459 0.0462,-4.06204 C 152.0143,123.55498 141.58943,113.06459 131.12987,102.60503 115.33455,86.809706 99.539232,71.012459 83.734276,55.224846 83.144625,54.637122 82.662885,53.897168 81.797678,53.650517 z M 759.05987,152.37657 c -0.0385,-14.06491 -10.83339,-24.78461 -24.94069,-24.76341 -13.58317,0.0231 -24.65358,10.87193 -24.56686,24.46858 0.0964,15.07079 12.47131,25.49759 25.25093,25.22203 13.73347,-0.29482 24.29516,-10.90276 24.25662,-24.9272 z"
   id="path7"
   inkscape:connector-curvature="0"
   style="fill:none" /><path
   clip-rule="evenodd"
   d="m 884.74992,400.08196 c 3.91752,-8.4613 7.81384,-16.92838 11.75641,-25.37618 6.09498,-13.05518 12.18611,-26.11614 18.37167,-39.12893 1.04441,-2.19674 1.04827,-4.05047 0.10983,-6.31851 -14.29614,-34.53119 -28.50171,-69.09706 -42.72849,-103.65715 -4.45706,-10.83147 -8.91413,-21.66486 -13.3712,-32.49632 -1.01551,-2.46844 -0.95577,-2.58791 1.6938,-2.58984 11.48278,-0.0116 22.96748,0.0405 34.45219,-0.0482 1.9655,-0.0135 2.86732,0.75537 3.57837,2.47615 12.38074,29.9874 24.80965,59.95169 37.23279,89.91983 0.37961,0.91916 0.80547,1.81712 1.31033,2.95596 1.44523,-1.59167 2.00212,-3.42036 2.77098,-5.09875 9.76778,-21.28909 19.5028,-42.5936 29.2513,-63.89233 3.68821,-8.05856 7.43038,-16.09014 11.04151,-24.18147 0.70719,-1.58781 1.60323,-2.17168 3.31245,-2.16398 11.55985,0.0559 23.12164,0.0212 34.68344,0.0366 2.6033,0.002 2.7671,0.28904 1.6957,2.61874 -14.327,31.15322 -28.6578,62.30066 -42.97899,93.45581 -15.73559,34.23443 -31.46732,68.4708 -47.18556,102.71487 -1.63792,3.56873 -3.17564,7.18372 -4.76153,10.77558 -13.41167,-0.002 -26.82333,-0.002 -40.235,-0.002 z"
   id="path9"
   inkscape:connector-curvature="0"
   style="fill-rule:evenodd;fill:#ffffff;fill-opacity:1" /><path
   clip-rule="evenodd"
   d="m 258.56576,0.04431615 c 0.0328,1.00009415 0.0925,2.00211515 0.0925,3.00220925 0.004,36.7645386 0.004,73.5310036 0.002,110.2955446 0,3.71711 -0.004,3.72289 -3.67472,3.72482 -9.86606,0.002 -19.73211,-0.0405 -29.59624,0.0347 -2.10231,0.0154 -3.01762,-0.50679 -3.01377,-2.83263 0.0578,-37.535326 0.0424,-75.07065 0.0462,-112.6079014 0,-0.5376228 0.0443,-1.07717264 0.0694,-1.61479548 12.02618,-0.001927 24.05043,-0.001927 36.07469,-0.001927 z"
   id="path11"
   inkscape:connector-curvature="0"
   style="fill-rule:evenodd;fill:#ffffff;fill-opacity:1" /><path
   clip-rule="evenodd"
   d="m 0.04432016,212.7811 c 4.38962304,-0.0231 8.77924614,-0.0636 13.16886884,-0.0655 33.353813,-0.006 66.707626,-0.002 100.061441,-0.002 3.75372,0 3.7595,0.006 3.7595,3.66894 0.002,9.85835 -0.0405,19.71862 0.0328,29.57889 0.0154,2.12352 -0.58194,3.02726 -2.87117,3.02341 -37.591209,-0.0501 -75.180488,-0.0385 -112.7697669,-0.0405 -0.46054434,-0.002 -0.9230156,-0.0578 -1.38163294,-0.0906 0,-12.02426 0,-24.04851 0,-36.07276 z"
   id="path13"
   inkscape:connector-curvature="0"
   style="fill-rule:evenodd;fill:#ffffff;fill-opacity:1" /><path
   clip-rule="evenodd"
   d="m 245.26778,349.29876 c -18.85534,0.13103 -37.07092,-3.04846 -53.80853,-11.98186 -30.08954,-16.06124 -48.53058,-40.95376 -54.56968,-74.62937 -3.43385,-19.14439 -2.84998,-38.23867 2.93862,-56.92251 7.90826,-25.52841 23.89435,-44.71133 46.75584,-58.28101 15.07078,-8.94497 31.29582,-14.38286 48.82926,-15.76449 32.34408,-2.54745 61.01923,6.6461 86.24896,26.885 4.87715,3.91366 9.32073,8.28209 13.46755,12.96653 0.98468,1.11186 1.01937,1.8576 -0.0674,2.88274 -8.46323,7.97763 -16.90718,15.97838 -25.32223,24.00804 -1.28529,1.22555 -2.01368,0.39117 -2.84998,-0.47018 -5.87917,-6.04874 -12.32486,-11.4057 -19.50858,-15.84157 -11.4847,-7.08929 -23.90013,-11.21878 -37.44283,-12.00883 -15.85698,-0.92687 -30.71773,2.1081 -43.99065,11.05306 -16.56803,11.16868 -27.36481,26.4206 -30.28031,46.39743 -3.05423,20.92682 0.39888,40.59149 13.91461,57.58153 10.69079,13.43864 24.91371,21.1754 41.65517,24.14292 25.07943,4.44551 47.33201,-1.75931 66.54769,-18.56436 3.12939,-2.73822 6.23565,-5.50534 9.24557,-8.37459 1.20242,-1.14654 1.96743,-1.0078 3.03689,0.11369 7.91404,8.31292 15.87048,16.58731 23.80957,24.8771 0.97118,1.01166 1.62057,1.88265 0.21774,3.25079 -11.20144,10.92203 -23.26616,20.70522 -37.30794,27.76177 -12.34028,6.20096 -25.55346,9.30916 -39.28308,10.47497 -4.08324,0.35071 -8.15298,0.38154 -12.23622,0.4432 z"
   id="path15"
   inkscape:connector-curvature="0"
   style="fill-rule:evenodd;fill:#ffffff;fill-opacity:1" /><path
   clip-rule="evenodd"
   d="m 548.98037,206.15812 c 0,-3.31437 -0.025,-6.58636 0.006,-9.85834 0.0578,-6.70198 -0.77079,-5.74428 5.75199,-5.77704 9.55773,-0.0482 19.11547,-0.0135 28.67129,-0.0135 4.43972,0 4.44165,0 4.44165,4.33567 0,42.00588 0,84.00983 0,126.01379 0,6.86191 -0.0559,13.71998 0.0328,20.57997 0.027,2.09461 -0.68215,2.82107 -2.80952,2.80373 -11.09738,-0.0809 -22.19669,-0.079 -33.29407,-0.002 -2.09269,0.0154 -2.90779,-0.64746 -2.83071,-2.77868 0.12332,-3.3876 0.0405,-6.78291 0.027,-10.17244 -0.002,-0.73996 -0.0752,-1.47991 -0.13488,-2.59369 -3.5514,2.65921 -6.53434,5.41091 -9.85257,7.7329 -10.53278,7.36678 -22.17357,11.23998 -35.03798,11.46736 -29.24938,0.52028 -49.89294,-13.83752 -64.67082,-37.84171 -7.4824,-12.15336 -10.36899,-25.72304 -10.64648,-39.94596 -0.26206,-13.4213 1.21014,-26.55933 6.83494,-38.82638 11.556,-25.20469 30.40363,-41.30254 58.64136,-44.23345 18.77826,-1.94816 35.69315,3.36255 50.21282,15.69511 1.29106,1.09645 2.56671,2.21023 3.8597,3.30475 0.0906,0.0771 0.27749,0.0424 0.79777,0.10983 z m 1.90191,56.13823 c 0.0771,-7.42844 -3.1159,-18.40443 -11.56756,-27.33397 -9.43249,-9.96819 -21.24478,-13.74696 -34.78169,-12.49058 -16.05547,1.48761 -26.91198,10.23796 -33.41548,24.55529 -3.80575,8.37844 -4.49368,17.34075 -3.52056,26.48612 1.34116,12.6062 6.80218,22.95784 16.73182,30.7948 8.44974,6.66923 18.20017,8.89872 28.86977,7.95258 11.65813,-1.0367 20.96729,-6.21253 28.21267,-15.26348 7.02764,-8.77731 9.40359,-19.04225 9.47103,-34.70076 z"
   id="path17"
   inkscape:connector-curvature="0"
   style="fill-rule:evenodd;fill:#ffffff;fill-opacity:1" /><path
   clip-rule="evenodd"
   d="m 793.13051,283.74346 c -0.002,-19.03647 0.002,-38.07487 -0.002,-57.11328 -0.002,-3.11204 -0.0135,-3.12168 -3.04653,-3.12746 -4.77694,-0.01 -9.55774,-0.052 -14.33468,0.0193 -1.76317,0.027 -2.49542,-0.58772 -2.48578,-2.40292 0.0482,-9.40358 0.0482,-18.80717 0,-28.20882 -0.01,-1.79786 0.67636,-2.44917 2.46073,-2.42219 4.85595,0.0752 9.71575,-0.0752 14.56785,0.0655 2.24876,0.0655 2.89044,-0.71875 2.88081,-2.91549 -0.0752,-16.64897 -0.0405,-33.29601 -0.0405,-49.94497 0.002,-3.59572 0.008,-3.6015 3.53983,-3.60342 10.63684,-0.002 21.27175,-0.004 31.91052,0 3.40109,0.002 3.4088,0.008 3.41072,3.51863 0.004,16.49481 0,32.98962 0.002,49.4825 0.002,3.41265 0.01,3.41458 3.49166,3.41843 5.54966,0.004 11.09931,0.054 16.64704,-0.0251 1.86337,-0.027 2.6226,0.57424 2.61103,2.51276 -0.0617,9.32458 -0.0597,18.65108 -0.002,27.97759 0.0135,1.89806 -0.67829,2.5802 -2.57635,2.55322 -5.70189,-0.0809 -11.4057,-0.0347 -17.10951,-0.025 -3.00029,0.006 -3.06002,0.0617 -3.06002,3.15637 -0.004,37.53532 -0.002,75.07065 -0.002,112.60597 0,0.77079 -0.0597,1.54735 0.008,2.31043 0.17921,2.00982 -0.69949,2.67655 -2.69582,2.66306 -11.09931,-0.0694 -22.19862,-0.0809 -33.29601,0.008 -2.22179,0.0173 -2.92127,-0.72068 -2.91357,-2.92706 0.0636,-19.19063 0.0347,-38.38318 0.0347,-57.57574 z"
   id="path19"
   inkscape:connector-curvature="0"
   style="fill-rule:evenodd;fill:#ffffff;fill-opacity:1" /><path
   clip-rule="evenodd"
   d="m 362.57747,237.51175 c 0,-34.13231 0,-68.26654 0,-102.39885 0,-3.79419 0.004,-3.79804 3.80768,-3.79804 10.71006,-0.002 21.42013,0.0597 32.13019,-0.0463 2.36246,-0.0231 3.01763,0.77079 3.0157,3.06387 -0.0482,68.96025 -0.0482,137.9205 0,206.87881 0.002,2.32392 -0.7149,3.06195 -3.0446,3.04075 -10.93937,-0.10405 -21.88067,-0.0405 -32.8239,-0.0482 -3.01763,-0.002 -3.08507,-0.0674 -3.08507,-3.13517 -0.002,-34.51963 0,-69.03733 0,-103.55695 z"
   id="path21"
   inkscape:connector-curvature="0"
   style="fill-rule:evenodd;fill:#ffffff;fill-opacity:1" /><path
   clip-rule="evenodd"
   d="m 650.81269,208.50517 c 1.16581,-0.73225 1.38741,-1.67454 1.84988,-2.44147 7.6539,-12.65051 18.45839,-19.79569 33.65635,-19.23302 4.29713,0.15994 8.31485,1.45678 12.24971,3.10819 1.38548,0.58194 1.57625,1.39705 1.09066,2.72858 -3.55911,9.77356 -7.09123,19.55676 -10.58289,29.35537 -0.57231,1.60516 -1.37585,1.9655 -2.95018,1.27179 -3.32016,-1.45678 -6.69427,-2.85576 -10.44992,-2.39136 -5.48992,0.68214 -9.1762,3.98689 -12.1206,8.39385 -4.07553,6.09692 -5.35118,13.06867 -6.22024,20.12521 -1.1504,9.33421 -1.67839,18.72623 -1.38356,28.12403 0.6648,21.03281 0.11369,42.06755 0.30446,63.10035 0.0328,3.5514 -0.004,3.55718 -3.6015,3.55718 -10.63684,0.002 -21.26982,0.004 -31.90666,0 -3.27584,-0.002 -3.30089,-0.027 -3.30089,-3.39724 -0.004,-49.01424 -0.004,-98.02656 0,-147.04081 0,-3.19298 0.0636,-3.25271 3.20454,-3.25271 9.09527,-0.006 18.18861,0.0559 27.28195,-0.0424 2.21023,-0.0231 2.97523,0.68408 2.91743,2.90972 -0.12911,4.92146 -0.0385,9.85256 -0.0385,15.12474 z"
   id="path23"
   inkscape:connector-curvature="0"
   style="fill-rule:evenodd;fill:#ffffff;fill-opacity:1" /><path
   clip-rule="evenodd"
   d="m 753.8879,267.59936 c 0,24.34911 0,48.69822 -0.002,73.04926 0,3.54947 -0.008,3.55525 -3.59957,3.55525 -10.78907,0.002 -21.57621,-0.0578 -32.36335,0.0462 -2.34704,0.0231 -3.02534,-0.73996 -3.02148,-3.05039 0.0539,-49.2397 0.0539,-98.47747 -0.002,-147.71717 -0.004,-2.34897 0.73996,-3.03882 3.04846,-3.01763 10.9413,0.1002 21.8826,0.0405 32.82582,0.0462 3.03112,0.002 3.11012,0.0771 3.11012,3.11205 0.006,24.65935 0.004,49.31677 0.004,73.97613 z"
   id="path25"
   inkscape:connector-curvature="0"
   style="fill-rule:evenodd;fill:#ffffff;fill-opacity:1" /><path
   clip-rule="evenodd"
   d="m 81.797678,53.650517 c 0.865207,0.244724 1.348874,0.986605 1.936598,1.572402 15.804956,15.787613 31.598354,31.58486 47.395594,47.380181 10.45956,10.45763 20.88443,20.94995 31.40758,31.34206 1.61865,1.59746 1.5146,2.53011 -0.0462,4.06204 -7.31476,7.17216 -14.56592,14.41176 -21.73037,21.73615 -1.58975,1.62443 -2.52433,1.50111 -4.06204,-0.0424 C 110.54027,133.46342 84.345124,107.2625 58.10566,81.105894 56.496646,79.50266 56.30973,78.500639 58.022801,76.824181 65.401145,69.605775 72.652309,62.258263 79.959355,54.96856 c 0.529915,-0.527988 0.955774,-1.237111 1.838323,-1.318043 z"
   id="path27"
   inkscape:connector-curvature="0"
   style="fill-rule:evenodd;fill:#ffffff;fill-opacity:1" /><path
   clip-rule="evenodd"
   d="m 759.05987,152.37657 c 0.0385,14.02444 -10.52315,24.63238 -24.25662,24.92913 -12.78155,0.27555 -25.15651,-10.15125 -25.25093,-25.22203 -0.0867,-13.59858 10.98369,-24.44739 24.56686,-24.46858 14.1073,-0.0231 24.90407,10.69657 24.94069,24.76148 z"
   id="path29"
   inkscape:connector-curvature="0"
   style="fill-rule:evenodd;fill:#ffffff;fill-opacity:1" /><path
   clip-rule="evenodd"
   d="m 550.88228,262.29635 c -0.0674,15.65851 -2.44532,25.92345 -9.47103,34.70269 -7.24538,9.05095 -16.55454,14.22677 -28.21267,15.26348 -10.6696,0.94614 -20.42003,-1.28336 -28.86977,-7.95258 -9.92964,-7.83696 -15.39066,-18.18861 -16.73182,-30.7948 -0.97312,-9.14537 -0.28519,-18.10768 3.52056,-26.48612 6.5035,-14.31926 17.36001,-23.06768 33.41548,-24.5553 13.53499,-1.25445 25.3492,2.52433 34.78169,12.49058 8.45166,8.92762 11.64464,19.90168 11.56756,27.33205 z"
   id="path31"
   inkscape:connector-curvature="0"
   style="fill:none" />
</svg>