<?xml version="1.0" encoding="UTF-8" standalone="no"?>
<!-- Generator: Adobe Illustrator 16.0.0, SVG Export Plug-In . SVG Version: 6.00 Build 0)  -->

<svg
   xmlns:dc="http://purl.org/dc/elements/1.1/"
   xmlns:cc="http://creativecommons.org/ns#"
   xmlns:rdf="http://www.w3.org/1999/02/22-rdf-syntax-ns#"
   xmlns:svg="http://www.w3.org/2000/svg"
   xmlns="http://www.w3.org/2000/svg"
   xmlns:sodipodi="http://sodipodi.sourceforge.net/DTD/sodipodi-0.dtd"
   xmlns:inkscape="http://www.inkscape.org/namespaces/inkscape"
   version="1.1"
   id="ClarityLogo_xA0_Image_1_"
   x="0px"
   y="0px"
   width="1024"
   height="400"
   viewBox="0 0 1024 400.00001"
   enable-background="new 0 0 695.28 271.68"
   xml:space="preserve"
   inkscape:version="0.48.4 r9939"
   sodipodi:docname="ClarityLogo_padded_blue.svg"><metadata
   id="metadata37"><rdf:RDF><cc:Work
       rdf:about=""><dc:format>image/svg+xml</dc:format><dc:type
         rdf:resource="http://purl.org/dc/dcmitype/StillImage" /><dc:title></dc:title></cc:Work></rdf:RDF></metadata><defs
   id="defs35">
	

		
		
		
		
		
		
		
		
		
		
		
		
		
	</defs><sodipodi:namedview
   pagecolor="#ffffff"
   bordercolor="#666666"
   borderopacity="1"
   objecttolerance="10"
   gridtolerance="10"
   guidetolerance="10"
   inkscape:pageopacity="0"
   inkscape:pageshadow="2"
   inkscape:window-width="1250"
   inkscape:window-height="807"
   id="namedview33"
   showgrid="false"
   inkscape:zoom="0.8226901"
   inkscape:cx="476.54633"
   inkscape:cy="146.92086"
   inkscape:window-x="0"
   inkscape:window-y="0"
   inkscape:window-maximized="0"
   inkscape:current-layer="ClarityLogo_xA0_Image_1_" />
<path
   clip-rule="evenodd"
   d="m 511.95215,0.02321947 c 170.1237,0 340.24445,0.0014722 510.36665,-0.04416465 1.5237,0 1.6694,0.42250846 1.6694,1.76511368 -0.035,132.1995115 -0.035,264.3990215 0.012,396.5970615 0,1.52368 -0.4225,1.66942 -1.7651,1.66942 -340.18555,-0.0339 -680.37111,-0.0339 -1020.5551879,0.0103 -1.52368028,0 -1.66942361,-0.42104 -1.66795146,-1.76365 C 0.04709236,266.05633 0.04856452,133.85829 -1.65961e-5,1.6587836 -1.65961e-5,0.13510324 0.42249186,-0.0106401 1.7650971,-0.00916794 171.82696,0.02469162 341.89029,0.02321947 511.95215,0.02321947 z M 309.43811,313.83659 c 3.28438,0.12072 7.68318,-0.19432 12.06578,-0.74344 9.90319,-1.2425 19.39123,-3.88354 28.18441,-8.67835 9.68236,-5.28062 18.17964,-12.14675 26.07628,-19.8049 1.10559,-1.07173 1.16742,-1.7872 0.11483,-2.87512 -6.0962,-6.30377 -12.16295,-12.63698 -18.20614,-18.9908 -0.87594,-0.92009 -1.46038,-0.78466 -2.32012,0.0265 -2.30834,2.18174 -4.67409,4.30458 -7.06782,6.3921 -14.69505,12.82541 -31.72493,17.63494 -50.85411,14.09588 -17.25808,-3.1931 -30.32934,-12.40879 -38.01399,-28.49797 -4.85811,-10.17112 -5.91217,-20.97821 -4.6314,-32.05618 1.56785,-13.58063 7.91283,-24.61737 18.23706,-33.41791 11.30762,-9.63673 24.51874,-13.24056 39.19612,-12.28661 10.66135,0.69192 20.35696,4.10437 29.28705,9.84577 5.02152,3.22844 9.56606,7.04868 13.7249,11.32824 0.67572,0.69633 1.24544,1.39707 2.30687,0.37981 6.37884,-6.10208 12.79008,-12.1703 19.21751,-18.21939 0.88182,-0.82882 0.92157,-1.44124 0.0662,-2.33042 -2.28331,-2.37311 -4.47535,-4.8213 -6.96034,-7.00893 -19.82993,-17.45534 -42.84854,-25.40056 -69.24428,-23.36751 -13.33625,1.02756 -25.67291,5.19082 -37.141,11.98187 -17.53483,10.38163 -29.78611,25.07521 -35.8293,44.64751 -4.40911,14.27696 -4.84192,28.86749 -2.21265,43.4904 4.5887,25.51686 18.54768,44.44141 41.27628,56.73391 12.91227,6.98243 26.99637,9.47037 42.72782,9.35554 z m 230.81475,-15.91547 c 0,3.66861 0.0545,6.83669 -0.0236,9.99888 -0.0353,1.52957 0.51819,2.06838 2.05512,2.05071 5.53383,-0.0648 11.06914,-0.025 16.60297,-0.025 3.12097,0 6.24193,-0.0294 9.36143,0.009 1.19833,0.0162 1.75628,-0.46079 1.69298,-1.66648 -0.025,-0.46815 0.003,-0.94071 0.003,-1.4118 0,-37.09536 0,-74.19072 0,-111.28607 0,-0.52998 -0.0206,-1.05996 -0.0103,-1.58993 0.0206,-1.03493 -0.47698,-1.4751 -1.51043,-1.47216 -8.89035,0.0132 -17.78216,0.0162 -26.67251,-0.001 -1.19539,-0.001 -1.51043,0.62714 -1.50307,1.66942 0.0191,2.06102 0.0353,4.12204 -0.0118,6.18158 -0.0309,1.36763 0.22671,2.76765 -0.25763,4.29133 -1.12473,-0.95101 -2.1096,-1.77247 -3.08269,-2.60865 -11.08827,-9.5381 -24.0506,-13.64688 -38.46594,-12.18945 -21.43016,2.16554 -35.85875,14.31082 -44.72259,33.38406 -5.34687,11.50489 -6.28758,23.83419 -4.99944,36.31217 2.06691,20.02573 11.75516,35.66001 28.94257,45.86941 17.36995,10.31833 35.33613,10.24619 52.95782,-0.10894 3.35357,-1.97122 6.24489,-4.58577 9.64409,-7.40642 z m 296.69515,-32.2446 c -0.55794,-1.28225 -0.92009,-2.07869 -1.25574,-2.8869 -9.4689,-22.84196 -18.94369,-45.67802 -28.38021,-68.53176 -0.52997,-1.28224 -1.2528,-1.76658 -2.64546,-1.75775 -8.77257,0.053 -17.54661,0.0221 -26.32066,0.0294 -2.05512,0.001 -2.10812,0.0957 -1.34849,1.94031 6.46718,15.73586 12.92699,31.47614 19.40595,47.20906 7.82156,18.99816 15.63575,37.99926 23.51914,56.97239 0.69781,1.67679 0.70075,3.06797 -0.11777,4.66379 -1.42357,2.77501 -2.69699,5.6251 -4.01898,8.45164 -6.09031,13.00796 -12.17914,26.01739 -18.25914,39.03124 -0.79349,1.69593 -0.66983,1.88289 1.23219,1.88583 8.95071,0.009 17.89994,-0.0221 26.85064,0.028 1.33083,0.009 2.04482,-0.49759 2.54535,-1.67384 0.96574,-2.27596 2.01686,-4.51363 3.04884,-6.76161 10.68931,-23.26888 21.37863,-46.53776 32.07236,-69.8037 12.24392,-26.6357 24.49372,-53.26992 36.7391,-79.90415 0.83177,-1.80781 0.714,-2.03452 -1.23661,-2.03746 -8.83293,-0.0132 -17.66586,0.0206 -26.49732,-0.0339 -1.40738,-0.009 -2.06543,0.53292 -2.62632,1.78278 -2.93842,6.55256 -5.98725,13.05507 -8.97573,19.58555 -5.95045,13.00796 -11.88029,26.02475 -17.82927,39.03418 -1.88288,4.1132 -3.79079,8.21021 -5.90187,12.77684 z m -110.17165,-1.9403 c 0,14.60377 -0.001,29.20755 0.003,43.80985 0,2.34956 0.0442,2.3952 2.35398,2.39667 8.30295,0.006 16.60443,0.006 24.90739,0.001 2.36428,-0.001 2.42169,-0.0589 2.42316,-2.51885 0.006,-9.71623 0.003,-19.43245 0.003,-29.14867 0,-19.25431 -0.001,-38.50863 0,-57.76294 0,-2.7809 0.004,-2.78238 2.85303,-2.78385 4.18092,-0.003 8.36184,-0.0412 12.54276,0.0206 1.43241,0.0206 1.9933,-0.46373 1.98447,-1.93294 -0.0456,-7.12375 -0.0456,-14.25046 0,-21.37421 0.0103,-1.46185 -0.53439,-1.96091 -1.97563,-1.93736 -4.00426,0.0648 -8.00853,0.028 -12.01279,0.0191 -3.6318,-0.007 -3.3889,0.33565 -3.39037,-3.47723 -0.001,-12.30722 0.001,-24.61296 -0.001,-36.92017 -0.001,-2.70141 -0.007,-2.70435 -2.76471,-2.70582 -8.06593,-0.001 -16.13482,-0.001 -24.20075,0 -2.71613,0 -2.72054,0.004 -2.72202,2.73526 -0.001,12.71942 -0.0265,25.43736 0.0309,38.15678 0.007,1.65618 -0.44459,2.29804 -2.18321,2.24504 -3.70688,-0.11041 -7.41966,0.004 -11.12802,-0.0501 -1.34702,-0.0206 -1.90644,0.44312 -1.89908,1.83284 0.0368,7.18264 0.0368,14.36676 0,21.55087 -0.007,1.37205 0.51967,1.87406 1.88142,1.85345 3.64947,-0.056 7.30189,-0.0221 10.95136,-0.0147 2.33336,0.004 2.34367,0.0118 2.34514,2.37165 0,14.54489 -0.001,29.08978 -0.001,43.6332 z M 397.84543,228.42805 c 0,26.37219 -0.001,52.7429 0.001,79.11361 0,2.34956 0.05,2.39961 2.34956,2.40108 8.3589,0.006 16.71779,-0.0398 25.07669,0.0353 1.77394,0.0177 2.33483,-0.53145 2.33336,-2.31422 -0.0383,-52.68401 -0.0383,-105.36802 -0.001,-158.05203 0.001,-1.74303 -0.48581,-2.36428 -2.29803,-2.34661 -8.18224,0.0824 -16.36448,0.0353 -24.54671,0.0368 -2.91193,0 -2.91487,0.001 -2.91487,2.89426 -0.001,26.07775 -0.001,52.1555 0,78.23178 z m 220.20346,-22.36056 c 0,-3.80994 -0.0589,-7.62134 0.028,-11.42834 0.0368,-1.60612 -0.50348,-2.1567 -2.12579,-2.14198 -7.06488,0.0677 -14.13122,0.0736 -21.19315,-0.003 -1.71358,-0.0191 -2.22442,0.57562 -2.22295,2.24504 0.0339,37.68128 0.0339,75.36108 -0.001,113.04089 -0.001,1.72831 0.62419,2.20676 2.27595,2.19351 8.18371,-0.0648 16.36742,-0.0294 24.55113,-0.0294 2.85009,-0.001 2.87659,-0.004 2.85303,-2.79562 -0.14427,-16.06857 0.26057,-32.13861 -0.23113,-48.20718 -0.2164,-7.11934 0.17372,-14.23721 1.04229,-21.31092 0.66247,-5.39103 1.61937,-10.71729 4.70942,-15.3899 2.27154,-3.43454 5.12457,-6.00492 9.39088,-6.50693 2.80004,-0.32976 5.33803,0.6978 7.81567,1.80192 1.26458,0.56383 1.90644,0.30915 2.37459,-1.00843 2.61896,-7.37844 5.26148,-14.74805 7.9776,-22.09115 0.51526,-1.39266 0.10894,-1.97711 -1.14092,-2.54242 -9.51601,-4.29133 -21.18431,-2.25534 -28.73204,4.98472 -2.83537,2.7176 -5.1128,5.8209 -7.37108,9.18919 z m 78.74703,45.34237 c 0,-18.83769 0.001,-37.67686 -0.003,-56.51455 0,-2.31276 -0.0589,-2.36576 -2.38636,-2.36723 -8.36037,-0.006 -16.71779,0.0412 -25.07816,-0.0368 -1.77837,-0.0162 -2.32012,0.53586 -2.31865,2.31717 0.0427,37.61797 0.0427,75.233 0,112.85098 -0.001,1.77983 0.54028,2.33631 2.32012,2.32012 8.24112,-0.0795 16.48225,-0.0324 24.72484,-0.0353 2.73379,0 2.73968,-0.004 2.73968,-2.72643 0.003,-18.60362 0.001,-37.20577 0.001,-55.80792 z M 183.28032,87.955032 c -0.55058,0.08833 -0.87004,0.535864 -1.23661,0.902431 -5.66338,5.656019 -11.29437,11.344427 -17.00191,16.954807 -1.19686,1.17772 -1.01432,1.9138 0.0839,3.01056 20.12141,20.0743 40.2178,40.17363 60.28916,60.29799 1.08203,1.08498 1.74892,1.12914 2.84715,0.0118 5.48525,-5.58241 11.04705,-11.09122 16.58088,-16.62652 1.6547,-1.65617 1.6547,-1.66206 0.0147,-3.30204 -8.86237,-8.86532 -17.72622,-17.72769 -26.59006,-26.59154 -11.15305,-11.15304 -22.30462,-22.30462 -33.46208,-33.451773 -0.45048,-0.449008 -0.81852,-1.01726 -1.52516,-1.205695 z m 107.48351,3.761355 c 0,14.128273 0.0265,28.255073 -0.0324,42.383343 -0.007,1.75481 0.49906,2.36869 2.30098,2.35103 7.71114,-0.081 15.42229,-0.0294 23.13344,-0.0383 2.18615,-0.001 2.28478,-0.10305 2.28625,-2.2995 0.004,-28.25654 0.004,-56.511614 0,-84.768155 0,-2.208232 -0.0986,-2.314227 -2.273,-2.317172 -7.65226,-0.01031 -15.30452,-0.0074 -22.95826,-0.0015 -2.41139,0.0015 -2.45555,0.05005 -2.45555,2.483525 -0.003,14.069385 -0.001,28.137297 -0.001,42.206681 z M 165.57325,209.48731 c -14.12975,0 -28.25949,-0.001 -42.38923,0.003 -2.32601,0 -2.35398,0.0309 -2.35545,2.38342 -0.006,7.65226 -0.006,15.30599 0,22.9612 0.001,2.28478 0.0545,2.33631 2.41286,2.33631 28.2006,0.003 56.40267,0.003 84.60474,-0.001 2.27595,0 2.4055,-0.12955 2.40698,-2.39373 0.007,-7.53596 0.006,-15.07192 0.001,-22.60788 -0.001,-2.65429 -0.025,-2.67785 -2.64399,-2.67785 -14.01344,-0.004 -28.02541,-0.003 -42.03738,-0.003 z m 535.17394,-46.09023 c -0.028,-10.74673 -8.27498,-18.93927 -19.04969,-18.92161 -10.37869,0.0162 -18.83475,8.29707 -18.77292,18.68901 0.0692,11.5152 9.52485,19.4825 19.28818,19.27198 10.49352,-0.22377 18.56387,-8.32798 18.53443,-19.03938 z"
   id="path7"
   inkscape:connector-curvature="0"
   style="fill:none" /><path
   clip-rule="evenodd"
   d="m 309.43811,313.83659 c -15.73145,0.11483 -29.81555,-2.37311 -42.7293,-9.35702 -22.7286,-12.29396 -36.68757,-31.21704 -41.27627,-56.7339 -2.62927,-14.62292 -2.19646,-29.21344 2.21264,-43.4904 6.0432,-19.5723 18.29447,-34.26588 35.82931,-44.64752 11.46956,-6.78957 23.80622,-10.9543 37.141,-11.98186 26.39426,-2.03305 49.41435,5.91217 69.24427,23.36751 2.485,2.18762 4.67557,4.63582 6.96035,7.00893 0.85532,0.88918 0.8141,1.5016 -0.0662,2.33042 -6.42743,6.04909 -12.83867,12.11731 -19.21751,18.21939 -1.0629,1.01579 -1.63115,0.31651 -2.30687,-0.37982 -4.15884,-4.27955 -8.70338,-8.09832 -13.7249,-11.32823 -8.93009,-5.74287 -18.62571,-9.15386 -29.28705,-9.84577 -14.67739,-0.95396 -27.8885,2.64988 -39.19613,12.28661 -10.32569,8.80054 -16.66921,19.83728 -18.23705,33.41791 -1.2793,11.07797 -0.22671,21.88506 4.6314,32.05617 7.68465,16.09066 20.75591,25.30488 38.01398,28.49798 19.12918,3.53906 36.15907,-1.27047 50.85412,-14.09588 2.39225,-2.08752 4.75801,-4.20889 7.06782,-6.3921 0.85826,-0.81116 1.44418,-0.9466 2.32011,-0.0265 6.0432,6.35382 12.10995,12.68703 18.20614,18.9908 1.05259,1.08792 0.99076,1.80486 -0.11482,2.87512 -7.89664,7.65815 -16.39392,14.52428 -26.07628,19.8049 -8.79319,4.79481 -18.28122,7.43585 -28.18441,8.67835 -4.38113,0.55059 -8.77846,0.86563 -12.06431,0.74491 z"
   id="path9"
   inkscape:connector-curvature="0"
   style="fill-rule:evenodd;fill:#ffffff;fill-opacity:1" /><path
   clip-rule="evenodd"
   d="m 540.25286,297.92112 c -3.3992,2.82065 -6.28904,5.4352 -9.63967,7.40347 -17.62169,10.35514 -35.58787,10.42727 -52.95783,0.10894 -17.18741,-10.21087 -26.87419,-25.84515 -28.94256,-45.8694 -1.28814,-12.47799 -0.3489,-24.80728 4.99943,-36.31217 8.86385,-19.07324 23.29244,-31.21852 44.7226,-33.38406 14.41534,-1.45743 27.37766,2.65282 38.46593,12.18944 0.9731,0.83619 1.95797,1.65912 3.0827,2.60866 0.48434,-1.52368 0.22524,-2.9237 0.25762,-4.29133 0.0471,-2.05955 0.0309,-4.12056 0.0118,-6.18158 -0.009,-1.04229 0.30768,-1.67237 1.50307,-1.66942 8.89034,0.0177 17.78216,0.0147 26.6725,0.001 1.03346,-0.001 1.53104,0.43723 1.51043,1.47215 -0.0103,0.52998 0.0103,1.05995 0.0103,1.58993 0,37.09536 0,74.19072 0,111.28608 0,0.47109 -0.028,0.94365 -0.003,1.41179 0.0633,1.20423 -0.49465,1.68268 -1.69298,1.66648 -3.1195,-0.0368 -6.24047,-0.009 -9.36144,-0.009 -5.5353,0 -11.0706,-0.0398 -16.60296,0.025 -1.5384,0.0191 -2.09193,-0.52115 -2.05513,-2.05071 0.0736,-3.16072 0.0191,-6.32733 0.0191,-9.99594 z m 1.4221,-46.99118 c -0.0118,-10.17553 -2.71171,-18.03095 -8.81084,-24.45102 -7.21945,-7.59926 -16.23493,-10.49499 -26.57682,-9.53515 -12.18797,1.13209 -20.46589,7.75384 -25.45503,18.60804 -2.96197,6.44657 -3.5052,13.34803 -2.7544,20.39523 1.02609,9.63084 5.20112,17.53926 12.79008,23.52357 6.45687,5.09365 13.90745,6.79252 22.0573,6.06822 8.90654,-0.79202 16.01852,-4.75064 21.55087,-11.66683 5.36601,-6.70714 7.17823,-14.54931 7.19884,-22.94206 z"
   id="path11"
   inkscape:connector-curvature="0"
   style="fill-rule:evenodd;fill-opacity:1;fill:#ffffff" /><path
   clip-rule="evenodd"
   d="m 836.94801,265.67652 c 2.11108,-4.5681 4.01899,-8.66511 5.9004,-12.77684 5.94898,-13.00943 11.87882,-26.02622 17.82927,-39.03418 2.987,-6.53196 6.03731,-13.03446 8.97573,-19.58555 0.56089,-1.24986 1.21894,-1.79162 2.62632,-1.78278 8.83146,0.0545 17.66439,0.0206 26.49732,0.0339 1.9506,0.003 2.06838,0.23113 1.23661,2.03746 -12.24539,26.63423 -24.49519,53.26845 -36.7391,79.90415 -10.69373,23.26594 -21.38305,46.53482 -32.07237,69.8037 -1.03198,2.24651 -2.08309,4.48565 -3.04883,6.76161 -0.50053,1.17625 -1.21305,1.68267 -2.54535,1.67384 -8.95071,-0.0486 -17.89994,-0.0191 -26.85064,-0.028 -1.90202,-0.003 -2.02568,-0.1899 -1.23219,-1.88583 6.08,-13.01385 12.1703,-26.02328 18.25914,-39.03124 1.32199,-2.82654 2.59688,-5.67663 4.01898,-8.45164 0.81852,-1.59582 0.81557,-2.987 0.11777,-4.66379 -7.88192,-18.9746 -15.69759,-37.97423 -23.51915,-56.97239 -6.47748,-15.73439 -12.93876,-31.4732 -19.40594,-47.20906 -0.75963,-1.84461 -0.70516,-1.93883 1.34849,-1.94031 8.77405,-0.007 17.54809,0.0236 26.32066,-0.0294 1.39266,-0.009 2.11549,0.47551 2.64546,1.75775 9.43652,22.85374 18.91278,45.69128 28.3802,68.53176 0.33713,0.80821 0.69928,1.60465 1.25722,2.8869 z"
   id="path13"
   inkscape:connector-curvature="0"
   style="fill-rule:evenodd;fill:#ffffff;fill-opacity:1" /><path
   clip-rule="evenodd"
   d="m 726.77636,263.73622 c 0,-14.54342 0.001,-29.08831 -0.001,-43.6332 -0.001,-2.36134 -0.0118,-2.36723 -2.34515,-2.37165 -3.64947,-0.007 -7.30188,-0.0412 -10.95136,0.0147 -1.36321,0.0221 -1.88877,-0.4814 -1.88141,-1.85345 0.0368,-7.18411 0.0368,-14.36823 0,-21.55087 -0.007,-1.38972 0.55206,-1.85345 1.89908,-1.83284 3.70836,0.0559 7.42113,-0.0603 11.12802,0.0501 1.74009,0.053 2.19056,-0.58886 2.1832,-2.24504 -0.0559,-12.71942 -0.0309,-25.43736 -0.0309,-38.15678 0.001,-2.72938 0.006,-2.73379 2.72201,-2.73526 8.06594,-0.001 16.13482,-0.001 24.20076,0 2.75734,0 2.76323,0.003 2.7647,2.70582 0.003,12.30574 0,24.61295 0.001,36.92017 0.001,3.81141 -0.24144,3.4684 3.39037,3.47723 4.00426,0.009 8.00852,0.0456 12.01278,-0.0191 1.44124,-0.0236 1.98594,0.47551 1.97564,1.93736 -0.0456,7.12375 -0.0456,14.25046 0,21.37421 0.0103,1.46921 -0.55206,1.95355 -1.98447,1.93294 -4.18092,-0.0618 -8.36184,-0.0236 -12.54276,-0.0206 -2.84862,0.001 -2.85304,0.003 -2.85304,2.78385 -0.001,19.25431 0,38.50863 0,57.76294 0,9.71622 0.003,19.43244 -0.003,29.14867 -0.001,2.45997 -0.0574,2.51738 -2.42317,2.51885 -8.30295,0.004 -16.60443,0.004 -24.90739,-0.001 -2.30833,-0.001 -2.35397,-0.0471 -2.35397,-2.39667 -0.001,-14.6023 0,-29.20608 0,-43.80985 z"
   id="path15"
   inkscape:connector-curvature="0"
   style="fill-rule:evenodd;fill:#ffffff;fill-opacity:1" /><path
   clip-rule="evenodd"
   d="m 397.84543,228.42805 c 0,-26.07628 0,-52.15403 0,-78.23178 0,-2.89279 0.003,-2.89426 2.91487,-2.89426 8.18223,-0.001 16.36447,0.0456 24.54671,-0.0368 1.81222,-0.0177 2.2995,0.60358 2.29803,2.34661 -0.0368,52.68401 -0.0368,105.36802 0.001,158.05203 0.001,1.78277 -0.55942,2.33189 -2.33336,2.31422 -8.35743,-0.0765 -16.71632,-0.0309 -25.07669,-0.0353 -2.29951,-0.001 -2.34956,-0.0515 -2.34956,-2.40108 -0.003,-26.37071 -0.001,-52.74142 -0.001,-79.11361 z"
   id="path17"
   inkscape:connector-curvature="0"
   style="fill-rule:evenodd;fill:#ffffff;fill-opacity:1" /><path
   clip-rule="evenodd"
   d="m 618.04889,206.06749 c 2.25828,-3.36829 4.53571,-6.47159 7.36813,-9.18772 7.54774,-7.24006 19.21604,-9.27605 28.73205,-4.98471 1.25133,0.5653 1.65617,1.14975 1.14092,2.54241 -2.71613,7.34311 -5.35864,14.71271 -7.97761,22.09115 -0.46814,1.31758 -1.11,1.57079 -2.37458,1.00843 -2.47764,-1.10412 -5.01416,-2.13021 -7.81567,-1.80192 -4.26484,0.50201 -7.11935,3.07239 -9.39088,6.50693 -3.09153,4.67262 -4.04695,9.99887 -4.70942,15.3899 -0.86858,7.07371 -1.2587,14.19158 -1.04229,21.31092 0.4917,16.06857 0.0883,32.13861 0.23113,48.20718 0.025,2.79121 -0.003,2.79415 -2.85304,2.79563 -8.18371,0 -16.36742,-0.0353 -24.55113,0.0294 -1.65175,0.0133 -2.27742,-0.4652 -2.27595,-2.19351 0.0353,-37.67981 0.0353,-75.35961 0.001,-113.04089 -0.001,-1.66942 0.50936,-2.26417 2.22295,-2.24503 7.0634,0.0765 14.12974,0.0707 21.19314,0.003 1.62379,-0.0147 2.16407,0.53586 2.12579,2.14199 -0.0839,3.80552 -0.025,7.61692 -0.025,11.42686 z"
   id="path19"
   inkscape:connector-curvature="0"
   style="fill-rule:evenodd;fill:#ffffff;fill-opacity:1" /><path
   clip-rule="evenodd"
   d="m 696.79592,251.40986 c 0,18.60215 0.001,37.2043 -0.001,55.80792 0,2.72202 -0.006,2.72643 -2.73968,2.72643 -8.24259,0.003 -16.48372,-0.0427 -24.72484,0.0353 -1.77984,0.0162 -2.32159,-0.54029 -2.32012,-2.32012 0.0427,-37.61798 0.0427,-75.23301 0,-112.85098 -0.001,-1.77983 0.54028,-2.33336 2.31865,-2.31717 8.36037,0.078 16.71779,0.0309 25.07816,0.0368 2.32747,0.001 2.38636,0.0545 2.38636,2.36723 0.004,18.83769 0.003,37.67686 0.003,56.51455 z"
   id="path21"
   inkscape:connector-curvature="0"
   style="fill-rule:evenodd;fill:#ffffff;fill-opacity:1" /><path
   clip-rule="evenodd"
   d="m 183.28032,87.955032 c 0.70664,0.188435 1.07468,0.758159 1.52368,1.205695 11.15894,11.145683 22.31051,22.298733 33.46209,33.451773 8.86384,8.86385 17.72768,17.72622 26.59006,26.59154 1.63998,1.63998 1.63998,1.64587 -0.0147,3.30204 -5.53236,5.5353 -11.09564,11.04263 -16.58089,16.62652 -1.09822,1.11736 -1.76511,1.0732 -2.84714,-0.0118 -20.06989,-20.12583 -40.16775,-40.22369 -60.28916,-60.29799 -1.09823,-1.09676 -1.28078,-1.83284 -0.0839,-3.01056 5.70755,-5.61038 11.33854,-11.298788 17.00192,-16.954807 0.36804,-0.366567 0.6875,-0.815574 1.23808,-0.902431 z"
   id="path23"
   inkscape:connector-curvature="0"
   style="fill-rule:evenodd;fill:#ffffff;fill-opacity:1" /><path
   clip-rule="evenodd"
   d="m 290.76383,91.716387 c 0,-14.069384 -0.001,-28.138768 0.001,-42.206681 0,-2.433472 0.0456,-2.480581 2.45555,-2.483525 7.65226,-0.0059 15.30452,-0.0074 22.95826,0.0015 2.17437,0.0029 2.273,0.107468 2.273,2.317172 0.004,28.255069 0.004,56.511615 0,84.768155 0,2.19645 -0.1001,2.29803 -2.28625,2.2995 -7.71115,0.009 -15.42377,-0.0427 -23.13344,0.0383 -1.80192,0.0191 -2.30834,-0.59475 -2.30098,-2.35103 0.0589,-14.1268 0.0324,-28.25507 0.0324,-42.383343 z"
   id="path25"
   inkscape:connector-curvature="0"
   style="fill-rule:evenodd;fill:#ffffff;fill-opacity:1" /><path
   clip-rule="evenodd"
   d="m 165.57325,209.48731 c 14.01344,0 28.02541,-0.001 42.03738,0.001 2.62043,0 2.64252,0.025 2.64399,2.67785 0.003,7.53596 0.006,15.07192 -0.001,22.60788 -0.001,2.26418 -0.13103,2.39373 -2.40698,2.39373 -28.20207,0.004 -56.40267,0.004 -84.60474,0.001 -2.35839,0 -2.41139,-0.0515 -2.41286,-2.33631 -0.007,-7.65374 -0.006,-15.30747 0,-22.9612 0.001,-2.35398 0.0294,-2.38342 2.35545,-2.38342 14.12827,-0.003 28.25948,-0.001 42.38923,-0.001 z"
   id="path27"
   inkscape:connector-curvature="0"
   style="fill-rule:evenodd;fill:#ffffff;fill-opacity:1" /><path
   clip-rule="evenodd"
   d="m 700.74719,163.39708 c 0.0294,10.7114 -8.04238,18.81561 -18.5359,19.04085 -9.76334,0.21052 -19.21899,-7.75825 -19.28818,-19.27198 -0.0618,-10.39341 8.39423,-18.67281 18.77292,-18.689 10.77618,-0.0191 19.02466,8.1734 19.05116,18.92013 z"
   id="path29"
   inkscape:connector-curvature="0"
   style="fill-rule:evenodd;fill:#ffffff;fill-opacity:1" /><path
   clip-rule="evenodd"
   d="m 541.67496,250.92994 c -0.0206,8.39275 -1.83283,16.23492 -7.20031,22.94353 -5.53236,6.91619 -12.64434,10.87481 -21.55087,11.66683 -8.14985,0.7243 -15.60043,-0.97456 -22.0573,-6.06822 -7.58749,-5.98431 -11.76252,-13.8942 -12.79008,-23.52356 -0.7508,-7.04721 -0.20905,-13.95014 2.7544,-20.39524 4.98766,-10.8542 13.26559,-17.47595 25.45503,-18.60804 10.34189,-0.95984 19.35737,1.93442 26.57681,9.53515 6.10061,6.4186 8.80055,14.27402 8.81232,24.44955 z"
   id="path31"
   inkscape:connector-curvature="0"
   style="fill:none" />
</svg>