<?xml version="1.0" encoding="UTF-8" standalone="no"?>
<!-- Created with Inkscape (http://www.inkscape.org/) -->

<svg
   xmlns:dc="http://purl.org/dc/elements/1.1/"
   xmlns:cc="http://creativecommons.org/ns#"
   xmlns:rdf="http://www.w3.org/1999/02/22-rdf-syntax-ns#"
   xmlns:svg="http://www.w3.org/2000/svg"
   xmlns="http://www.w3.org/2000/svg"
   xmlns:sodipodi="http://sodipodi.sourceforge.net/DTD/sodipodi-0.dtd"
   xmlns:inkscape="http://www.inkscape.org/namespaces/inkscape"
   width="2203.949"
   height="863.88586"
   id="svg2"
   version="1.1"
   inkscape:version="0.48.4 r9939"
   sodipodi:docname="ClarityLogo_blue.svg">
  <defs
     id="defs4" />
  <sodipodi:namedview
     id="base"
     pagecolor="#ffffff"
     bordercolor="#666666"
     borderopacity="1.0"
     inkscape:pageopacity="0.0"
     inkscape:pageshadow="2"
     inkscape:zoom="0.35"
     inkscape:cx="675.07142"
     inkscape:cy="673.737"
     inkscape:document-units="px"
     inkscape:current-layer="layer1"
     showgrid="false"
     fit-margin-top="0"
     fit-margin-left="0"
     fit-margin-right="0"
     fit-margin-bottom="0"
     inkscape:window-width="989"
     inkscape:window-height="520"
     inkscape:window-x="167"
     inkscape:window-y="174"
     inkscape:window-maximized="0" />
  <metadata
     id="metadata7">
    <rdf:RDF>
      <cc:Work
         rdf:about="">
        <dc:format>image/svg+xml</dc:format>
        <dc:type
           rdf:resource="http://purl.org/dc/dcmitype/StillImage" />
        <dc:title />
      </cc:Work>
    </rdf:RDF>
  </metadata>
  <g
     inkscape:label="Layer 1"
     inkscape:groupmode="layer"
     id="layer1"
     transform="translate(300.07142,-475.27806)">
    <path
       inkscape:connector-curvature="0"
       id="path3011"
       d="m 1613.9286,1338.1479 c 0,-0.55 0.5625,-1.0059 1.25,-1.0132 1.3208,-0.014 67.7573,-141.3262 67.7527,-144.112 0,-1.1586 -100.4103,-246.31259 -123.3371,-301.13599 l -1.5729,-3.7612 40.5649,0.2612 40.5649,0.2611 42.7244,103 c 46.0668,111.05779 44.3453,107.51289 48.2931,99.44349 0.9569,-1.9561 22.2009,-48.2501 47.2088,-102.87559 25.0079,-54.6254 45.6426,-99.4926 45.8549,-99.7049 0.2122,-0.2122 18.4442,-0.2682 40.5155,-0.1244 l 40.1297,0.2614 -102.9276,224.00009 c -56.6101,123.2 -102.4958,224.1509 -101.9682,224.3354 0.5277,0.1845 0.705,0.747 0.3941,1.25 -0.8009,1.2959 -85.4472,1.2113 -85.4472,-0.085 z M 206.6707,1226.1618 c -34.46829,-2.7129 -62.12165,-10.1517 -90.3215,-24.2966 -59.063579,-29.6262 -101.502549,-83.855 -115.850439,-148.0346 -4.48825,-20.0764 -5.90352,-34.2732 -5.94969,-59.68279 -0.0775,-42.6327 6.29735,-72.7825 22.30674,-105.5 22.54514,-46.07414 56.18061,-78.76077 106.572769,-103.56637 34.90621,-17.18263 66.7942,-24.35681 108,-24.29792 40.33502,0.0577 72.84744,7.24441 108.26309,23.9312 29.62222,13.95709 61.53964,37.10436 79.13217,57.38853 l 5.39527,6.22074 -3.39527,3.24664 c -7.85929,7.51526 -47.65729,45.20928 -50.61503,47.93918 l -3.21975,2.9718 -8.32129,-7.9888 c -36.60341,-35.14076 -77.06618,-53.34225 -122.33514,-55.03043 -29.25721,-1.09106 -54.09036,3.98639 -77.90405,15.92844 -28.59141,14.33799 -57.61786,44.26859 -69.871969,72.04859 -4.03831,9.1548 -9.45763,26.7879 -11.34673,36.9193 -2.70802,14.5234 -2.42595,45.72989 0.54797,60.62299 8.15705,40.8497 27.438769,71.509 59.388329,94.4318 38.03581,27.2894 91.75902,35.9828 140.14144,22.6773 28.60237,-7.8659 48.70239,-20.0121 79.98038,-48.3315 l 9.83943,-8.9087 4.76534,4.8986 c 22.26728,22.8903 50.04084,52.3776 49.97593,53.0596 -0.0439,0.4615 -4.65643,4.9935 -10.25,10.0711 -57.45306,52.1537 -105.1147,72.2119 -175.17012,73.7197 -10.45,0.2249 -23.84104,0.028 -29.75788,-0.4378 z m 561.25787,-3.0626 c -19.1135,-2.3812 -30.8993,-5.9057 -47.49999,-14.2045 -31.38122,-15.6878 -56.48239,-41.0996 -72.84538,-73.7468 -3.99713,-7.975 -8.475,-18.325 -9.95082,-23 -9.78881,-31.0083 -11.30432,-68.9819 -4.17462,-104.6016 12.71503,-63.52369 62.24757,-114.27129 121.97081,-124.96289 13.3627,-2.3922 40.3488,-2.4614 53.1357,-0.1363 25.1082,4.5655 47.4427,15.4143 68.5874,33.3156 4.7977,4.0618 9.3621,7.3851 10.143,7.3851 2.3094,0 2.6339,-2.3509 2.6339,-19.0817 l 0,-15.9183 39,0 39,0 0,164.00009 0,164 -39,0 -39,0 0,-15.4182 c 0,-8.48 -0.2731,-16.13 -0.607,-17 -1.043,-2.7179 -3.2736,-1.7801 -10.7006,4.499 -14.4063,12.1799 -34.0026,23.8332 -48.319,28.7338 -16.3159,5.5851 -44.5242,8.3605 -62.3734,6.1367 z m 58,-74.2776 c 16.7246,-4.9682 24.6854,-9.5842 37.3757,-21.6719 13.6205,-12.9738 21.1882,-25.7741 26.1286,-44.1954 6.6391,-24.7547 5.117,-52.2458 -4.1783,-75.4649 -5.9623,-14.89369 -20.0785,-31.65069 -34.7076,-41.20069 -27.4006,-17.8873 -68.8177,-18.7661 -97.2839,-2.0641 -8.8586,5.1976 -26.07059,22.8028 -31.69889,32.4232 -5.4778,9.36309 -10.964,25.52489 -12.6843,37.36689 -1.7058,11.7418 -0.7331,35.4018 1.8568,45.164 5.1965,19.5872 11.5558,31.145 24.67329,44.8424 13.288,13.8757 24.8963,20.9357 41.182,25.0461 11.7261,2.9596 11.7687,2.9637 26.8366,2.609 11.3961,-0.2683 15.5809,-0.7993 22.5,-2.8546 z m -339,-160.67379 0,-227.99995 39.00001,0 39,0 0,227.99995 0,228.00009 -39,0 -39.00001,0 0,-228.00009 z m 551.00003,64.00009 0,-164.00009 33.5,0 33.5,0 0,19.3776 c 0,14.5521 0.3196,19.6428 1.2835,20.4428 1.8503,1.5356 2.9845,0.4337 6.6108,-6.4233 15.0578,-28.4723 46.3849,-44.9948 76.6057,-40.4033 6.7497,1.0255 19.8434,5.0163 21.3275,6.5004 0.4551,0.4551 -22.6854,65.469 -23.7472,66.7185 -0.3331,0.392 -4.6298,-0.6744 -9.5482,-2.3697 -7.5008,-2.5854 -10.0003,-3.0066 -15.5034,-2.6129 -8.7247,0.6243 -14.9225,3.5333 -21.4635,10.0743 -10.915,10.9151 -16.7881,24.0511 -20.4949,45.83989 -3.5847,21.0716 -4.0703,35.9308 -4.0703,124.5557 l 0,86.3001 -39,0 -39,0 0,-164 z m 210,0 0,-164.00009 39.5,0 39.5,0 0,164.00009 0,164 -39.5,0 -39.5,0 0,-164 z m 169,35.0714 c 0,-115.87449 -0.1591,-129.08769 -1.5714,-130.49999 -1.3208,-1.3208 -4.671,-1.5715 -21,-1.5715 l -19.4286,0 0,-33.5 0,-33.5 19.4286,0 c 16.329,0 19.6792,-0.2507 21,-1.5714 1.3933,-1.3933 1.5714,-8.3073 1.5714,-60.99998 l 0,-59.42857 39.5,0 39.5,0 0,59.42857 c 0,52.69268 0.1781,59.60668 1.5714,60.99998 1.3372,1.3372 4.9892,1.5714 24.5,1.5714 l 22.9286,0 0,33.5 0,33.5 -22.9286,0 c -19.5108,0 -23.1628,0.2343 -24.5,1.5715 -1.4123,1.4123 -1.5714,14.6255 -1.5714,130.49999 l 0,128.9286 -39.5,0 -39.5,0 0,-128.9286 z M -300.07142,973.14781 c 0,-25.3333 0.35043,-39 1,-39 0.55,0 1,0.45 1,1 0,0.6613 41.83333,1 123.5,1 l 123.500001,0 0,37 0,37.00009 -123.500001,0 c -81.66667,0 -123.5,0.3387 -123.5,1 0,0.55 -0.45,1 -1,1 -0.64957,0 -1,-13.66669 -1,-39.00009 z M 1276.1913,853.63375 c -13.1598,-2.85908 -26.5768,-13.09323 -33.0245,-25.19031 -8.1048,-15.20614 -8.4508,-34.38869 -0.8795,-48.75687 16.0613,-30.47975 57.3326,-36.68745 81.7273,-12.29276 24.3862,24.38621 17.9833,66.07375 -12.586,81.94409 -10.9567,5.6883 -22.4044,7.0839 -35.2373,4.29585 z M -88.020929,731.96339 -175.19772,644.77892 -149.256,618.8372 l 25.94172,-25.94172 87.121431,87.14239 c 47.91679,47.92831 87.12142,87.4759 87.12142,87.88354 0,0.89624 -50.24877,51.22645 -51.14356,51.22645 -0.34603,0 -39.8587,-39.23301 -87.80594,-87.18447 z m 270.949509,-131.31553 0,-123.5 37,0 37,0 0,123.5 0,123.5 -37,0 -37,0 0,-123.5 z m 17.25,-125.24875 c 10.8625,-0.16144 28.6375,-0.16144 39.5,0 10.8625,0.16144 1.975,0.29353 -19.75,0.29353 -21.725,0 -30.6125,-0.13209 -19.75,-0.29353 z"
       style="fill:#0091f6;fill-opacity:1" />
  </g>
</svg>
