<?xml version="1.0" encoding="UTF-8" standalone="no"?>
<!-- Created with Inkscape (http://www.inkscape.org/) -->

<svg
   xmlns:dc="http://purl.org/dc/elements/1.1/"
   xmlns:cc="http://creativecommons.org/ns#"
   xmlns:rdf="http://www.w3.org/1999/02/22-rdf-syntax-ns#"
   xmlns:svg="http://www.w3.org/2000/svg"
   xmlns="http://www.w3.org/2000/svg"
   version="1.1"
   width="2213.1392"
   height="865.01593"
   id="svg2">
  <defs
     id="defs4" />
  <metadata
     id="metadata7">
    <rdf:RDF>
      <cc:Work
         rdf:about="">
        <dc:format>image/svg+xml</dc:format>
        <dc:type
           rdf:resource="http://purl.org/dc/dcmitype/StillImage" />
        <dc:title></dc:title>
      </cc:Work>
    </rdf:RDF>
  </metadata>
  <g
     transform="translate(725.92484,-214.14789)"
     id="layer1">
    <g
       transform="translate(5.7142857,114.28571)"
       id="g3009">
      <path
         d="m -731.5,532.36218 0,-432.499997 1106.5,0 1106.5,0 0,432.499997 0,432.5 -1106.5,0 -1106.5,0 0,-432.5 z"
         id="path3025"
         style="fill:#fefefe" />
      <path
         d="m 1182.1125,963.29485 c -0.3567,-0.92964 12.8228,-30.29321 32.393,-72.17098 18.147,-38.832 32.9945,-71.46539 32.9945,-72.51865 0,-1.05325 -28.1549,-70.30667 -62.5665,-153.89649 -50.279,-122.13377 -62.3329,-152.26282 -61.3775,-153.41402 0.9974,-1.20185 7.892,-1.43006 42.8164,-1.41722 22.8952,0.008 42.1462,0.34592 42.7801,0.75 0.6339,0.40408 20.077,46.35282 43.207,102.10832 23.1299,55.75549 42.2988,101.61799 42.5975,101.91666 0.2986,0.29868 0.6911,0.35554 0.8722,0.12638 0.181,-0.22917 20.9047,-45.41667 46.0526,-100.41667 25.1479,-55 46.3884,-101.01732 47.2009,-102.26071 l 1.4774,-2.26072 42.7065,0.26072 c 39.3592,0.24028 42.7321,0.39461 43.0352,1.96912 0.4327,2.24809 -204.6432,448.56595 -207.2059,450.95346 -1.8505,1.72397 -4.5942,1.83813 -44.1775,1.83813 -37.3983,0 -42.2729,-0.17848 -42.8059,-1.56733 z M -223.75788,855.87573 c -34.62343,-2.72403 -64.04042,-10.66694 -92.8188,-25.0621 -68.03586,-34.03204 -111.80409,-96.87133 -122.55204,-175.95145 -2.07418,-15.26124 -2.37803,-52.97479 -0.5398,-67 7.20708,-54.98816 29.65628,-101.21276 66.30337,-136.52369 37.59366,-36.22297 89.399,-60.57631 143.86515,-67.63002 14.08701,-1.82435 46.9048,-1.52142 62.39509,0.57596 51.00742,6.90638 100.25806,29.51577 139.75796,64.15841 10.22436,8.96708 23.84695,23.52478 23.84695,25.4839 0,1.37755 -4.23489,5.62059 -30,30.05768 -25.08836,23.79523 -29.63499,27.87776 -31.04687,27.87776 -0.57262,0 -5.07242,-3.82046 -9.99958,-8.48991 -37.92123,-35.93788 -75.05589,-52.63216 -120.56574,-54.2016 -45.40261,-1.56575 -79.963,10.76658 -110.35859,39.37971 -33.62259,31.6509 -48.27251,68.12265 -46.71996,116.3118 1.0314,32.01298 8.30886,56.62397 23.53934,79.60554 19.70293,29.73015 48.67819,50.48909 83.54941,59.85788 27.78686,7.46545 62.50193,7.42746 90.60199,-0.0992 26.79963,-7.1783 46.98497,-19.50622 78.78069,-48.11426 5.65438,-5.0875 10.76168,-9.25 11.34956,-9.25 2.20605,4e-5 58.86975,59.12265 58.86975,61.42444 0,1.6619 -11.23224,12.74054 -23.14666,22.83015 -45.18428,38.26387 -85.37572,56.96813 -135.85334,63.22333 -15.39024,1.90716 -44.83673,2.67027 -59.25788,1.53567 z M 337.5,852.81256 c -37.7778,-4.70164 -70.52214,-21.7835 -97.66713,-50.95038 -14.90314,-16.01321 -30.50493,-42.63508 -37.21427,-63.5 -10.09006,-31.3784 -11.72767,-68.43819 -4.59816,-104.05836 C 211.42438,567.33555 262.06081,515.49286 325,504.29934 c 13.3012,-2.36558 38.4818,-2.42266 51.2236,-0.11611 25.6376,4.64098 49.6379,16.00667 70.5264,33.39876 l 7.75,6.45277 0,-15.88629 c 0,-11.02267 0.3674,-16.25367 1.2,-17.08629 1.7243,-1.72434 81.8757,-1.72434 83.6,0 0.9237,0.92367 1.2,39.33333 1.2,166.8 0,127.46667 -0.2763,165.87633 -1.2,166.8 -0.8939,0.89392 -11.5556,1.2 -41.8,1.2 -30.2444,0 -40.9061,-0.30608 -41.8,-1.2 -0.8293,-0.82933 -1.2,-5.95201 -1.2,-16.58403 l 0,-15.38403 -4.064,3.33403 c -16.615,13.63076 -35.9322,25.06897 -50.936,30.16059 -17.6237,5.98068 -44.2827,8.82882 -62,6.62382 z m 56.5386,-81.80434 c 14.728,-4.26003 23.4081,-9.33075 35.3346,-20.64168 17.4199,-16.52084 25.6984,-34.70302 28.3122,-62.18233 1.8223,-19.15822 -1.3351,-40.87421 -8.1178,-55.83311 -8.481,-18.70452 -26.1402,-36.09189 -44.4839,-43.79907 -19.9768,-8.39338 -48.0842,-8.9662 -68.8253,-1.40263 -10.784,3.93259 -17.5742,8.5346 -28.3478,19.21278 -20.8794,20.69429 -28.3106,41.59673 -27.1426,76.34608 0.9602,28.56433 7.7914,45.69652 25.7302,64.52967 12.592,13.2197 24.8253,20.64726 39.5018,23.98379 3.85,0.87526 7.9,1.80411 9,2.06412 1.1,0.26 8.75,0.31198 17,0.11551 11.2819,-0.26868 16.7447,-0.86186 22.0386,-2.39313 z M 52.7,844.66218 c -0.92636,-0.92636 -1.2,-53.55556 -1.2,-230.8 0,-177.24444 0.27364,-229.87364 1.2,-230.8 0.89392,-0.89392 11.55556,-1.2 41.8,-1.2 30.24444,0 40.90608,0.30608 41.8,1.2 0.92636,0.92636 1.2,53.55556 1.2,230.8 0,177.24444 -0.27364,229.87364 -1.2,230.8 -0.89392,0.89392 -11.55556,1.2 -41.8,1.2 -30.24444,0 -40.90608,-0.30608 -41.8,-1.2 z m 551,0 c -1.7451,-1.74513 -1.7451,-331.85487 0,-333.6 1.72,-1.72002 70.88,-1.72002 72.6,0 0.839,0.83897 1.2,6.30112 1.2,18.15504 l 0,16.95503 3.8471,-5.90503 c 8.8562,-13.59346 18.8418,-22.71237 32.2575,-29.45765 14.345,-7.2125 29.714,-10.02127 43.4451,-7.93985 8.7827,1.3313 23.6591,6.33425 25.5268,8.58465 0.9673,1.16555 -1.3042,8.39954 -11.6287,37.03302 -7.0569,19.57149 -13.4192,35.81034 -14.1385,36.08633 -0.7192,0.27599 -4.3455,-0.76998 -8.0585,-2.32439 -5.7734,-2.41702 -8.1262,-2.8306 -16.2508,-2.85667 -11.0532,-0.0355 -13.6221,0.99642 -21.1017,8.47601 -10.1845,10.18452 -15.3671,21.79317 -18.838,42.19649 -3.5813,21.05195 -4.0603,35.8914 -4.0603,125.79691 0,66.80009 -0.2849,87.88504 -1.2,88.80011 -0.8939,0.89392 -11.5556,1.2 -41.8,1.2 -30.2444,0 -40.9061,-0.30608 -41.8,-1.2 z m 210,0 c -1.7451,-1.74513 -1.7451,-331.85487 0,-333.6 1.7247,-1.72468 82.8753,-1.72468 84.6,0 1.7451,1.74513 1.7451,331.85487 0,333.6 -0.8944,0.8944 -11.6667,1.2 -42.3,1.2 -30.6333,0 -41.4056,-0.3056 -42.3,-1.2 z m 169,0 c -0.921,-0.92096 -1.2,-31.26667 -1.2,-130.5 l 0,-129.3 -19.8,0 c -14.0667,0 -20.1475,-0.34747 -21,-1.2 -1.72,-1.72002 -1.72,-70.87998 0,-72.6 0.8525,-0.85253 6.9333,-1.2 21,-1.2 l 19.8,0 0,-59.8 c 0,-45.17778 0.2934,-60.09342 1.2,-61 1.7247,-1.72468 82.8753,-1.72468 84.6,0 0.9066,0.90658 1.2,15.82222 1.2,61 l 0,59.8 23.3,0 c 16.7889,0 23.6353,0.33534 24.5,1.2 1.72,1.72002 1.72,70.87998 0,72.6 -0.8647,0.86466 -7.7111,1.2 -24.5,1.2 l -23.3,0 0,129.3 c 0,99.23333 -0.279,129.57904 -1.2,130.5 -0.8944,0.8944 -11.6667,1.2 -42.3,1.2 -30.6333,0 -41.4056,-0.3056 -42.3,-1.2 z M -730.25,638.36635 c -1.96263,-2.22917 -1.79355,-77.10348 0.17857,-79.0756 1.22272,-1.22272 19.2781,-1.42857 125.3,-1.42857 95.01111,0 124.15101,0.27958 125.07143,1.2 1.72291,1.72291 1.72291,77.87709 0,79.6 -0.92085,0.92085 -30.05734,1.19115 -125.25,1.16196 -105.86302,-0.0325 -124.23326,-0.24619 -125.3,-1.45779 z M 845.5,483.3021 c -25.4123,-5.47763 -44.0474,-28.66876 -43.9852,-54.73914 0.064,-27.02366 20.7927,-50.29638 47.9852,-53.87553 7.093,-0.9336 9.8242,-0.85064 16.5,0.50117 25.411,5.14561 43.4445,25.56493 45.1704,51.14652 1.7867,26.48331 -17.2607,51.51847 -43.4131,57.0604 -8.281,1.75483 -13.79,1.7317 -22.2573,-0.0934 z M -521.92281,360.51219 c -48.35755,-48.48251 -88.12401,-88.76192 -88.36993,-89.50981 -0.50506,-1.536 53.58125,-56.1402 55.60774,-56.1402 2.0073,0 178.185,176.72338 178.185,178.73689 0,2.61333 -53.00357,55.2887 -55.50682,55.16312 -1.23915,-0.0622 -35.25466,-33.44742 -89.91599,-88.25 z M -251.3,352.66218 c -0.9205,-0.9205 -1.2,-30.24289 -1.2,-125.89301 0,-112.78123 0.15111,-124.75099 1.58179,-125.3 2.06546,-0.79259 76.77096,-0.79259 78.83642,0 1.43068,0.54901 1.58179,12.51877 1.58179,125.3 0,95.65012 -0.2795,124.97251 -1.2,125.89301 -0.89188,0.89188 -11.11111,1.2 -39.8,1.2 -28.68889,0 -38.90812,-0.30812 -39.8,-1.2 z"
         id="path3023"
         style="fill:#e5e5e5" />
      <path
         d="m 1182.2328,963.60821 c -0.2647,-0.68969 14.5372,-33.39178 32.893,-72.67132 18.3558,-39.27954 33.3742,-71.82895 33.3742,-72.33201 0,-0.50306 -28.1583,-69.31462 -62.574,-152.91456 -34.4158,-83.59995 -62.328,-152.6411 -62.0273,-153.42478 0.4636,-1.20804 7.0357,-1.38519 43.1871,-1.16412 l 42.6403,0.26076 42.607,102.72999 c 23.4338,56.50149 42.8997,102.40149 43.2576,102 0.3579,-0.40149 21.217,-45.72999 46.3536,-100.72999 25.1366,-55 46.3552,-101.0125 47.1524,-102.25 l 1.4494,-2.25 42.4179,0 c 25.7289,0 42.6491,0.37399 43.0054,0.95055 0.6935,1.12198 -204.6536,448.49055 -207.1058,451.20015 -1.5778,1.74346 -4.0909,1.8493 -43.9116,1.8493 -32.9393,0 -42.344,-0.27606 -42.7192,-1.25397 z M -224.75788,854.87606 c -62.29215,-4.90276 -113.88772,-28.63198 -153.71017,-70.69256 -33.16932,-35.03353 -52.66658,-76.96603 -59.66526,-128.32132 -2.09013,-15.33707 -2.39915,-54.85997 -0.5395,-69 6.05456,-46.03632 22.75455,-85.76145 49.52851,-117.81604 37.85755,-45.32419 95.90152,-76.18312 158.6443,-84.34284 14.18339,-1.84455 48.85617,-1.5345 64.39509,0.57584 51.82499,7.03834 100.81989,29.86002 140.10491,65.26045 12.01769,10.82935 21.77198,21.73067 21.32535,23.83303 -0.45347,2.1345 -57.84752,56.48956 -59.64789,56.48956 -0.80551,0 -5.13094,-3.51986 -9.61206,-7.82191 -28.73837,-27.58999 -60.0153,-44.73527 -95.1714,-52.17075 -12.9391,-2.7366 -38.41712,-3.74824 -51.98995,-2.06432 -33.10146,4.10673 -61.16672,17.07586 -84.79841,39.18586 -33.17083,31.0349 -48.92598,69.97253 -47.28903,116.87112 1.96296,56.2386 28.5954,101.3122 74.96575,126.87446 46.79059,25.79391 111.30103,25.55313 157.21764,-0.58682 14.33393,-8.16018 27.77276,-18.31896 45.67581,-34.52759 5.3217,-4.81803 10.29726,-8.76005 11.05681,-8.76005 2.33068,0 57.9445,58.79334 57.58353,60.87568 -0.40623,2.34352 -16.79636,17.54975 -32.81615,30.44576 -39.56053,31.84645 -77.35211,48.35416 -124,54.16437 -15.22209,1.89598 -46.62924,2.67942 -61.25788,1.52807 z M 336.5,851.81353 C 292.45,846.32563 256.94917,824.82611 227.56332,785.84091 219.32168,774.90701 207.96625,752.8628 203.62115,739.36218 193.48596,707.8712 191.81329,669.31188 199.02044,633.30382 212.18337,567.53968 262.18226,516.32799 324,505.29267 c 13.4155,-2.39486 40.362,-2.45365 53.2236,-0.11612 25.7142,4.67347 48.1797,15.36124 68.9669,32.81037 4.5048,3.78139 8.4314,6.87526 8.7258,6.87526 0.2944,0 0.6587,-7.5375 0.8095,-16.75 l 0.2742,-16.75 41.5,0 41.5,0 0,166.5 0,166.5 -41.5,0 -41.5,0 -0.2748,-16.25 c -0.1511,-8.9375 -0.5085,-16.25 -0.7943,-16.25 -0.2857,0 -4.2121,3.00712 -8.7252,6.68248 -28.1338,22.91135 -53.9041,32.80496 -88.0209,33.79261 -7.8016,0.22585 -17.5598,-0.01 -21.6848,-0.52374 z m 56.6949,-79.85704 c 19.3196,-5.56041 36.426,-17.5957 47.936,-33.72556 20.0233,-28.06012 23.8602,-73.62886 8.9219,-105.96077 C 434.475,598.55397 402.684,579.5589 364.5,581.15255 c -24.6201,1.02754 -40.1141,7.82142 -57.5,25.2128 -20.4088,20.41527 -28.4528,42.97624 -27.227,76.36367 1.0078,27.45262 8.706,46.53633 26.2226,65.00632 13.3397,14.06562 26.955,21.75238 45.5044,25.69036 9.5601,2.02958 32.3256,1.22739 41.6949,-1.46921 z M 52.96658,843.6233 C 52.70303,842.92968 52.60274,739.08718 52.7437,612.86218 l 0.2563,-229.5 41.5,0 41.5,0 0,230.5 0,230.5 -41.27712,0.26112 c -32.48799,0.20551 -41.37915,-0.007 -41.7563,-1 z m 550.99952,0 c -0.2637,-0.69362 -0.364,-75.73612 -0.2228,-166.76112 l 0.2567,-165.5 36,0 36,0 0.2731,17.75 c 0.1502,9.7625 0.6103,17.75 1.0226,17.75 0.4122,0 1.5792,-1.5407 2.5933,-3.42377 3.4535,-6.41276 13.2769,-17.77617 20.0902,-23.23977 16.5573,-13.27725 37.6503,-19.25683 57.7105,-16.36015 9.5206,1.37476 22.6669,5.84925 24.1654,8.22494 0.7699,1.22043 -1.9718,9.92974 -11.3183,35.95465 -6.7838,18.88926 -12.8436,34.90437 -13.4662,35.58914 -0.8932,0.98231 -2.7033,0.58489 -8.5778,-1.88334 -17.1159,-7.19134 -30.3672,-4.00379 -41.4631,9.9738 -8.9832,11.31619 -13.5829,24.5157 -17.1325,49.1645 -1.5979,11.09535 -1.8618,23.23154 -2.3487,108 l -0.5485,95.5 -41.2771,0.26112 c -32.4878,0.20551 -41.3793,-0.007 -41.7568,-1 z m 210,-1.3e-4 c -0.2638,-0.69354 -0.364,-75.73599 -0.2228,-166.76099 l 0.2567,-165.5 42,0 42,0 0,166.5 0,166.5 -41.7772,0.26099 c -32.8879,0.20546 -41.8792,-0.007 -42.2567,-1 z m 169.0036,0 c -0.2618,-0.69354 -0.587,-59.31099 -0.7228,-130.26099 l -0.2469,-129 -20.5,-0.5 -20.5,-0.5 0,-36 0,-36 20.5,-0.5 20.5,-0.5 0.5,-60.5 0.5,-60.5 42,0 42,0 0.5,60.5 0.5,60.5 24,0.5 24,0.5 0,36 0,36 -24,0.5 -24,0.5 -0.5,130 -0.5,130 -41.7772,0.26099 c -32.8894,0.20547 -41.8784,-0.007 -42.2531,-1 z M -730.25,638.20193 c -0.9699,-0.39294 -1.25,-9.2227 -1.25,-39.40403 l 0,-38.89762 2.25,-0.54322 c 1.2375,-0.29878 57.825,-0.41985 125.75,-0.26905 l 123.5,0.27417 0,39.5 0,39.5 -124.5,0.17309 c -68.475,0.0952 -125.0625,-0.0548 -125.75,-0.33334 z M 844.5,482.29558 c -19.8404,-4.29652 -36.795,-21.38769 -40.903,-41.23262 -2.6823,-12.95739 -0.41,-28.95439 5.5196,-38.85747 18.3739,-30.68683 59.8822,-36.44124 84.918,-11.77244 10.5401,10.38561 15.2289,20.82507 16.1373,35.92913 0.9996,16.62263 -4.0758,30.16727 -15.5564,41.51467 -13.7239,13.56465 -31.0458,18.54834 -50.1155,14.41873 z M -521.01367,360.45837 C -569.68115,311.78953 -609.5,271.37978 -609.5,270.65893 c 0,-1.84323 53.18515,-54.80204 55.00682,-54.77272 1.35341,0.0218 175.6121,173.66438 177.44433,176.81698 0.54359,0.93531 -7.19691,9.35168 -25.58589,27.81992 -14.50089,14.5634 -27.15891,26.91657 -28.12893,27.45149 -1.4883,0.82073 -15.57888,-12.84303 -90.25,-87.51623 z m 269.9795,-8.83456 c -0.26418,-0.6939 -0.36456,-57.28663 -0.22308,-125.76163 l 0.25725,-124.5 39.5,0 39.5,0 0,125.5 0,125.5 -39.27692,0.26163 c -30.88692,0.20575 -39.37953,-0.008 -39.75725,-1 z"
         id="path3021"
         style="fill:#d1d1d1" />
      <path
         d="m 1182.5,963.37711 c 0,-0.81679 15.0666,-33.72587 33.4814,-73.13128 l 33.4813,-71.6462 -62.5436,-151.92606 c -34.399,-83.55933 -62.3971,-152.68776 -62.2179,-153.61873 0.2989,-1.55267 3.7156,-1.71259 41.3123,-1.93366 22.5426,-0.13256 41.5782,0.13704 42.3014,0.5991 0.7231,0.46206 20.3254,46.66709 43.5605,102.67784 23.2351,56.01076 42.671,101.97954 43.191,102.15285 0.5199,0.1733 21.8573,-45.38345 47.4164,-101.23724 25.5591,-55.85379 47.1919,-102.20466 48.0729,-103.00194 2.331,-2.10954 83.7278,-2.17742 84.5363,-0.0705 0.4759,1.24014 -202.6576,444.97077 -206.1733,450.3709 l -1.4648,2.25 -42.477,0 c -36.9008,-1e-5 -42.4769,-0.19496 -42.4769,-1.48508 z M -222.75788,854.8749 c -63.24022,-4.9706 -114.66916,-28.54699 -155.15653,-71.12788 -33.56603,-35.30165 -53.10326,-77.44776 -60.20936,-129.88484 -2.06062,-15.20566 -2.35863,-51.07236 -0.54006,-65 4.9489,-37.90166 17.29393,-72.58838 35.5246,-99.81604 38.19407,-57.04317 101.58703,-94.91503 174.63923,-104.33197 13.98263,-1.80246 44.95978,-1.50702 60.39509,0.57602 43.08264,5.81412 87.5249,23.72135 121.20403,48.83705 18.89112,14.08776 41.99405,36.63042 41.22886,40.22902 -0.45995,2.16311 -56.7894,55.50592 -58.61367,55.50592 -0.82063,0 -4.96656,-3.31951 -9.21316,-7.37669 C -90.37221,506.36478 -107.9328,494.07192 -128,484.33332 c -23.167,-11.24294 -40.01125,-15.29974 -67.13044,-16.16783 -32.25982,-1.03264 -51.76018,2.845 -76.36956,15.18607 -36.98005,18.54469 -65.20617,52.10937 -76.44084,90.8985 -8.01465,27.67161 -7.1497,69.16726 2.02777,97.28169 9.14489,28.0146 27.92106,53.65493 51.79668,70.73244 27.49677,19.66761 56.88679,28.59799 94.11639,28.59799 49.08746,0 81.03469,-13.77768 125.63147,-54.18029 4.74731,-4.30084 9.28015,-7.81971 10.07297,-7.81971 2.38018,0 57.99285,58.83612 57.08002,60.38852 -1.4734,2.50573 -20.76395,19.85385 -33.28446,29.93292 -47.07728,37.89747 -93.00766,54.5789 -154.5,56.11279 -9.35,0.23323 -21.84104,0.0436 -27.75788,-0.42151 z M 338.5,851.8105 C 299.6284,846.98343 267.67008,830.24458 240.23275,800.34091 207.29409,764.44138 191.28248,715.52695 195.30946,663.10315 199.75582,605.2198 223.70597,560.33406 266.4472,529.78166 282.7207,518.14897 304.9083,509.02879 326,505.3025 c 13.2102,-2.33385 36.6276,-2.3816 49.2891,-0.10049 26.7678,4.82246 49.5261,15.57414 70.434,33.27506 4.7977,4.06181 8.9602,7.38511 9.25,7.38511 0.2898,0 0.5269,-7.335 0.5269,-16.3 0,-11.34444 0.3648,-16.66483 1.2,-17.5 1.7236,-1.72365 79.8764,-1.72365 81.6,0 1.7451,1.74509 1.7451,329.85491 0,331.6 -0.8929,0.89293 -11.3333,1.2 -40.8,1.2 -29.4667,0 -39.9071,-0.30707 -40.8,-1.2 -0.8321,-0.83207 -1.2,-6.04444 -1.2,-17 0,-8.69 -0.2509,-15.8 -0.5576,-15.8 -0.3066,0 -3.7941,2.73638 -7.75,6.08085 -20.9224,17.68891 -41.2967,27.79283 -66.2111,32.83511 -11.7888,2.38588 -31.8902,3.34756 -42.4813,2.03236 z m 55.4639,-79.4541 c 18.0599,-5.05195 36.2209,-17.78594 47.0907,-33.01854 5.7745,-8.09217 12.1275,-21.49373 14.5124,-30.61359 3.1615,-12.08911 4.4416,-30.12528 3.1013,-43.69348 -1.4501,-14.67964 -3.3994,-22.51608 -8.1559,-32.78744 C 438.1147,605.47148 415.6236,587.51233 388,582.32733 c -11.1693,-2.0965 -34.7177,-1.585 -44,0.95573 -29.1779,7.98649 -53.0286,32.76574 -61.6779,64.07912 -1.9703,7.13303 -2.2098,10.38417 -2.2098,30 0,19.41372 0.2516,22.90502 2.1398,29.69847 9.4077,33.84737 35.455,59.54613 67.2479,66.34795 8.8967,1.90338 36.2087,1.25706 44.4639,-1.0522 z M 53.7,843.66218 c -0.92633,-0.92633 -1.2,-53.33333 -1.2,-229.8 0,-176.46667 0.27367,-228.87367 1.2,-229.8 1.72365,-1.72365 79.87635,-1.72365 81.6,0 1.74698,1.74698 1.74698,457.85302 0,459.6 -0.89293,0.89293 -11.33333,1.2 -40.8,1.2 -29.46667,0 -39.90707,-0.30707 -40.8,-1.2 z m 551,0 c -1.7451,-1.74509 -1.7451,-329.85491 0,-331.6 1.8273,-1.82732 69.1324,-1.70939 70.6538,0.1238 0.6835,0.82363 1.2021,8.09678 1.3724,19.25 l 0.2738,17.9262 2.7283,-4.64099 c 7.7776,-13.2304 21.7283,-26.77952 33.8989,-32.92321 7.2936,-3.68182 20.4224,-7.48301 28.8964,-8.36642 7.8545,-0.81883 17.7607,0.59938 28.2105,4.03873 13.533,4.45414 13.6099,0.57343 -0.8,40.36682 -6.8662,18.96122 -12.901,34.89197 -13.4107,35.40167 -0.569,0.56899 -3.3581,-0.15371 -7.2251,-1.8721 -4.7983,-2.13227 -8.3591,-2.9109 -14.9514,-3.26936 -7.7269,-0.42015 -9.2489,-0.1977 -14.2203,2.07827 -9.8277,4.49927 -19.9008,17.39672 -24.5825,31.47493 -2.8052,8.43534 -5.6708,25.75752 -6.9749,42.16155 -0.6484,8.1572 -1.0692,47.9216 -1.0692,101.05 0,66.80009 -0.2849,87.88504 -1.2,88.80011 -0.8929,0.89293 -11.3333,1.2 -40.8,1.2 -29.4667,0 -39.9071,-0.30707 -40.8,-1.2 z m 210,0 c -1.7451,-1.74509 -1.7451,-329.85491 0,-331.6 1.724,-1.724 80.876,-1.724 82.6,0 0.9236,0.92361 1.2,39.11111 1.2,165.8 0,126.68889 -0.2764,164.87639 -1.2,165.8 -0.8934,0.89343 -11.4444,1.2 -41.3,1.2 -29.8556,0 -40.4066,-0.30657 -41.3,-1.2 z m 169,0 c -0.921,-0.92096 -1.2,-31.26667 -1.2,-130.5 l 0,-129.3 -19.8,0 c -14.0667,0 -20.1475,-0.34747 -21,-1.2 -1.7191,-1.71908 -1.7191,-68.88092 0,-70.6 0.8525,-0.85253 6.9333,-1.2 21,-1.2 l 19.8,0 0,-59.8 c 0,-45.17778 0.2934,-60.09342 1.2,-61 1.724,-1.724 80.876,-1.724 82.6,0 0.9066,0.90658 1.2,15.82222 1.2,61 l 0,59.8 23.3,0 c 16.7889,0 23.6353,0.33534 24.5,1.2 1.7191,1.71908 1.7191,68.88092 0,70.6 -0.8647,0.86466 -7.7111,1.2 -24.5,1.2 l -23.3,0 0,129.3 c 0,99.23333 -0.279,129.57904 -1.2,130.5 -0.8934,0.89343 -11.4444,1.2 -41.3,1.2 -29.8556,0 -40.4066,-0.30657 -41.3,-1.2 z M -730.25,638.1999 c -0.96986,-0.39135 -1.25,-9.20199 -1.25,-39.31406 0,-34.46686 0.177,-38.8776 1.58179,-39.41667 0.86998,-0.33385 57.02998,-0.60699 124.8,-0.60699 94.50305,0 123.49786,0.27965 124.41821,1.2 1.72214,1.72214 1.72214,75.87786 0,77.6 -0.92124,0.92124 -29.90037,1.18166 -124.75,1.12105 -67.9525,-0.0434 -124.1125,-0.30592 -124.8,-0.58333 z M 848.5687,482.77381 c -23.0469,-4.52085 -39.329,-19.95767 -44.5926,-42.27752 -1.9903,-8.4398 -1.8342,-15.91392 0.5249,-25.13798 2.5155,-9.8357 5.6567,-15.24325 13.7317,-23.63925 14.0103,-14.56734 34.1681,-19.85886 53.2673,-13.98291 8.3968,2.58331 12.3364,4.70963 19.2102,10.36813 14.9193,12.28169 22.4739,33.59598 18.3991,51.91116 -2.6013,11.69228 -6.6422,19.1096 -14.88,27.31328 -12.8526,12.79925 -29.8457,18.54731 -45.6606,15.44509 z M -520.75213,360.11006 C -569.01346,311.8464 -608.5,271.68071 -608.5,270.85299 c 0,-1.95934 52.04908,-53.99081 54.00908,-53.99081 1.63618,0 176.99092,174.87734 176.99092,176.50906 0,1.30672 -53.20181,54.49094 -54.50895,54.49094 -0.54742,0 -40.48185,-39.48845 -88.74318,-87.75212 z m 270.37066,-8.60507 c -0.82487,-0.9939 -1.0584,-34.6537 -0.87245,-125.75 L -251,101.36218 l 39.5,0 39.5,0 0.25392,124.39281 c 0.18595,91.0963 -0.0476,124.7561 -0.87245,125.75 -1.66281,2.00357 -76.10013,2.00357 -77.76294,0 z"
         id="path3019"
         style="fill:#a4a4a4" />
      <path
         d="m 1182.5,964.38784 c 0,-0.27269 15.1046,-32.79002 33.5658,-72.26073 27.0831,-57.90452 33.4694,-72.34434 33.0663,-74.76493 -0.2747,-1.65 -28.4033,-70.725 -62.508,-153.5 -34.1047,-82.775 -61.6694,-150.84256 -61.255,-151.26125 0.4143,-0.41868 19.3392,-0.64368 42.0552,-0.5 l 41.3018,0.26125 42.6266,102.77718 c 29.3368,70.7343 43.0498,102.69077 43.9844,102.5 0.7469,-0.15245 22.2459,-45.91434 47.7757,-101.69309 25.5297,-55.77875 46.9159,-102.01625 47.5249,-102.75 1.5756,-1.89852 83.8782,-1.98108 83.8317,-0.0841 -0.017,0.6875 -46.5678,102.5 -103.4465,226.25 l -103.4159,225 -42.5535,0.26074 c -23.4044,0.14341 -42.5535,0.0376 -42.5535,-0.23507 z M -223.75788,853.87573 c -62.28785,-4.90056 -113.88771,-28.63164 -153.71017,-70.69223 -33.17137,-35.03568 -52.68695,-77.01084 -59.66067,-128.32132 -2.07418,-15.26124 -2.37803,-52.97479 -0.5398,-67 6.02595,-45.97644 22.74906,-85.76001 49.52422,-117.81604 37.85715,-45.32371 95.97891,-76.2221 158.6443,-84.33767 14.08701,-1.82435 46.9048,-1.52142 62.39509,0.57596 51.77521,7.01033 100.81673,29.85187 140.10491,65.25516 5.5,4.95615 12.65759,12.04273 15.90575,15.74797 l 5.90576,6.7368 -4.40576,4.25534 c -5.81553,5.61699 -47.50196,45.13852 -51.62551,48.94444 l -3.21975,2.97175 -8.32129,-7.98877 c -28.91818,-27.76261 -60.04287,-44.85045 -95.3452,-52.34567 -19.99819,-4.24593 -50.99415,-3.80547 -71.90466,1.02178 -51.45936,11.87952 -94.00102,52.63605 -108.93808,104.36683 -8.09659,28.04055 -7.09345,67.4119 2.46267,96.65476 15.15953,46.38992 52.68322,81.33641 101.38408,94.42078 27.78686,7.46545 62.50193,7.42746 90.60199,-0.0992 27.32426,-7.31882 49.31707,-20.66493 80.34043,-48.75378 l 9.84043,-8.90962 5.76527,5.89957 c 23.47624,24.02311 51.16439,53.54356 50.88783,54.25542 -0.67077,1.7266 -20.66345,19.66827 -32.83396,29.46559 -39.56605,31.85089 -77.42257,48.38455 -124,54.15644 -15.39024,1.90716 -44.83673,2.67027 -59.25788,1.53567 z M 337.5,850.81256 C 293.4605,845.33162 257.94917,823.82611 228.56332,784.84091 220.32168,773.90701 208.96625,751.8628 204.62115,738.36218 194.52963,707.00687 192.89024,669.92743 200.02044,634.30382 213.18327,568.54019 263.22674,517.2855 325,506.29934 c 13.3012,-2.36558 38.4818,-2.42266 51.2236,-0.11611 25.9799,4.70294 48.4343,15.45975 69.4995,33.29384 4.7977,4.06181 9.1746,7.38511 9.7264,7.38511 0.6217,0 1.1073,-6.56112 1.2769,-17.25 l 0.2736,-17.25 40.5,0 40.5,0 0,165.5 0,165.5 -40.5,0 -40.5,0 -0.2742,-16.75 c -0.1749,-10.68379 -0.6484,-16.75 -1.3075,-16.75 -0.5684,0 -4.27,2.73638 -8.2259,6.08085 -14.8392,12.54582 -32.6034,23.05838 -47.6924,28.22352 -17.4957,5.98901 -44.2422,8.85606 -62,6.64601 z m 56.6949,-77.84764 c 14.8709,-4.29745 25.0787,-10.16724 36.6549,-21.07751 8.536,-8.04502 14.5404,-16.37475 19.5936,-27.18171 12.7419,-27.25029 12.9987,-66.6206 0.6094,-93.43554 -12.243,-26.49852 -35.4065,-44.55408 -64.0774,-49.9474 -10.9883,-2.06702 -32.7286,-1.56231 -41.9139,0.97304 -16.692,4.60738 -26.2458,10.24979 -39.0615,23.06955 -20.6047,20.61121 -28.3952,42.7375 -27.232,77.34291 0.9561,28.44241 8.4321,47.26306 26.2276,66.02708 13.3407,14.06673 26.9631,21.75702 45.5044,25.68879 9.7475,2.06699 34.3341,1.24591 43.6949,-1.45921 z M 53.96667,842.62355 C 53.70307,841.9298 53.60273,738.53718 53.7437,612.86218 l 0.2563,-228.5 40.5,0 40.5,0 0,229.5 0,229.5 -40.27702,0.26137 c -31.68766,0.20563 -40.37924,-0.008 -40.75631,-1 z m 550.99953,0 c -0.2638,-0.69375 -0.3642,-75.28637 -0.2229,-165.76137 l 0.2567,-164.5 35,0 35,0 0.2716,19.25 c 0.1494,10.5875 0.6689,19.25 1.1545,19.25 0.4857,0 2.2315,-2.3894 3.8796,-5.30978 15.9667,-28.29129 47.6541,-45.09222 76.7329,-40.68436 8.2895,1.25654 21.0491,5.32801 23.2502,7.41892 1.0437,0.99144 -1.0786,7.77154 -11.1594,35.64975 -10.4198,28.81599 -12.7481,34.40094 -14.2888,34.27493 -1.0123,-0.0828 -4.9906,-1.3108 -8.8406,-2.72891 -7.9541,-2.92981 -17.5561,-3.40447 -23.802,-1.17661 -12.9951,4.63525 -24.0778,19.76047 -29.1516,39.78485 -5.7187,22.56975 -5.9033,26.25703 -6.4979,129.77121 l -0.5485,95.5 -40.277,0.26137 c -31.6875,0.20563 -40.3794,-0.008 -40.7568,-1 z m 210,-1.3e-4 c -0.2638,-0.69368 -0.3642,-75.28624 -0.2229,-165.76124 l 0.2567,-164.5 41,0 41,0 0,165.5 0,165.5 -40.7771,0.26124 c -32.0876,0.20557 -40.8793,-0.008 -41.2567,-1 z m 169.0036,0 c -0.2618,-0.69368 -0.5871,-59.31124 -0.7229,-130.26124 l -0.2469,-129 -20.5,-0.5 -20.5,-0.5 0,-35 0,-35 20.5,-0.5 20.5,-0.5 0.5,-60.5 0.5,-60.5 41,0 41,0 0.5,60.5 0.5,60.5 24,0.5 24,0.5 0,35 0,35 -24,0.5 -24,0.5 -0.5,130 -0.5,130 -40.7771,0.26124 c -32.0891,0.20558 -40.8785,-0.007 -41.2531,-1 z M -731.5,598.86218 l 0,-39.00775 125.25,0.25387 125.25,0.25388 0,38.5 0,38.5 -125.25,0.25388 -125.25,0.25387 0,-39.00775 z m 1577,-117.5666 c -19.8404,-4.29652 -36.795,-21.38769 -40.903,-41.23262 -4.9253,-23.79269 6.6218,-47.48746 28.403,-58.28354 20.333,-10.07828 43.8464,-6.29731 60.0346,9.65363 10.2379,10.08777 15.1324,20.69233 16.1215,34.92913 1.0716,15.4244 -4.2852,29.38986 -15.5406,40.51467 -13.5471,13.38988 -30.0414,18.33274 -48.1155,14.41873 z m -1366.49992,-122.43332 -87.99566,-87.99992 27.24787,-27.24787 27.24787,-27.24787 87.99992,87.99566 c 48.39996,48.39761 87.99992,88.4498 87.99992,89.00487 0,1.30951 -52.19921,53.49505 -53.50908,53.49505 -0.54735,0 -40.59323,-39.59996 -88.99084,-87.99992 z m 271.1783,-7.65503 C -250.19473,350.83412 -250.5,294.35385 -250.5,225.69551 l 0,-124.83333 39.00388,0 39.00387,0 -0.25387,125.25 -0.25388,125.25 -38.07162,0.26171 c -20.93939,0.14395 -38.37689,-0.0435 -38.75,-0.41666 z"
         id="path3017"
         style="fill:#6c6c6c" />
      <path
         d="m 1182.5,964.06218 c 0,-0.44 0.3914,-1.2275 0.8697,-1.75 0.4783,-0.5225 15.8414,-33.02659 34.1402,-72.23131 l 33.2705,-71.28131 -62.7409,-152.40118 c -34.5076,-83.82066 -62.4441,-152.88157 -62.0812,-153.4687 1.0208,-1.65173 80.9775,-1.47438 82.2777,0.1825 0.5396,0.6875 20.0527,47.2747 43.3625,103.5271 29.1328,70.30473 42.8054,102.19048 43.7373,102 0.7457,-0.1524 22.4552,-46.37089 48.2433,-102.70774 25.7881,-56.33686 47.4575,-102.79246 48.1542,-103.23469 0.6967,-0.44222 19.1683,-0.81094 41.0481,-0.81936 34.1936,-0.0132 39.8611,0.19239 40.3488,1.46338 0.3124,0.81419 -45.489,101.812 -101.9217,224.75 -56.369,122.79922 -102.7493,224.05881 -103.0674,225.02131 -0.5387,1.63017 -3.4906,1.75 -43.1097,1.75 -23.3923,0 -42.5314,-0.36 -42.5314,-0.8 z M -222.75788,853.8749 c -52.3477,-4.11446 -97.79866,-21.71558 -133.76515,-51.80124 -45.78638,-38.29993 -72.31718,-87.08568 -80.60074,-148.21148 -2.06062,-15.20566 -2.35863,-51.07236 -0.54006,-65 5.93642,-45.46464 22.76765,-85.96355 48.58307,-116.89945 9.29233,-11.13545 28.62081,-29.52031 40.08076,-38.124 33.84461,-25.40923 76.52945,-42.45645 120.5,-48.12456 13.98263,-1.80246 44.95978,-1.50702 60.39509,0.57602 24.74035,3.33877 50.07484,10.72744 73.78257,21.51827 25.22501,11.48144 45.40512,24.7309 65.88529,43.25765 9.58011,8.66635 21.9213,21.50713 21.93256,22.82043 0.005,0.56047 -50.21553,48.60701 -55.11762,52.73184 l -2.92058,2.45751 -7.41957,-7.04787 c -22.72782,-21.5892 -51.17504,-39.2732 -75.64374,-47.02335 -17.21416,-5.45236 -27.86994,-7.21004 -47.52444,-7.83918 -39.39347,-1.26099 -65.68714,5.92916 -95.3564,26.07572 -28.14624,19.11238 -48.82276,47.76741 -58.45329,81.00885 -8.16399,28.17945 -7.1551,69.24958 2.42098,98.55352 9.10345,27.85763 27.26165,52.90474 50.29582,69.37716 29.04766,20.77285 57.92813,29.68144 96.22333,29.68144 49.54232,0 81.86994,-13.90776 127.11463,-54.68636 4.46305,-4.0225 8.32732,-7.31364 8.58727,-7.31364 1.07478,0 55.9258,58.10966 55.62535,58.92999 -0.62786,1.71422 -21.42252,20.39304 -33.82725,30.38534 -38.18103,30.75573 -76.84896,47.466 -123,53.1542 -15.57259,1.91935 -43.05006,2.65991 -57.25788,1.54319 z M 338.5,850.8105 c -19.8866,-2.46952 -33.9078,-6.79048 -52,-16.02506 -14.3376,-7.31816 -25.84846,-15.93451 -39.42567,-29.51172 -14.66722,-14.66722 -24.21455,-27.72329 -32.45718,-44.38553 -15.05361,-30.43041 -21.03001,-62.34494 -18.30879,-97.77051 3.1788,-41.38247 15.73962,-74.48342 38.85776,-102.40005 C 259.3334,531.53408 291.1422,512.48014 326,506.3068 c 13.1722,-2.33281 36.6163,-2.38811 49.2236,-0.11611 26.4306,4.76315 49.7015,15.974 70.6371,34.02969 4.8733,4.20299 9.2608,7.6418 9.75,7.6418 0.4891,0 0.8893,-7.56 0.8893,-16.8 0,-11.73333 0.3619,-17.1619 1.2,-18 1.7229,-1.72291 77.8771,-1.72291 79.6,0 1.745,1.74504 1.745,327.85496 0,329.6 -0.8919,0.89188 -11.1111,1.2 -39.8,1.2 -28.6889,0 -38.9081,-0.30812 -39.8,-1.2 -0.8352,-0.83517 -1.2,-6.15556 -1.2,-17.5 0,-8.965 -0.4012,-16.3 -0.8914,-16.3 -0.4903,0 -4.6528,3.18746 -9.25,7.08325 -27.1277,22.98866 -54.7301,34.08537 -87.8773,35.32837 -6.8647,0.25743 -15.8563,0.0489 -19.9813,-0.4633 z m 57,-77.92032 c 10.4385,-3.01925 18.5881,-7.10557 27.7003,-13.88934 12.4412,-9.26199 21.1751,-20.09159 27.8375,-34.51677 11.9868,-25.95335 12.2289,-67.33134 0.5447,-93.10012 -3.8384,-8.46541 -11.977,-20.32099 -18.2697,-26.61377 -6.9213,-6.92122 -20.8364,-15.94369 -29.5987,-19.19158 -12.2102,-4.5259 -22.8693,-6.00437 -39.2141,-5.43921 -20.393,0.70514 -31.2724,3.97935 -46.0367,13.85498 -20.9192,13.99265 -35.1419,37.21939 -39.0015,63.69247 -1.7986,12.33646 -0.7635,39.49841 1.8828,49.40867 8.8636,33.19297 34.0977,59.4066 63.6554,66.12621 3.85,0.87526 7.9,1.80338 9,2.06248 1.1,0.25911 9.2,0.31455 18,0.12321 12.6879,-0.27589 17.5525,-0.79697 23.5,-2.51723 z m -340.8,69.772 c -0.9263,-0.9263 -1.2,-53.11111 -1.2,-228.8 0,-175.68889 0.2737,-227.8737 1.2,-228.8 1.72291,-1.72291 77.87709,-1.72291 79.6,0 0.9263,0.9263 1.2,53.11111 1.2,228.8 0,175.68889 -0.2737,227.8737 -1.2,228.8 -0.89188,0.89188 -11.11111,1.2 -39.8,1.2 -28.68889,0 -38.90812,-0.30812 -39.8,-1.2 z m 551,0 c -1.745,-1.74504 -1.745,-327.85496 0,-329.6 1.7181,-1.71809 66.8819,-1.71809 68.6,0 0.8482,0.84823 1.2,6.71111 1.2,20 0,11.65191 0.3738,18.8 0.9832,18.8 0.5407,0 2.0996,-2.20333 3.4642,-4.89628 3.7002,-7.30197 13.6078,-19.10734 21.273,-25.34793 15.8864,-12.93371 37.2154,-19.41823 55.0024,-16.72202 10.3807,1.57354 24.2727,6.61247 24.2909,8.8108 0.016,1.91921 -22.9049,66.08074 -24.2262,67.81583 -0.6487,0.85183 -2.5329,0.45731 -7.0856,-1.48361 -5.375,-2.29148 -7.6019,-2.6462 -16.7019,-2.6604 -9.6627,-0.0151 -10.8721,0.20233 -15.166,2.72654 -13.7439,8.07942 -22.5626,24.20572 -26.7737,48.96005 -3.5784,21.03495 -4.0603,35.90468 -4.0603,125.29691 0,66.4112 -0.285,87.38515 -1.2,88.30011 -0.8919,0.89188 -11.1111,1.2 -39.8,1.2 -28.6889,0 -38.9081,-0.30812 -39.8,-1.2 z m 210,0 c -1.745,-1.74504 -1.745,-327.85496 0,-329.6 1.7233,-1.72329 78.8767,-1.72329 80.6,0 0.9236,0.92355 1.2,38.88889 1.2,164.8 0,125.91111 -0.2764,163.87645 -1.2,164.8 -0.8924,0.89241 -11.2222,1.2 -40.3,1.2 -29.0778,0 -39.4076,-0.30759 -40.3,-1.2 z m 169,0 c -0.921,-0.92096 -1.2,-31.26667 -1.2,-130.5 l 0,-129.3 -19.8,0 c -14.0667,0 -20.1475,-0.34747 -21,-1.2 -0.885,-0.88499 -1.2,-9.88889 -1.2,-34.3 0,-24.41111 0.315,-33.41501 1.2,-34.3 0.8525,-0.85253 6.9333,-1.2 21,-1.2 l 19.8,0 0,-59.8 c 0,-45.17778 0.2934,-60.09342 1.2,-61 0.8924,-0.89241 11.2222,-1.2 40.3,-1.2 29.0778,0 39.4076,0.30759 40.3,1.2 0.9066,0.90658 1.2,15.82222 1.2,61 l 0,59.8 23.3,0 c 16.7889,0 23.6353,0.33534 24.5,1.2 1.7181,1.71809 1.7181,66.88191 0,68.6 -0.8647,0.86466 -7.7111,1.2 -24.5,1.2 l -23.3,0 0,129.3 c 0,99.23333 -0.279,129.57904 -1.2,130.5 -0.8924,0.89241 -11.2222,1.2 -40.3,1.2 -29.0778,0 -39.4076,-0.30759 -40.3,-1.2 z m -1716.2,-243.8 0,-39 124.3,0 c 95.34444,0 124.57954,0.27954 125.5,1.2 1.72133,1.72133 1.72133,73.87867 0,75.6 -0.92046,0.92046 -30.15556,1.2 -125.5,1.2 l -124.3,0 0,-39 z m 1578.1309,-117.541 c -10.8227,-2.34834 -18.2973,-6.52863 -26.7025,-14.93382 -13.9282,-13.92817 -19.1734,-31.25708 -14.9208,-49.29434 2.2312,-9.4633 6.001,-15.9398 14.168,-24.34038 5.7997,-5.96569 9.0641,-8.39026 15.1111,-11.22357 20.7247,-9.71047 42.2384,-5.73856 58.8401,10.86318 10.052,10.05198 14.899,20.3367 16.0095,33.96993 1.9999,24.55333 -17.3945,49.73889 -42.379,55.03334 -8.1995,1.73754 -11.8381,1.7241 -20.1264,-0.0743 z m -1366.63314,-122.46124 -87.99329,-87.99755 26.74858,-26.74858 26.74858,-26.74859 88.0023,88.00231 88.00231,88.0023 -26.7576,26.74383 -26.75759,26.74383 -87.99329,-87.99755 z m 270.6171,-8.35936 c -0.82692,-0.99638 -1.12387,-34.65834 -1.1071,-125.5 l 0.0229,-124.1384 38.96932,0 38.96932,0 0.0229,124.1384 c 0.0168,90.84166 -0.28018,124.50362 -1.1071,125.5 -0.91589,1.10361 -8.09435,1.3616 -37.88512,1.3616 -29.79077,0 -36.96923,-0.25799 -37.88514,-1.3616 z"
         id="path3015"
         style="fill:#545454" />
      <path
         d="m 1182.5,963.95625 c 0,-0.51007 0.3927,-1.0774 0.8728,-1.26074 1.2804,-0.48904 67.1272,-141.83296 67.1272,-144.09247 0,-1.05445 -27.7436,-69.26501 -61.6525,-151.57902 -33.9089,-82.31401 -61.8613,-150.67434 -62.1166,-151.91184 l -0.4641,-2.25 40.5909,0 40.5909,0 1.4025,2.75 c 0.7713,1.5125 19.9497,47.525 42.6185,102.25 22.6688,54.725 41.8932,100.175 42.7209,101 1.3377,1.33336 1.6171,1.32969 2.5152,-0.0331 0.5557,-0.84319 22.0148,-47.41819 47.6869,-103.5 l 46.6765,-101.9669 41.2155,-0.26109 c 22.6685,-0.1436 41.2154,0.0146 41.2154,0.3515 0,0.33693 -46.1762,101.02942 -102.6137,223.76109 -56.4376,122.73168 -102.7123,224.0485 -102.8327,225.1485 -0.2147,1.96078 -1.0557,2.00511 -42.8863,2.26074 -25.739,0.15729 -42.6673,-0.10722 -42.6673,-0.66667 z M -223.75788,852.87573 c -61.98982,-4.87711 -114.17684,-28.7899 -153.22268,-70.2087 -32.74403,-34.73399 -52.21755,-76.81156 -59.14816,-127.80485 -2.07418,-15.26124 -2.37803,-52.97479 -0.5398,-67 7.17511,-54.74424 28.85486,-99.40411 65.30337,-134.52369 37.37087,-36.0083 87.60835,-59.60342 141.86515,-66.63002 14.08701,-1.82435 46.9048,-1.52142 62.39509,0.57596 51.78777,7.01203 100.90756,29.89471 140.10491,65.26852 5.5,4.96349 12.42828,11.82869 15.39618,15.256 l 5.39618,6.23146 -3.89618,3.74655 c -6.22543,5.98636 -47.57534,45.1693 -51.11594,48.43718 l -3.21975,2.97175 -8.32129,-7.98877 c -28.91818,-27.76261 -60.04287,-44.85045 -95.3452,-52.34567 -12.89257,-2.7373 -40.14484,-3.77388 -54.00619,-2.05421 -33.39386,4.14291 -61.3855,17.17588 -85.35859,39.74314 -21.27427,20.0267 -34.68781,41.72045 -42.47796,68.69968 -8.09659,28.04055 -7.09345,67.4119 2.46267,96.65476 15.22909,46.6028 53.52462,82.29379 102.38408,95.42078 27.78686,7.46545 62.50193,7.42746 90.60199,-0.0992 27.32412,-7.31878 49.3171,-20.66496 80.33997,-48.75337 l 9.83998,-8.9092 5.2653,5.39915 c 23.49887,24.09626 50.66233,53.03875 50.38871,53.68883 -0.73509,1.74648 -20.06209,19.07499 -31.83059,28.53917 -39.62891,31.86944 -77.4347,48.37824 -124.00337,54.14904 -15.39024,1.90716 -44.83673,2.67027 -59.25788,1.53567 z M 337.5,849.81256 c -43.7514,-5.44508 -79.22155,-26.78968 -107.93366,-64.95038 -8.24529,-10.95867 -19.6083,-33.02489 -23.94519,-46.5 -10.09152,-31.35531 -11.73091,-68.43475 -4.60071,-104.05836 13.12843,-65.59174 62.385,-116.0501 123.97956,-127.00448 13.3012,-2.36558 38.4818,-2.42266 51.2236,-0.11611 26.0243,4.71099 48.4306,15.4561 69.5946,33.37468 5.2614,4.45461 9.3956,7.24432 10.25,6.91649 1.1649,-0.44701 1.4318,-3.72468 1.4318,-17.58084 l 0,-17.03138 40,0 40,0 0,165 0,165 -40,0 -40,0 0,-16.53138 c 0,-13.5304 -0.2636,-16.63255 -1.4522,-17.08866 -0.8689,-0.33342 -4.3838,1.92101 -8.75,5.61223 -14.9466,12.63576 -32.6693,23.13351 -47.7978,28.31218 -17.4957,5.98901 -44.2422,8.85606 -62,6.64601 z m 56.6949,-75.84764 c 15.1185,-4.369 25.1658,-10.2059 37.1783,-21.59838 17.655,-16.74377 26.6795,-36.50397 29.3122,-64.18233 3.1585,-33.206 -6.4904,-62.69603 -27.3333,-83.53891 -18.3976,-18.39754 -40.4753,-26.57415 -68.8521,-25.49978 -17.6237,0.66725 -29.1258,3.85663 -42.7788,11.86205 -9.1531,5.36692 -25.8314,22.7684 -31.4892,32.85461 -9.7672,17.41215 -13.2966,34.07572 -12.464,58.84608 0.9659,28.73494 8.4332,47.32048 26.7302,66.52967 13.93,14.62438 27.2586,22.21163 46.0018,26.1862 9.7475,2.06699 34.3341,1.24591 43.6949,-1.45921 z M 54.5,613.86218 l 0,-229 40,0 40,0 0,229 0,229 -40,0 -40,0 0,-229 z m 551,64 0,-165 34.4789,0 34.4788,0 0.2712,19.66743 c 0.1908,13.8436 0.6153,19.78195 1.4336,20.05416 0.6394,0.21271 2.5802,-2.27313 4.3129,-5.52407 15.1644,-28.45123 47.1446,-45.65103 76.5836,-41.18858 10.6228,1.61024 22.9879,6.13895 22.8007,8.35072 -0.077,0.91169 -5.4772,16.51823 -12,34.68119 -9.2059,25.63401 -12.1953,32.92124 -13.3597,32.56629 -0.825,-0.2515 -4.8667,-1.66778 -8.9815,-3.14729 -6.3297,-2.27587 -8.6391,-2.62083 -15,-2.2406 -9.2853,0.55502 -14.5001,3.04803 -21.6109,10.33136 -10.3025,10.55244 -15.8431,23.05345 -19.3473,43.65237 -3.5796,21.04177 -4.0603,35.89937 -4.0603,125.49691 l 0,87.30011 -40,0 -40,0 0,-165 z m 210,0 0,-165 40.5,0 40.5,0 0,165 0,165 -40.5,0 -40.5,0 0,-165 z m 169,35.7 c 0,-99.23333 -0.279,-129.57904 -1.2,-130.5 -0.8525,-0.85253 -6.9333,-1.2 -21,-1.2 l -19.8,0 0,-34.5 0,-34.5 19.8,0 c 14.0667,0 20.1475,-0.34747 21,-1.2 0.9066,-0.90658 1.2,-15.82222 1.2,-61 l 0,-59.8 40.5,0 40.5,0 0,59.8 c 0,45.17778 0.2934,60.09342 1.2,61 0.8647,0.86466 7.7111,1.2 24.5,1.2 l 23.3,0 0,34.5 0,34.5 -23.3,0 c -16.7889,0 -23.6353,0.33534 -24.5,1.2 -0.921,0.92096 -1.2,31.26667 -1.2,130.5 l 0,129.3 -40.5,0 -40.5,0 0,-129.3 z m -1716,-114.7 c 0,-35.34718 0.15598,-39.15412 1.58179,-38.60699 0.86998,0.33385 57.11998,0.60699 125,0.60699 l 123.41821,0 0,38 0,38 -123.41821,0 c -67.88002,0 -124.13002,0.27314 -125,0.60699 -1.42581,0.54713 -1.58179,-3.25981 -1.58179,-38.60699 z m 1577,-118.5666 c -23.8857,-5.17254 -41,-26.68446 -41,-51.53522 0,-19.7419 10.84,-37.23128 28.5,-45.98208 20.0865,-9.95318 43.8023,-6.29261 59.5249,9.18775 9.7719,9.62136 14.6568,20.37045 15.6312,34.39615 1.7654,25.41009 -15.7208,48.804 -40.3863,54.03072 -8.3013,1.75908 -13.8085,1.73502 -22.2698,-0.0973 z M -519.96954,358.32142 C -568.11129,310.174 -607.5,270.68331 -607.5,270.56434 c 0,-0.11897 11.89362,-12.10358 26.43027,-26.63247 l 26.43027,-26.41615 87.56973,87.56875 c 48.16335,48.16282 87.56973,87.95652 87.56973,88.43045 0,1.02983 -51.19916,52.34726 -52.22661,52.34726 -0.39186,0 -40.10117,-39.39334 -88.24293,-87.54076 z M -249.74229,225.86214 -250,100.8621 l 38.5,0 38.5,0 -0.25771,125.00004 -0.2577,125.00004 -37.98459,0 -37.98459,0 -0.2577,-125.00004 z"
         id="path3013"
         style="fill:#2d2d2d" />
      <path
         d="m 1182.5,963.86218 c 0,-0.55 0.5625,-1.00592 1.25,-1.01316 1.3208,-0.0139 67.7573,-141.32621 67.7527,-144.112 0,-1.1586 -100.4103,-246.31259 -123.3371,-301.13602 l -1.5729,-3.76118 40.5649,0.26118 40.5649,0.26118 42.7244,103 c 46.0668,111.05772 44.3453,107.51284 48.2931,99.44341 0.9569,-1.95613 22.2009,-48.25012 47.2088,-102.87553 25.0079,-54.62541 45.6426,-99.49261 45.8549,-99.70488 0.2122,-0.21228 18.4442,-0.26829 40.5155,-0.12448 l 40.1297,0.26148 -102.9276,224 c -56.6101,123.2 -102.4958,224.15093 -101.9682,224.33541 0.5277,0.18448 0.705,0.74698 0.3941,1.25 -0.8009,1.29587 -85.4472,1.21127 -85.4472,-0.0854 z M -224.75788,851.87606 c -34.46829,-2.71286 -62.12165,-10.15166 -90.3215,-24.29662 -59.06357,-29.62611 -101.50255,-83.85495 -115.85044,-148.03454 -4.48825,-20.0764 -5.90352,-34.27324 -5.94969,-59.68272 -0.0775,-42.63272 6.29735,-72.78254 22.30674,-105.5 22.54515,-46.07419 56.18062,-78.76082 106.57277,-103.56642 34.90621,-17.18263 66.7942,-24.35681 108,-24.29792 40.33502,0.0577 72.84744,7.24441 108.2631,23.9312 29.62222,13.95709 61.53964,37.10436 79.13217,57.38853 l 5.39527,6.22074 -3.39527,3.24664 c -7.85929,7.51526 -47.65729,45.20928 -50.61503,47.93919 l -3.21975,2.97175 -8.32129,-7.98877 c -36.60342,-35.14075 -77.06619,-53.34224 -122.33515,-55.03042 -29.25721,-1.09106 -54.09036,3.98639 -77.90405,15.92844 -28.59141,14.33798 -57.61786,44.26864 -69.87196,72.04859 -4.03831,9.1548 -9.45763,26.78786 -11.34673,36.9193 -2.70802,14.52341 -2.42595,45.72984 0.54797,60.62294 8.15705,40.8497 27.43876,71.50903 59.38832,94.43179 38.03581,27.28945 91.75902,35.98279 140.14144,22.67731 28.60237,-7.86583 48.7024,-20.01212 79.98039,-48.3315 l 9.83943,-8.90872 4.76534,4.89867 c 22.26728,22.89029 50.04084,52.37753 49.97593,53.05953 -0.0439,0.46152 -4.65643,4.99355 -10.25,10.07118 -57.45306,52.15366 -105.11471,72.21187 -175.17013,73.71961 -10.45,0.22491 -23.84104,0.0279 -29.75788,-0.43778 z M 336.5,848.81353 c -19.1135,-2.38124 -30.8993,-5.90571 -47.5,-14.20456 -31.38122,-15.68783 -56.48239,-41.09961 -72.84538,-73.74679 -3.99713,-7.975 -8.475,-18.325 -9.95082,-23 -9.78881,-31.00829 -11.30432,-68.98186 -4.17462,-104.60155 C 214.74421,569.73695 264.27675,518.98932 324,508.29772 c 13.3627,-2.39218 40.3488,-2.46142 53.1357,-0.13633 25.1082,4.56553 47.4427,15.41431 68.5874,33.31568 4.7977,4.06181 9.3621,7.38511 10.143,7.38511 2.3094,0 2.6339,-2.35092 2.6339,-19.08179 l 0,-15.91821 39,0 39,0 0,164 0,164 -39,0 -39,0 0,-15.41821 c 0,-8.48002 -0.2731,-16.13002 -0.607,-17 -1.043,-2.71793 -3.2736,-1.78004 -10.7006,4.49906 -14.4063,12.17985 -34.0026,23.83312 -48.319,28.73378 -16.3159,5.5851 -44.5242,8.36043 -62.3734,6.13672 z m 58,-74.27768 c 16.7246,-4.96818 24.6854,-9.58415 37.3757,-21.6719 13.6205,-12.97372 21.1882,-25.7741 26.1286,-44.19535 6.6391,-24.7547 5.117,-52.24579 -4.1783,-75.46489 -5.9623,-14.89367 -20.0785,-31.65072 -34.7076,-41.20068 -27.4006,-17.8873 -68.8177,-18.76608 -97.2839,-2.06414 -8.8586,5.19761 -26.0706,22.80289 -31.6989,32.42329 -5.4778,9.36303 -10.964,25.52478 -12.6843,37.36684 -1.7058,11.74177 -0.7331,35.40177 1.8568,45.16396 5.1965,19.58718 11.5558,31.14496 24.6733,44.84244 13.288,13.87568 24.8963,20.93563 41.182,25.04604 11.7261,2.95962 11.7687,2.96376 26.8366,2.609 11.3961,-0.26831 15.5809,-0.79924 22.5,-2.85461 z m -339,-160.67367 0,-228 39,0 39,0 0,228 0,228 -39,0 -39,0 0,-228 z m 551,64 0,-164 33.5,0 33.5,0 0,19.37756 c 0,14.55213 0.3196,19.64282 1.2835,20.44279 1.8503,1.53562 2.9845,0.43366 6.6108,-6.42333 15.0578,-28.47225 46.3849,-44.99473 76.6057,-40.40325 6.7497,1.0255 19.8434,5.01628 21.3275,6.50035 0.4551,0.45512 -22.6854,65.46904 -23.7472,66.71855 -0.3331,0.39197 -4.6298,-0.67439 -9.5482,-2.36968 -7.5008,-2.58541 -10.0003,-3.00668 -15.5034,-2.61293 -8.7247,0.62425 -14.9225,3.53333 -21.4635,10.07431 -10.915,10.91504 -16.7881,24.05106 -20.4949,45.83988 -3.5847,21.07156 -4.0703,35.93072 -4.0703,124.55564 l 0,86.30011 -39,0 -39,0 0,-164 z m 210,0 0,-164 39.5,0 39.5,0 0,164 0,164 -39.5,0 -39.5,0 0,-164 z m 169,35.07143 c 0,-115.87446 -0.1591,-129.08768 -1.5714,-130.5 -1.3208,-1.32073 -4.671,-1.57143 -21,-1.57143 l -19.4286,0 0,-33.5 0,-33.5 19.4286,0 c 16.329,0 19.6792,-0.2507 21,-1.57143 1.3933,-1.39331 1.5714,-8.30736 1.5714,-61 l 0,-59.42857 39.5,0 39.5,0 0,59.42857 c 0,52.69264 0.1781,59.60669 1.5714,61 1.3372,1.33719 4.9892,1.57143 24.5,1.57143 l 22.9286,0 0,33.5 0,33.5 -22.9286,0 c -19.5108,0 -23.1628,0.23424 -24.5,1.57143 -1.4123,1.41232 -1.5714,14.62554 -1.5714,130.5 l 0,128.92857 -39.5,0 -39.5,0 0,-128.92857 z m -1717,-114.07143 c 0,-25.33333 0.35043,-39 1,-39 0.55,0 1,0.45 1,1 0,0.66127 41.83333,1 123.5,1 l 123.5,0 0,37 0,37 -123.5,0 c -81.66667,0 -123.5,0.33873 -123.5,1 0,0.55 -0.45,1 -1,1 -0.64957,0 -1,-13.66667 -1,-39 z M 844.7627,479.34807 c -13.1598,-2.85908 -26.5768,-13.09323 -33.0245,-25.19031 -8.1048,-15.20614 -8.4508,-34.38869 -0.8795,-48.75687 16.0613,-30.47975 57.3326,-36.68745 81.7273,-12.29276 24.3862,24.38621 17.9833,66.07375 -12.586,81.94409 -10.9567,5.6883 -22.4044,7.0839 -35.2373,4.29585 z m -1364.21221,-121.67036 -87.17679,-87.18447 25.94172,-25.94172 25.94172,-25.94172 87.12143,87.14239 c 47.91679,47.92831 87.12143,87.4759 87.12143,87.88354 0,0.89624 -50.24878,51.22645 -51.14357,51.22645 -0.34603,0 -39.8587,-39.23301 -87.80594,-87.18447 z M -248.5,226.36218 l 0,-123.5 37,0 37,0 0,123.5 0,123.5 -37,0 -37,0 0,-123.5 z m 17.25,-125.24875 c 10.8625,-0.16144 28.6375,-0.16144 39.5,0 10.8625,0.16144 1.975,0.29353 -19.75,0.29353 -21.725,0 -30.6125,-0.13209 -19.75,-0.29353 z"
         id="path3011"
         style="fill:#000000" />
    </g>
  </g>
</svg>
