<?xml version="1.0" encoding="UTF-8" standalone="no"?>
<!-- Generator: Adobe Illustrator 16.0.0, SVG Export Plug-In . SVG Version: 6.00 Build 0)  -->

<svg
   xmlns:dc="http://purl.org/dc/elements/1.1/"
   xmlns:cc="http://creativecommons.org/ns#"
   xmlns:rdf="http://www.w3.org/1999/02/22-rdf-syntax-ns#"
   xmlns:svg="http://www.w3.org/2000/svg"
   xmlns="http://www.w3.org/2000/svg"
   xmlns:sodipodi="http://sodipodi.sourceforge.net/DTD/sodipodi-0.dtd"
   xmlns:inkscape="http://www.inkscape.org/namespaces/inkscape"
   version="1.1"
   id="ClarityLogo_xA0_Image_1_"
   x="0px"
   y="0px"
   width="1024"
   height="400"
   viewBox="0 0 1024 400.00001"
   enable-background="new 0 0 695.28 271.68"
   xml:space="preserve"
   inkscape:version="0.48.4 r9939"
   sodipodi:docname="ClarityLogo_black.svg"><metadata
   id="metadata37"><rdf:RDF><cc:Work
       rdf:about=""><dc:format>image/svg+xml</dc:format><dc:type
         rdf:resource="http://purl.org/dc/dcmitype/StillImage" /></cc:Work></rdf:RDF></metadata><defs
   id="defs35" /><sodipodi:namedview
   pagecolor="#ffffff"
   bordercolor="#666666"
   borderopacity="1"
   objecttolerance="10"
   gridtolerance="10"
   guidetolerance="10"
   inkscape:pageopacity="0"
   inkscape:pageshadow="2"
   inkscape:window-width="1250"
   inkscape:window-height="807"
   id="namedview33"
   showgrid="false"
   inkscape:zoom="0.41134505"
   inkscape:cx="57.129653"
   inkscape:cy="135.84"
   inkscape:window-x="0"
   inkscape:window-y="0"
   inkscape:window-maximized="0"
   inkscape:current-layer="ClarityLogo_xA0_Image_1_" />
<g
   id="g3"
   transform="matrix(1.4721549,0,0,1.4721549,-0.31064128,-0.33009771)">
	<g
   id="g5">
		<path
   clip-rule="evenodd"
   d="m 347.968,0.24 c 115.561,0 231.12,0.001 346.68,-0.03 1.035,0 1.134,0.287 1.134,1.199 -0.024,89.8 -0.024,179.6 0.008,269.399 0,1.035 -0.287,1.134 -1.199,1.134 -231.08,-0.023 -462.16,-0.023 -693.239,0.007 -1.035,0 -1.134,-0.286 -1.133,-1.198 C 0.243,180.95 0.244,91.151 0.211,1.351 0.211,0.316 0.498,0.217 1.41,0.218 116.929,0.241 232.449,0.24 347.968,0.24 z M 210.405,213.406 c 2.231,0.082 5.219,-0.132 8.196,-0.505 6.727,-0.844 13.172,-2.638 19.145,-5.895 6.577,-3.587 12.349,-8.251 17.713,-13.453 0.751,-0.728 0.793,-1.214 0.078,-1.953 -4.141,-4.282 -8.262,-8.584 -12.367,-12.9 -0.595,-0.625 -0.992,-0.533 -1.576,0.018 -1.568,1.482 -3.175,2.924 -4.801,4.342 -9.982,8.712 -21.55,11.979 -34.544,9.575 -11.723,-2.169 -20.602,-8.429 -25.822,-19.358 -3.3,-6.909 -4.016,-14.25 -3.146,-21.775 1.065,-9.225 5.375,-16.722 12.388,-22.7 7.681,-6.546 16.655,-8.994 26.625,-8.346 7.242,0.47 13.828,2.788 19.894,6.688 3.411,2.193 6.498,4.788 9.323,7.695 0.459,0.473 0.846,0.949 1.567,0.258 4.333,-4.145 8.688,-8.267 13.054,-12.376 0.599,-0.563 0.626,-0.979 0.045,-1.583 -1.551,-1.612 -3.04,-3.275 -4.728,-4.761 -13.47,-11.857 -29.106,-17.254 -47.036,-15.873 -9.059,0.698 -17.439,3.526 -25.229,8.139 -11.911,7.052 -20.233,17.033 -24.338,30.328 -2.995,9.698 -3.289,19.609 -1.503,29.542 3.117,17.333 12.599,30.188 28.038,38.538 8.771,4.743 18.338,6.433 29.024,6.355 z m 156.787,-10.811 c 0,2.492 0.037,4.644 -0.016,6.792 -0.024,1.039 0.352,1.405 1.396,1.393 3.759,-0.044 7.519,-0.017 11.278,-0.017 2.12,0 4.24,-0.02 6.359,0.006 0.814,0.011 1.193,-0.313 1.15,-1.132 -0.017,-0.318 0.002,-0.639 0.002,-0.959 0,-25.198 0,-50.396 0,-75.594 0,-0.36 -0.014,-0.72 -0.007,-1.08 0.014,-0.703 -0.324,-1.002 -1.026,-1 -6.039,0.009 -12.079,0.011 -18.118,-0.001 -0.812,-10e-4 -1.026,0.426 -1.021,1.134 0.013,1.4 0.024,2.8 -0.008,4.199 -0.021,0.929 0.154,1.88 -0.175,2.915 -0.764,-0.646 -1.433,-1.204 -2.094,-1.772 -7.532,-6.479 -16.337,-9.27 -26.129,-8.28 -14.557,1.471 -24.358,9.721 -30.379,22.677 -3.632,7.815 -4.271,16.19 -3.396,24.666 1.404,13.603 7.985,24.223 19.66,31.158 11.799,7.009 24.003,6.96 35.973,-0.074 2.278,-1.339 4.242,-3.115 6.551,-5.031 z M 568.73,180.692 c -0.379,-0.871 -0.625,-1.412 -0.853,-1.961 -6.432,-15.516 -12.868,-31.028 -19.278,-46.552 -0.36,-0.871 -0.851,-1.2 -1.797,-1.194 -5.959,0.036 -11.919,0.015 -17.879,0.02 -1.396,0.001 -1.432,0.065 -0.916,1.318 4.393,10.689 8.781,21.381 13.182,32.068 5.313,12.905 10.621,25.812 15.976,38.7 0.474,1.139 0.476,2.084 -0.08,3.168 -0.967,1.885 -1.832,3.821 -2.73,5.741 -4.137,8.836 -8.273,17.673 -12.403,26.513 -0.539,1.152 -0.455,1.279 0.837,1.281 6.08,0.006 12.159,-0.015 18.239,0.019 0.904,0.006 1.389,-0.338 1.729,-1.137 0.656,-1.546 1.37,-3.066 2.071,-4.593 7.261,-15.806 14.522,-31.612 21.786,-47.416 8.317,-18.093 16.638,-36.185 24.956,-54.277 0.565,-1.228 0.485,-1.382 -0.84,-1.384 -6,-0.009 -12,0.014 -17.999,-0.023 -0.956,-0.006 -1.403,0.362 -1.784,1.211 -1.996,4.451 -4.067,8.868 -6.097,13.304 -4.042,8.836 -8.07,17.678 -12.111,26.515 -1.279,2.794 -2.575,5.577 -4.009,8.679 z m -74.837,-1.318 c 0,9.92 -10e-4,19.84 0.002,29.759 0,1.596 0.03,1.627 1.599,1.628 5.64,0.004 11.279,0.004 16.919,0.001 1.606,-0.001 1.645,-0.04 1.646,-1.711 0.004,-6.6 0.002,-13.2 0.002,-19.8 0,-13.079 -0.001,-26.158 0,-39.237 0,-1.889 0.003,-1.89 1.938,-1.891 2.84,-0.002 5.68,-0.028 8.52,0.014 0.973,0.014 1.354,-0.315 1.348,-1.313 -0.031,-4.839 -0.031,-9.68 0,-14.519 0.007,-0.993 -0.363,-1.332 -1.342,-1.316 -2.72,0.044 -5.44,0.019 -8.16,0.013 -2.467,-0.005 -2.302,0.228 -2.303,-2.362 -10e-4,-8.36 10e-4,-16.719 -10e-4,-25.079 -0.001,-1.835 -0.005,-1.837 -1.878,-1.838 -5.479,-0.001 -10.96,-0.001 -16.439,0 -1.845,0 -1.848,0.003 -1.849,1.858 -10e-4,8.64 -0.018,17.279 0.021,25.919 0.005,1.125 -0.302,1.561 -1.483,1.525 -2.518,-0.075 -5.04,0.003 -7.559,-0.034 -0.915,-0.014 -1.295,0.301 -1.29,1.245 0.025,4.879 0.025,9.759 0,14.639 -0.005,0.932 0.353,1.273 1.278,1.259 2.479,-0.038 4.96,-0.015 7.439,-0.01 1.585,0.003 1.592,0.008 1.593,1.611 0,9.88 -0.001,19.76 -0.001,29.639 z M 270.458,155.39 c 0,17.914 -0.001,35.827 10e-4,53.74 0,1.596 0.034,1.63 1.596,1.631 5.678,0.004 11.356,-0.027 17.034,0.024 1.205,0.012 1.586,-0.361 1.585,-1.572 -0.026,-35.787 -0.026,-71.574 -10e-4,-107.361 10e-4,-1.184 -0.33,-1.606 -1.561,-1.594 -5.558,0.056 -11.116,0.024 -16.674,0.025 -1.978,0 -1.98,0.001 -1.98,1.966 -0.001,17.714 -0.001,35.428 0,53.141 z m 149.579,-15.189 c 0,-2.588 -0.04,-5.177 0.019,-7.763 0.025,-1.091 -0.342,-1.465 -1.444,-1.455 -4.799,0.046 -9.599,0.05 -14.396,-0.002 -1.164,-0.013 -1.511,0.391 -1.51,1.525 0.023,25.596 0.023,51.191 -0.001,76.786 -10e-4,1.174 0.424,1.499 1.546,1.49 5.559,-0.044 11.118,-0.02 16.677,-0.02 1.936,-0.001 1.954,-0.003 1.938,-1.899 -0.098,-10.915 0.177,-21.831 -0.157,-32.746 -0.147,-4.836 0.118,-9.671 0.708,-14.476 0.45,-3.662 1.1,-7.28 3.199,-10.454 1.543,-2.333 3.481,-4.079 6.379,-4.42 1.902,-0.224 3.626,0.474 5.309,1.224 0.859,0.383 1.295,0.21 1.613,-0.685 1.779,-5.012 3.574,-10.018 5.419,-15.006 0.35,-0.946 0.074,-1.343 -0.775,-1.727 -6.464,-2.915 -14.39,-1.532 -19.517,3.386 -1.926,1.846 -3.473,3.954 -5.007,6.242 z m 53.491,30.8 c 0,-12.796 10e-4,-25.593 -0.002,-38.389 0,-1.571 -0.04,-1.607 -1.621,-1.608 -5.679,-0.004 -11.356,0.028 -17.035,-0.025 -1.208,-0.011 -1.576,0.364 -1.575,1.574 0.029,25.553 0.029,51.104 0,76.657 -0.001,1.209 0.367,1.587 1.576,1.576 5.598,-0.054 11.196,-0.022 16.795,-0.024 1.857,0 1.861,-0.003 1.861,-1.852 0.002,-12.637 0.001,-25.273 0.001,-37.909 z M 124.709,59.97 c -0.374,0.06 -0.591,0.364 -0.84,0.613 -3.847,3.842 -7.672,7.706 -11.549,11.517 -0.813,0.8 -0.689,1.3 0.057,2.045 13.668,13.636 27.319,27.289 40.953,40.959 0.735,0.737 1.188,0.767 1.934,0.008 3.726,-3.792 7.504,-7.534 11.263,-11.294 1.124,-1.125 1.124,-1.129 0.01,-2.243 -6.02,-6.022 -12.041,-12.042 -18.062,-18.063 -7.576,-7.576 -15.151,-15.151 -22.73,-22.723 -0.306,-0.305 -0.556,-0.691 -1.036,-0.819 z m 73.011,2.555 c 0,9.597 0.018,19.193 -0.022,28.79 -0.005,1.192 0.339,1.609 1.563,1.597 5.238,-0.055 10.476,-0.02 15.714,-0.026 1.485,-10e-4 1.552,-0.07 1.553,-1.562 0.003,-19.194 0.003,-38.387 0,-57.581 0,-1.5 -0.067,-1.572 -1.544,-1.574 -5.198,-0.007 -10.396,-0.005 -15.595,-10e-4 -1.638,10e-4 -1.668,0.034 -1.668,1.687 -0.002,9.557 -0.001,19.113 -0.001,28.67 z m -85.039,79.999 c -9.598,0 -19.196,-0.001 -28.794,0.002 -1.58,0 -1.599,0.021 -1.6,1.619 -0.004,5.198 -0.004,10.397 0,15.597 10e-4,1.552 0.037,1.587 1.639,1.587 19.156,0.002 38.313,0.002 57.47,-0.001 1.546,0 1.634,-0.088 1.635,-1.626 0.005,-5.119 0.004,-10.238 0.001,-15.357 -0.001,-1.803 -0.017,-1.819 -1.796,-1.819 -9.519,-0.003 -19.037,-0.002 -28.555,-0.002 z m 363.531,-31.308 c -0.019,-7.3 -5.621,-12.865 -12.94,-12.853 -7.05,0.011 -12.794,5.636 -12.752,12.695 0.047,7.822 6.47,13.234 13.102,13.091 7.128,-0.152 12.61,-5.657 12.59,-12.933 z"
   id="path7"
   inkscape:connector-curvature="0"
   style="fill:none" />
		<path
   clip-rule="evenodd"
   d="m 210.405,213.406 c -10.686,0.078 -20.253,-1.612 -29.025,-6.356 -15.439,-8.351 -24.921,-21.205 -28.038,-38.538 -1.786,-9.933 -1.492,-19.844 1.503,-29.542 4.105,-13.295 12.427,-23.276 24.338,-30.328 7.791,-4.612 16.171,-7.441 25.229,-8.139 17.929,-1.381 33.566,4.016 47.036,15.873 1.688,1.486 3.176,3.149 4.728,4.761 0.581,0.604 0.553,1.02 -0.045,1.583 -4.366,4.109 -8.721,8.231 -13.054,12.376 -0.722,0.69 -1.108,0.215 -1.567,-0.258 -2.825,-2.907 -5.912,-5.501 -9.323,-7.695 -6.066,-3.901 -12.652,-6.218 -19.894,-6.688 -9.97,-0.648 -18.944,1.8 -26.625,8.346 -7.014,5.978 -11.323,13.475 -12.388,22.7 -0.869,7.525 -0.154,14.866 3.146,21.775 5.22,10.93 14.099,17.189 25.822,19.358 12.994,2.404 24.562,-0.863 34.544,-9.575 1.625,-1.418 3.232,-2.859 4.801,-4.342 0.583,-0.551 0.981,-0.643 1.576,-0.018 4.105,4.316 8.226,8.618 12.367,12.9 0.715,0.739 0.673,1.226 -0.078,1.953 -5.364,5.202 -11.136,9.866 -17.713,13.453 -5.973,3.257 -12.418,5.051 -19.145,5.895 -2.976,0.374 -5.963,0.588 -8.195,0.506 z"
   id="path9"
   inkscape:connector-curvature="0"
   style="fill-rule:evenodd" />
		<path
   clip-rule="evenodd"
   d="m 367.192,202.595 c -2.309,1.916 -4.272,3.692 -6.548,5.029 -11.97,7.034 -24.174,7.083 -35.973,0.074 -11.675,-6.936 -18.255,-17.556 -19.66,-31.158 -0.875,-8.476 -0.237,-16.851 3.396,-24.666 6.021,-12.956 15.822,-21.206 30.379,-22.677 9.792,-0.99 18.597,1.802 26.129,8.28 0.661,0.568 1.33,1.127 2.094,1.772 0.329,-1.035 0.153,-1.986 0.175,-2.915 0.032,-1.399 0.021,-2.799 0.008,-4.199 -0.006,-0.708 0.209,-1.136 1.021,-1.134 6.039,0.012 12.079,0.01 18.118,0.001 0.702,-0.001 1.04,0.297 1.026,1 -0.007,0.36 0.007,0.72 0.007,1.08 0,25.198 0,50.396 0,75.594 0,0.32 -0.019,0.641 -0.002,0.959 0.043,0.818 -0.336,1.143 -1.15,1.132 -2.119,-0.025 -4.239,-0.006 -6.359,-0.006 -3.76,0 -7.52,-0.027 -11.278,0.017 -1.045,0.013 -1.421,-0.354 -1.396,-1.393 0.05,-2.147 0.013,-4.298 0.013,-6.79 z m 0.966,-31.92 c -0.008,-6.912 -1.842,-12.248 -5.985,-16.609 -4.904,-5.162 -11.028,-7.129 -18.053,-6.477 -8.279,0.769 -13.902,5.267 -17.291,12.64 -2.012,4.379 -2.381,9.067 -1.871,13.854 0.697,6.542 3.533,11.914 8.688,15.979 4.386,3.46 9.447,4.614 14.983,4.122 6.05,-0.538 10.881,-3.227 14.639,-7.925 3.645,-4.556 4.876,-9.883 4.89,-15.584 z"
   id="path11"
   inkscape:connector-curvature="0"
   style="fill-rule:evenodd" />
		<path
   clip-rule="evenodd"
   d="m 568.73,180.692 c 1.434,-3.103 2.73,-5.886 4.008,-8.679 4.041,-8.837 8.069,-17.679 12.111,-26.515 2.029,-4.437 4.101,-8.854 6.097,-13.304 0.381,-0.849 0.828,-1.217 1.784,-1.211 5.999,0.037 11.999,0.014 17.999,0.023 1.325,0.002 1.405,0.157 0.84,1.384 -8.318,18.092 -16.639,36.184 -24.956,54.277 -7.264,15.804 -14.525,31.61 -21.786,47.416 -0.701,1.526 -1.415,3.047 -2.071,4.593 -0.34,0.799 -0.824,1.143 -1.729,1.137 -6.08,-0.033 -12.159,-0.013 -18.239,-0.019 -1.292,-0.002 -1.376,-0.129 -0.837,-1.281 4.13,-8.84 8.267,-17.677 12.403,-26.513 0.898,-1.92 1.764,-3.856 2.73,-5.741 0.556,-1.084 0.554,-2.029 0.08,-3.168 -5.354,-12.889 -10.663,-25.795 -15.976,-38.7 -4.4,-10.688 -8.789,-21.379 -13.182,-32.068 -0.516,-1.253 -0.479,-1.317 0.916,-1.318 5.96,-0.005 11.92,0.016 17.879,-0.02 0.946,-0.006 1.437,0.323 1.797,1.194 6.41,15.524 12.847,31.037 19.278,46.552 0.229,0.549 0.475,1.09 0.854,1.961 z"
   id="path13"
   inkscape:connector-curvature="0"
   style="fill-rule:evenodd" />
		<path
   clip-rule="evenodd"
   d="m 493.893,179.374 c 0,-9.879 0.001,-19.759 -10e-4,-29.639 -10e-4,-1.604 -0.008,-1.608 -1.593,-1.611 -2.479,-0.005 -4.96,-0.028 -7.439,0.01 -0.926,0.015 -1.283,-0.327 -1.278,-1.259 0.025,-4.88 0.025,-9.76 0,-14.639 -0.005,-0.944 0.375,-1.259 1.29,-1.245 2.519,0.038 5.041,-0.041 7.559,0.034 1.182,0.036 1.488,-0.4 1.483,-1.525 -0.038,-8.64 -0.021,-17.279 -0.021,-25.919 0.001,-1.854 0.004,-1.857 1.849,-1.858 5.479,-0.001 10.96,-0.001 16.439,0 1.873,0 1.877,0.002 1.878,1.838 0.002,8.359 0,16.719 10e-4,25.079 0.001,2.589 -0.164,2.356 2.303,2.362 2.72,0.006 5.44,0.031 8.16,-0.013 0.979,-0.016 1.349,0.323 1.342,1.316 -0.031,4.839 -0.031,9.68 0,14.519 0.007,0.998 -0.375,1.327 -1.348,1.313 -2.84,-0.042 -5.68,-0.016 -8.52,-0.014 -1.935,0.001 -1.938,0.002 -1.938,1.891 -10e-4,13.079 0,26.158 0,39.237 0,6.6 0.002,13.2 -0.002,19.8 -10e-4,1.671 -0.039,1.71 -1.646,1.711 -5.64,0.003 -11.279,0.003 -16.919,-0.001 -1.568,-0.001 -1.599,-0.032 -1.599,-1.628 -10e-4,-9.919 0,-19.839 0,-29.759 z"
   id="path15"
   inkscape:connector-curvature="0"
   style="fill-rule:evenodd" />
		<path
   clip-rule="evenodd"
   d="m 270.458,155.39 c 0,-17.713 0,-35.427 0,-53.141 0,-1.965 0.002,-1.966 1.98,-1.966 5.558,-0.001 11.116,0.031 16.674,-0.025 1.231,-0.012 1.562,0.41 1.561,1.594 -0.025,35.787 -0.025,71.574 10e-4,107.361 0.001,1.211 -0.38,1.584 -1.585,1.572 -5.677,-0.052 -11.355,-0.021 -17.034,-0.024 -1.562,-0.001 -1.596,-0.035 -1.596,-1.631 -0.002,-17.913 -10e-4,-35.826 -10e-4,-53.74 z"
   id="path17"
   inkscape:connector-curvature="0"
   style="fill-rule:evenodd" />
		<path
   clip-rule="evenodd"
   d="m 420.037,140.201 c 1.534,-2.288 3.081,-4.396 5.005,-6.241 5.127,-4.918 13.053,-6.301 19.517,-3.386 0.85,0.384 1.125,0.781 0.775,1.727 -1.845,4.988 -3.64,9.994 -5.419,15.006 -0.318,0.895 -0.754,1.067 -1.613,0.685 -1.683,-0.75 -3.406,-1.447 -5.309,-1.224 -2.897,0.341 -4.836,2.087 -6.379,4.42 -2.1,3.174 -2.749,6.792 -3.199,10.454 -0.59,4.805 -0.855,9.64 -0.708,14.476 0.334,10.915 0.06,21.831 0.157,32.746 0.017,1.896 -0.002,1.898 -1.938,1.899 -5.559,0 -11.118,-0.024 -16.677,0.02 -1.122,0.009 -1.547,-0.316 -1.546,-1.49 0.024,-25.595 0.024,-51.19 0.001,-76.786 -0.001,-1.134 0.346,-1.538 1.51,-1.525 4.798,0.052 9.598,0.048 14.396,0.002 1.103,-0.01 1.47,0.364 1.444,1.455 -0.057,2.585 -0.017,5.174 -0.017,7.762 z"
   id="path19"
   inkscape:connector-curvature="0"
   style="fill-rule:evenodd" />
		<path
   clip-rule="evenodd"
   d="m 473.528,171.001 c 0,12.636 10e-4,25.272 -0.001,37.909 0,1.849 -0.004,1.852 -1.861,1.852 -5.599,0.002 -11.197,-0.029 -16.795,0.024 -1.209,0.011 -1.577,-0.367 -1.576,-1.576 0.029,-25.553 0.029,-51.104 0,-76.657 -0.001,-1.209 0.367,-1.585 1.575,-1.574 5.679,0.053 11.356,0.021 17.035,0.025 1.581,0.001 1.621,0.037 1.621,1.608 0.003,12.796 0.002,25.593 0.002,38.389 z"
   id="path21"
   inkscape:connector-curvature="0"
   style="fill-rule:evenodd" />
		<path
   clip-rule="evenodd"
   d="m 124.709,59.97 c 0.48,0.128 0.73,0.515 1.035,0.819 7.58,7.571 15.155,15.147 22.73,22.723 6.021,6.021 12.042,12.041 18.062,18.063 1.114,1.114 1.114,1.118 -0.01,2.243 -3.758,3.76 -7.537,7.501 -11.263,11.294 -0.746,0.759 -1.199,0.729 -1.934,-0.008 C 139.696,101.433 126.044,87.781 112.376,74.145 111.63,73.4 111.506,72.9 112.319,72.1 c 3.877,-3.811 7.702,-7.675 11.549,-11.517 0.25,-0.249 0.467,-0.554 0.841,-0.613 z"
   id="path23"
   inkscape:connector-curvature="0"
   style="fill-rule:evenodd" />
		<path
   clip-rule="evenodd"
   d="m 197.72,62.525 c 0,-9.557 -0.001,-19.114 0.001,-28.67 0,-1.653 0.031,-1.685 1.668,-1.687 5.198,-0.004 10.396,-0.005 15.595,10e-4 1.477,0.002 1.544,0.073 1.544,1.574 0.003,19.193 0.003,38.387 0,57.581 0,1.492 -0.068,1.561 -1.553,1.562 -5.238,0.006 -10.477,-0.029 -15.714,0.026 -1.224,0.013 -1.568,-0.404 -1.563,-1.597 0.04,-9.596 0.022,-19.193 0.022,-28.79 z"
   id="path25"
   inkscape:connector-curvature="0"
   style="fill-rule:evenodd" />
		<path
   clip-rule="evenodd"
   d="m 112.681,142.524 c 9.519,0 19.037,-0.001 28.555,0.001 1.78,0 1.795,0.017 1.796,1.819 0.002,5.119 0.004,10.238 -0.001,15.357 -0.001,1.538 -0.089,1.626 -1.635,1.626 -19.157,0.003 -38.313,0.003 -57.47,0.001 -1.602,0 -1.638,-0.035 -1.639,-1.587 -0.005,-5.199 -0.004,-10.398 0,-15.597 10e-4,-1.599 0.02,-1.619 1.6,-1.619 9.597,-0.002 19.196,-0.001 28.794,-0.001 z"
   id="path27"
   inkscape:connector-curvature="0"
   style="fill-rule:evenodd" />
		<path
   clip-rule="evenodd"
   d="m 476.212,111.216 c 0.02,7.276 -5.463,12.781 -12.591,12.934 -6.632,0.143 -13.055,-5.27 -13.102,-13.091 -0.042,-7.06 5.702,-12.684 12.752,-12.695 7.32,-0.013 12.923,5.552 12.941,12.852 z"
   id="path29"
   inkscape:connector-curvature="0"
   style="fill-rule:evenodd" />
		<path
   clip-rule="evenodd"
   d="m 368.158,170.675 c -0.014,5.701 -1.245,11.028 -4.891,15.585 -3.758,4.698 -8.589,7.387 -14.639,7.925 -5.536,0.492 -10.597,-0.662 -14.983,-4.122 -5.154,-4.065 -7.99,-9.438 -8.688,-15.979 -0.51,-4.787 -0.142,-9.476 1.871,-13.854 3.388,-7.373 9.011,-11.871 17.291,-12.64 7.025,-0.652 13.149,1.314 18.053,6.477 4.144,4.36 5.978,9.696 5.986,16.608 z"
   id="path31"
   inkscape:connector-curvature="0"
   style="fill:none" />
	</g>
</g>
</svg>