<?xml version="1.0" encoding="UTF-8" standalone="no"?>
<!-- Generator: Adobe Illustrator 16.0.0, SVG Export Plug-In . SVG Version: 6.00 Build 0)  -->

<svg
   xmlns:dc="http://purl.org/dc/elements/1.1/"
   xmlns:cc="http://creativecommons.org/ns#"
   xmlns:rdf="http://www.w3.org/1999/02/22-rdf-syntax-ns#"
   xmlns:svg="http://www.w3.org/2000/svg"
   xmlns="http://www.w3.org/2000/svg"
   xmlns:sodipodi="http://sodipodi.sourceforge.net/DTD/sodipodi-0.dtd"
   xmlns:inkscape="http://www.inkscape.org/namespaces/inkscape"
   version="1.1"
   id="ClarityLogo_xA0_Image_1_"
   x="0px"
   y="0px"
   width="512"
   height="512"
   viewBox="0 0 511.99999 511.99998"
   enable-background="new 0 0 531.12 207.6"
   xml:space="preserve"
   inkscape:version="0.48.4 r9939"
   sodipodi:docname="ClarityIco_black.svg"><metadata
   id="metadata37"><rdf:RDF><cc:Work
       rdf:about=""><dc:format>image/svg+xml</dc:format><dc:type
         rdf:resource="http://purl.org/dc/dcmitype/StillImage" /><dc:title></dc:title></cc:Work></rdf:RDF></metadata><defs
   id="defs35">
	

		
		
		
		
		
		
		
		
		
		
		
		
		
	</defs><sodipodi:namedview
   pagecolor="#ffffff"
   bordercolor="#666666"
   borderopacity="1"
   objecttolerance="10"
   gridtolerance="10"
   guidetolerance="10"
   inkscape:pageopacity="0"
   inkscape:pageshadow="2"
   inkscape:window-width="1191"
   inkscape:window-height="851"
   id="namedview33"
   showgrid="false"
   fit-margin-top="0"
   fit-margin-left="0"
   fit-margin-right="0"
   fit-margin-bottom="0"
   inkscape:zoom="0.53848472"
   inkscape:cx="43.379662"
   inkscape:cy="53.240276"
   inkscape:window-x="0"
   inkscape:window-y="0"
   inkscape:window-maximized="0"
   inkscape:current-layer="ClarityLogo_xA0_Image_1_" />
<path
   clip-rule="evenodd"
   d="m 0,375.47848 c 0,-70.21856 0.00578089,-140.43711 -0.04432016,-210.65567 0,-1.73234 0.39117361,-2.12544 2.12544086,-2.12544 73.4558523,0.052 146.9117093,0.0443 220.3675593,0.0443 -0.0231,0.53762 -0.0694,1.07717 -0.0694,1.6148 -0.004,37.53532 0.0116,75.07257 -0.0463,112.6079 -0.004,2.32585 0.91145,2.84805 3.01377,2.83264 9.86413,-0.0751 19.73211,-0.0308 29.59624,-0.0347 3.67086,0 3.67471,-0.006 3.67471,-3.72482 0.002,-36.76454 0.002,-73.53101 -0.002,-110.29555 0,-1.00202 -0.0617,-2.00211 -0.0925,-3.00221 254.43435,0 508.87062,0.002 763.3069,-0.0424 1.7323,0 2.1254,0.38925 2.1254,2.12352 -0.046,131.95847 -0.046,263.91501 0,395.8754 0,1.73234 -0.3892,2.12737 -2.1254,2.12544 -32.29591,-0.0597 -64.59182,-0.0424 -96.88773,-0.0424 1.58396,-3.59186 3.12361,-7.20684 4.76153,-10.77558 15.71824,-34.24407 31.44997,-68.48043 47.18555,-102.71487 14.3212,-31.15515 28.65205,-62.30259 42.97895,-93.45581 1.0714,-2.32777 0.9076,-2.61489 -1.6957,-2.61874 -11.5618,-0.0154 -23.12354,0.0193 -34.6834,-0.0366 -1.70921,-0.008 -2.60525,0.57616 -3.31245,2.16398 -3.61113,8.09132 -7.35329,16.1229 -11.0415,24.18146 -9.74851,21.29873 -19.4816,42.60324 -29.25131,63.89234 -0.76885,1.67838 -1.32575,3.50707 -2.77097,5.09874 -0.50486,-1.13883 -0.9288,-2.03873 -1.31033,-2.95596 -12.42314,-29.96814 -24.85205,-59.93435 -37.2328,-89.91983 -0.71105,-1.72078 -1.61479,-2.48964 -3.57837,-2.47615 -11.4847,0.0886 -22.9694,0.0366 -34.45218,0.0482 -2.64957,0.002 -2.70931,0.12139 -1.6938,2.58984 4.45707,10.83146 8.91413,21.66485 13.3712,32.49631 14.22677,34.56009 28.43235,69.12596 42.72849,103.65715 0.93843,2.26997 0.93458,4.1237 -0.10984,6.31852 -6.18555,13.01278 -12.27668,26.07181 -18.37167,39.12892 -3.94256,8.44781 -7.83696,16.91489 -11.7564,25.37618 -294.2088,0 -588.41568,-0.002 -882.6244824,0.0424 -1.73218022,-1e-5 -2.12720776,-0.38926 -2.1252808,-2.12546 0.05395499,-49.71566 0.04432017,-99.43132 0.04432017,-149.14698 0.4605443,0.0328 0.9210886,0.0886 1.38163283,0.0906 37.5892792,0.004 75.1804852,-0.01 112.7697602,0.0405 2.28924,0.004 2.8866,-0.90182 2.87118,-3.02341 -0.0732,-9.85835 -0.0308,-19.71862 -0.0328,-29.57889 0,-3.66316 -0.006,-3.66894 -3.7595,-3.66894 -33.353818,0 -66.707631,-0.004 -100.061444,0.002 -4.3915499,0.004 -8.781173,0.0462 -13.170796,0.0694 z m 245.22346,136.51766 c 4.08324,-0.0617 8.15298,-0.0944 12.23429,-0.44127 13.72962,-1.16389 26.94281,-4.27401 39.28308,-10.47498 14.04371,-7.05654 26.10651,-16.83973 37.30795,-27.76176 1.40282,-1.36815 0.75344,-2.23721 -0.21775,-3.25079 -7.93909,-8.2898 -15.89745,-16.56418 -23.80956,-24.8771 -1.06947,-1.12149 -1.83447,-1.25831 -3.0369,-0.11369 -3.00992,2.86732 -6.11618,5.63637 -9.24557,8.37458 -19.21568,16.80505 -41.46826,23.00795 -66.54769,18.56437 -16.74146,-2.96752 -30.96438,-10.70621 -41.65517,-24.14293 -13.51765,-16.98811 -16.97077,-36.65277 -13.9146,-57.58152 2.91742,-19.97683 13.71227,-35.22875 30.2803,-46.39743 13.27293,-8.94689 28.1356,-11.97994 43.99065,-11.05307 13.5427,0.79006 25.95813,4.92147 37.44283,12.00884 7.18565,4.43394 13.62942,9.79283 19.50858,15.84157 0.83631,0.85942 1.56662,1.69573 2.84998,0.47018 8.41313,-8.02966 16.85901,-16.03041 25.32223,-24.00804 1.08681,-1.02515 1.05212,-1.77088 0.0674,-2.88274 -4.14682,-4.68445 -8.5904,-9.05287 -13.46754,-12.96654 -25.22974,-20.2389 -53.90488,-29.43244 -86.24897,-26.88499 -17.53344,1.38163 -33.75847,6.82145 -48.82926,15.76449 -22.85956,13.56967 -38.84758,32.7526 -46.75391,58.28101 -5.7886,18.68384 -6.37247,37.77812 -2.93862,56.9225 6.0391,33.67562 24.48014,58.56814 54.56968,74.62938 16.73761,8.93147 34.95319,12.11289 53.80853,11.97993 z M 548.93605,368.8555 c -0.52028,-0.0674 -0.7072,-0.0347 -0.80162,-0.11369 -1.29299,-1.09259 -2.56864,-2.2083 -3.85971,-3.30474 -14.51774,-12.33257 -31.43455,-17.64328 -50.21281,-15.69512 -28.23773,2.93091 -47.08536,19.02877 -58.64136,44.23345 -5.62288,12.26705 -7.09701,25.40702 -6.83494,38.82639 0.27748,14.22485 3.16407,27.79452 10.64647,39.94596 14.77789,24.00418 35.42145,38.36006 64.67083,37.84171 12.86441,-0.22738 24.50519,-4.10058 35.03798,-11.46736 3.32016,-2.32199 6.3031,-5.0737 9.85256,-7.73291 0.0597,1.11379 0.13296,1.85374 0.13489,2.5937 0.0135,3.39145 0.0983,6.78483 -0.027,10.17244 -0.0771,2.13122 0.73803,2.79409 2.83071,2.77868 11.09931,-0.0771 22.19862,-0.079 33.29408,0.002 2.12737,0.0174 2.83649,-0.70912 2.80951,-2.80373 -0.0886,-6.85999 -0.0328,-13.71805 -0.0328,-20.57997 0,-42.00395 0,-84.0079 0,-126.01378 0,-4.33567 -0.002,-4.33567 -4.44165,-4.33567 -9.55581,0 -19.11355,-0.0347 -28.67129,0.0135 -6.5247,0.0328 -5.69418,-0.92495 -5.75199,5.77703 -0.027,3.27584 -0.002,6.54783 -0.002,9.8622 z m 244.15014,77.58534 c 0,19.19256 0.0289,38.38511 -0.0385,57.57574 -0.008,2.20638 0.68985,2.94248 2.91357,2.92706 11.09931,-0.0886 22.19862,-0.0771 33.296,-0.008 1.99634,0.0135 2.87503,-0.65324 2.69583,-2.66306 -0.0675,-0.76308 -0.008,-1.53964 -0.008,-2.31043 0,-37.53532 -0.002,-75.07065 0.002,-112.60597 0,-3.09278 0.0597,-3.15059 3.06002,-3.15637 5.70382,-0.01 11.40763,-0.0559 17.10951,0.025 1.89806,0.027 2.58984,-0.65516 2.57635,-2.55322 -0.0578,-9.32651 -0.0597,-18.65301 0.002,-27.97759 0.0116,-1.93852 -0.74959,-2.53974 -2.61104,-2.51276 -5.54772,0.079 -11.09738,0.0289 -16.64703,0.0251 -3.48203,-0.002 -3.48974,-0.006 -3.49166,-3.41843 -0.002,-16.49481 0.002,-32.98962 -0.002,-49.4825 -0.002,-3.509 -0.01,-3.51671 -3.41072,-3.51863 -10.63877,-0.004 -21.27368,-0.002 -31.91052,0 -3.53213,0 -3.53791,0.006 -3.53983,3.60342 -0.002,16.64896 -0.0366,33.296 0.0405,49.94497 0.01,2.19674 -0.63204,2.98101 -2.88081,2.91549 -4.85209,-0.14067 -9.71189,0.008 -14.56784,-0.0655 -1.7863,-0.027 -2.47037,0.62626 -2.46074,2.42219 0.0482,9.40165 0.0482,18.80524 0,28.20882 -0.01,1.8152 0.72262,2.4299 2.48579,2.40292 4.77694,-0.0713 9.55774,-0.0289 14.33468,-0.0193 3.03304,0.006 3.0446,0.0154 3.04653,3.12746 0.008,19.03841 0.004,38.07681 0.006,57.11328 z M 362.53315,400.20913 c 0,34.51962 -0.002,69.03732 0.002,103.55502 0,3.06773 0.0674,3.13325 3.08507,3.13517 10.9413,0.008 21.8826,-0.0539 32.82389,0.0482 2.3297,0.0212 3.04653,-0.71683 3.04461,-3.04075 -0.0482,-68.95832 -0.0482,-137.91857 0,-206.87881 0.002,-2.29116 -0.65324,-3.087 -3.0157,-3.06388 -10.71006,0.10599 -21.42013,0.0443 -32.13019,0.0462 -3.80383,0 -3.80768,0.002 -3.80768,3.79805 -0.002,34.13423 -0.002,68.26846 -0.002,102.40077 z m 288.23522,-29.00658 c 0,-5.27218 -0.0906,-10.20328 0.0405,-15.12667 0.0578,-2.22564 -0.70527,-2.93284 -2.91742,-2.90971 -9.09334,0.0983 -18.18668,0.0366 -27.28195,0.0424 -3.14095,0.002 -3.20454,0.0617 -3.20454,3.25271 -0.004,49.01425 -0.004,98.0285 0,147.04082 0,3.37025 0.025,3.39531 3.30089,3.39723 10.63684,0.004 21.26982,0.002 31.90666,0 3.59764,0 3.63425,-0.006 3.6015,-3.55717 -0.1927,-21.03281 0.36034,-42.06755 -0.30446,-63.10035 -0.29483,-9.3978 0.23316,-18.78982 1.38356,-28.12404 0.86713,-7.05654 2.14278,-14.02829 6.22023,-20.1252 2.9444,-4.40697 6.63069,-7.71364 12.1206,-8.39386 3.75566,-0.4644 7.12977,0.93458 10.44993,2.39136 1.57433,0.69178 2.37787,0.33337 2.95018,-1.27179 3.49358,-9.79861 7.02571,-19.58181 10.58288,-29.35537 0.4856,-1.33153 0.2929,-2.14663 -1.09066,-2.72858 -3.93486,-1.64948 -7.95258,-2.94825 -12.24971,-3.10819 -15.19796,-0.56267 -26.00244,6.58251 -33.65634,19.23303 -0.46633,0.76885 -0.686,1.71114 -1.85181,2.44339 z m 103.07521,59.09419 c 0,-24.65936 0.002,-49.31678 -0.004,-73.97421 0,-3.03689 -0.079,-3.11012 -3.11012,-3.11204 -10.94322,-0.006 -21.88452,0.0539 -32.82582,-0.0463 -2.3085,-0.0212 -3.05231,0.66866 -3.04846,3.01762 0.0559,49.23778 0.0559,98.47748 0.002,147.71718 -0.004,2.31043 0.67636,3.07351 3.02148,3.05038 10.78714,-0.10598 21.57428,-0.0443 32.36335,-0.0462 3.59186,0 3.59957,-0.006 3.59957,-3.55525 0.002,-24.35297 0.002,-48.70208 0.002,-73.05119 z M 81.753358,216.34789 c -0.882549,0.0809 -1.308408,0.79006 -1.836396,1.31805 -7.307046,7.2897 -14.55821,14.63914 -21.936554,21.85562 -1.713071,1.67645 -1.526155,2.67848 0.08286,4.28171 26.239464,26.15661 52.434602,52.35753 78.591212,78.597 1.53771,1.54349 2.47229,1.66875 4.06204,0.0424 7.16445,-7.32439 14.41368,-14.56399 21.73037,-21.73615 1.56084,-1.53001 1.66489,-2.46459 0.0462,-4.06204 -10.52311,-10.39212 -20.94798,-20.88251 -31.40754,-31.34207 -15.79532,-15.79533 -31.590638,-31.59258 -47.395594,-47.38019 -0.589651,-0.58772 -1.071391,-1.32768 -1.936598,-1.57433 z m 677.262192,98.72606 c -0.0385,-14.06491 -10.83339,-24.78461 -24.94069,-24.76341 -13.58317,0.0231 -24.65358,10.87193 -24.56686,24.46858 0.0964,15.07079 12.47131,25.49759 25.25093,25.22203 13.73347,-0.29482 24.29516,-10.90276 24.25662,-24.9272 z"
   id="path7"
   inkscape:connector-curvature="0"
   style="fill:none" /><g
   id="g3023"
   transform="matrix(0.94095611,0,0,0.94095611,97.958295,91.639918)"><path
     style="fill-rule:evenodd"
     inkscape:connector-curvature="0"
     id="path11"
     d="m 258.56576,0.04431615 c 0.0328,1.00009415 0.0925,2.00211515 0.0925,3.00220925 0.004,36.7645386 0.004,73.5310036 0.002,110.2955446 0,3.71711 -0.004,3.72289 -3.67472,3.72482 -9.86606,0.002 -19.73211,-0.0405 -29.59624,0.0347 -2.10231,0.0154 -3.01762,-0.50679 -3.01377,-2.83263 0.0578,-37.535326 0.0424,-75.07065 0.0462,-112.6079014 0,-0.5376228 0.0443,-1.07717264 0.0694,-1.61479548 12.02618,-0.001927 24.05043,-0.001927 36.07469,-0.001927 z"
     clip-rule="evenodd" /><path
     style="fill-rule:evenodd"
     inkscape:connector-curvature="0"
     id="path13"
     d="m 0.04432016,212.7811 c 4.38962304,-0.0231 8.77924614,-0.0636 13.16886884,-0.0655 33.353813,-0.006 66.707626,-0.002 100.061441,-0.002 3.75372,0 3.7595,0.006 3.7595,3.66894 0.002,9.85835 -0.0405,19.71862 0.0328,29.57889 0.0154,2.12352 -0.58194,3.02726 -2.87117,3.02341 -37.591209,-0.0501 -75.180488,-0.0385 -112.7697669,-0.0405 -0.46054434,-0.002 -0.9230156,-0.0578 -1.38163294,-0.0906 0,-12.02426 0,-24.04851 0,-36.07276 z"
     clip-rule="evenodd" /><path
     style="fill-rule:evenodd"
     inkscape:connector-curvature="0"
     id="path15"
     d="m 245.26778,349.29876 c -18.85534,0.13103 -37.07092,-3.04846 -53.80853,-11.98186 -30.08954,-16.06124 -48.53058,-40.95376 -54.56968,-74.62937 -3.43385,-19.14439 -2.84998,-38.23867 2.93862,-56.92251 7.90826,-25.52841 23.89435,-44.71133 46.75584,-58.28101 15.07078,-8.94497 31.29582,-14.38286 48.82926,-15.76449 32.34408,-2.54745 61.01923,6.6461 86.24896,26.885 4.87715,3.91366 9.32073,8.28209 13.46755,12.96653 0.98468,1.11186 1.01937,1.8576 -0.0674,2.88274 -8.46323,7.97763 -16.90718,15.97838 -25.32223,24.00804 -1.28529,1.22555 -2.01368,0.39117 -2.84998,-0.47018 -5.87917,-6.04874 -12.32486,-11.4057 -19.50858,-15.84157 -11.4847,-7.08929 -23.90013,-11.21878 -37.44283,-12.00883 -15.85698,-0.92687 -30.71773,2.1081 -43.99065,11.05306 -16.56803,11.16868 -27.36481,26.4206 -30.28031,46.39743 -3.05423,20.92682 0.39888,40.59149 13.91461,57.58153 10.69079,13.43864 24.91371,21.1754 41.65517,24.14292 25.07943,4.44551 47.33201,-1.75931 66.54769,-18.56436 3.12939,-2.73822 6.23565,-5.50534 9.24557,-8.37459 1.20242,-1.14654 1.96743,-1.0078 3.03689,0.11369 7.91404,8.31292 15.87048,16.58731 23.80957,24.8771 0.97118,1.01166 1.62057,1.88265 0.21774,3.25079 -11.20144,10.92203 -23.26616,20.70522 -37.30794,27.76177 -12.34028,6.20096 -25.55346,9.30916 -39.28308,10.47497 -4.08324,0.35071 -8.15298,0.38154 -12.23622,0.4432 z"
     clip-rule="evenodd" /><path
     style="fill-rule:evenodd"
     inkscape:connector-curvature="0"
     id="path27"
     d="m 81.797678,53.650517 c 0.865207,0.244724 1.348874,0.986605 1.936598,1.572402 15.804956,15.787613 31.598354,31.58486 47.395594,47.380181 10.45956,10.45763 20.88443,20.94995 31.40758,31.34206 1.61865,1.59746 1.5146,2.53011 -0.0462,4.06204 -7.31476,7.17216 -14.56592,14.41176 -21.73037,21.73615 -1.58975,1.62443 -2.52433,1.50111 -4.06204,-0.0424 C 110.54027,133.46342 84.345124,107.2625 58.10566,81.105894 56.496646,79.50266 56.30973,78.500639 58.022801,76.824181 65.401145,69.605775 72.652309,62.258263 79.959355,54.96856 c 0.529915,-0.527988 0.955774,-1.237111 1.838323,-1.318043 z"
     clip-rule="evenodd" /></g>
</svg>