<?xml version="1.0" encoding="utf-8"?>
<!-- Generator: Adobe Illustrator 16.0.0, SVG Export Plug-In . SVG Version: 6.00 Build 0)  -->
<!DOCTYPE svg PUBLIC "-//W3C//DTD SVG 1.1//EN" "http://www.w3.org/Graphics/SVG/1.1/DTD/svg11.dtd">
<svg version="1.1"
	 id="ClarityLogo_xA0_Image_1_" xmlns:dc="http://purl.org/dc/elements/1.1/" xmlns:cc="http://creativecommons.org/ns#" xmlns:rdf="http://www.w3.org/1999/02/22-rdf-syntax-ns#" xmlns:svg="http://www.w3.org/2000/svg" xmlns:sodipodi="http://sodipodi.sourceforge.net/DTD/sodipodi-0.dtd" xmlns:inkscape="http://www.inkscape.org/namespaces/inkscape" sodipodi:docname="ClarityLogo_padded_black.svg" inkscape:version="0.48.4 r9939"
	 xmlns="http://www.w3.org/2000/svg" xmlns:xlink="http://www.w3.org/1999/xlink" x="0px" y="0px" width="1024px" height="400px"
	 viewBox="0 0 1024 400" enable-background="new 0 0 1024 400" xml:space="preserve">
<sodipodi:namedview  inkscape:cy="146.92086" inkscape:cx="476.54633" inkscape:zoom="0.8226901" showgrid="false" guidetolerance="10" gridtolerance="10" pagecolor="#ffffff" borderopacity="1" bordercolor="#666666" objecttolerance="10" id="namedview33" inkscape:current-layer="ClarityLogo_xA0_Image_1_" inkscape:window-maximized="0" inkscape:window-y="0" inkscape:window-x="0" inkscape:window-height="807" inkscape:window-width="1250" inkscape:pageshadow="2" inkscape:pageopacity="0">
	</sodipodi:namedview>
<path id="path7" inkscape:connector-curvature="0" fill="none" d="M511.952,0.023c170.124,0,340.244,0.001,510.366-0.044
	c1.524,0,1.67,0.422,1.67,1.765c-0.035,132.2-0.035,264.398,0.012,396.597c0,1.524-0.422,1.67-1.765,1.67
	c-340.186-0.034-680.371-0.034-1020.556,0.011c-1.523,0-1.669-0.422-1.668-1.764C0.047,266.057,0.048,133.858,0,1.659
	c0-1.523,0.422-1.669,1.765-1.668C171.827,0.025,341.891,0.023,511.952,0.023z M309.438,313.836
	c3.284,0.121,7.683-0.193,12.065-0.742c9.903-1.243,19.392-3.885,28.185-8.679c9.683-5.28,18.18-12.147,26.076-19.806
	c1.105-1.071,1.167-1.787,0.115-2.875c-6.097-6.303-12.163-12.637-18.207-18.99c-0.876-0.92-1.46-0.785-2.319,0.026
	c-2.309,2.182-4.675,4.305-7.068,6.392c-14.695,12.826-31.725,17.635-50.854,14.096c-17.258-3.192-30.329-12.408-38.014-28.498
	c-4.858-10.17-5.912-20.978-4.631-32.056c1.568-13.581,7.913-24.617,18.237-33.418c11.308-9.637,24.519-13.24,39.196-12.286
	c10.661,0.692,20.357,4.104,29.287,9.846c5.021,3.229,9.566,7.048,13.725,11.328c0.676,0.696,1.246,1.397,2.308,0.38
	c6.379-6.102,12.79-12.17,19.217-18.22c0.882-0.829,0.922-1.441,0.066-2.33c-2.283-2.373-4.476-4.821-6.96-7.009
	c-19.83-17.455-42.849-25.4-69.244-23.367c-13.336,1.027-25.673,5.191-37.141,11.982c-17.535,10.381-29.786,25.075-35.83,44.647
	c-4.409,14.276-4.842,28.867-2.212,43.49c4.588,25.517,18.547,44.441,41.276,56.733
	C279.623,311.463,293.707,313.951,309.438,313.836L309.438,313.836z M540.253,297.921c0,3.669,0.055,6.837-0.023,9.999
	c-0.035,1.529,0.518,2.068,2.055,2.051c5.534-0.064,11.069-0.025,16.604-0.025c3.12,0,6.241-0.029,9.361,0.01
	c1.198,0.016,1.756-0.461,1.692-1.667c-0.024-0.468,0.003-0.94,0.003-1.411c0-37.096,0-74.191,0-111.287
	c0-0.53-0.021-1.06-0.01-1.59c0.021-1.035-0.478-1.475-1.511-1.472c-8.891,0.013-17.782,0.016-26.672-0.001
	c-1.195-0.001-1.511,0.627-1.504,1.669c0.02,2.061,0.036,4.122-0.012,6.182c-0.03,1.368,0.227,2.768-0.257,4.292
	c-1.125-0.951-2.11-1.773-3.083-2.609c-11.088-9.538-24.051-13.646-38.466-12.189c-21.431,2.166-35.859,14.31-44.723,33.384
	c-5.347,11.504-6.288,23.834-5,36.313c2.067,20.025,11.756,35.659,28.943,45.869c17.369,10.318,35.336,10.246,52.957-0.109
	C533.962,303.357,536.854,300.742,540.253,297.921L540.253,297.921z M836.948,265.677c-0.559-1.282-0.92-2.079-1.256-2.888
	c-9.469-22.842-18.943-45.678-28.38-68.531c-0.53-1.282-1.253-1.767-2.646-1.758c-8.772,0.053-17.547,0.022-26.321,0.029
	c-2.055,0.001-2.107,0.096-1.349,1.94c6.468,15.735,12.928,31.476,19.406,47.209c7.821,18.999,15.636,37.999,23.52,56.973
	c0.697,1.677,0.7,3.067-0.118,4.663c-1.424,2.775-2.697,5.625-4.019,8.452c-6.091,13.008-12.18,26.018-18.26,39.031
	c-0.793,1.696-0.67,1.883,1.232,1.886c8.95,0.01,17.9-0.021,26.851,0.028c1.331,0.009,2.045-0.497,2.545-1.674
	c0.966-2.276,2.018-4.514,3.049-6.762c10.689-23.269,21.379-46.538,32.073-69.804c12.243-26.636,24.493-53.27,36.738-79.904
	c0.832-1.808,0.715-2.034-1.236-2.037c-8.833-0.014-17.666,0.021-26.497-0.034c-1.407-0.009-2.065,0.533-2.627,1.783
	c-2.938,6.552-5.986,13.055-8.976,19.585c-5.95,13.008-11.88,26.025-17.829,39.034C840.967,257.013,839.059,261.109,836.948,265.677
	L836.948,265.677z M726.776,263.736c0,14.604-0.001,29.207,0.003,43.81c0,2.35,0.044,2.396,2.354,2.397
	c8.303,0.006,16.604,0.006,24.907,0c2.364,0,2.422-0.059,2.423-2.519c0.006-9.716,0.003-19.433,0.003-29.148
	c0-19.255-0.001-38.509,0-57.763c0-2.781,0.004-2.783,2.854-2.784c4.181-0.003,8.361-0.042,12.542,0.021
	c1.433,0.021,1.994-0.464,1.985-1.934c-0.046-7.123-0.046-14.25,0-21.374c0.01-1.462-0.535-1.961-1.977-1.938
	c-4.004,0.065-8.008,0.028-12.013,0.019c-3.632-0.007-3.389,0.336-3.39-3.477c-0.001-12.307,0.001-24.613-0.001-36.92
	c-0.001-2.701-0.008-2.704-2.765-2.706c-8.066-0.001-16.135-0.001-24.201,0c-2.716,0-2.721,0.004-2.722,2.735
	c-0.001,12.719-0.026,25.437,0.03,38.157c0.007,1.656-0.444,2.298-2.183,2.245c-3.707-0.11-7.42,0.004-11.128-0.05
	c-1.348-0.021-1.907,0.443-1.899,1.833c0.037,7.182,0.037,14.367,0,21.551c-0.007,1.371,0.52,1.873,1.881,1.854
	c3.649-0.057,7.303-0.022,10.952-0.016c2.333,0.004,2.344,0.012,2.345,2.372C726.778,234.647,726.777,249.192,726.776,263.736
	L726.776,263.736z M397.846,228.428c0,26.373-0.001,52.743,0.001,79.113c0,2.35,0.05,2.4,2.35,2.402
	c8.358,0.006,16.718-0.041,25.076,0.035c1.774,0.018,2.335-0.531,2.334-2.314c-0.039-52.684-0.039-105.368-0.001-158.052
	c0.001-1.743-0.486-2.364-2.299-2.347c-8.182,0.083-16.364,0.035-24.546,0.037c-2.912,0-2.915,0.001-2.915,2.895
	C397.845,176.274,397.845,202.352,397.846,228.428z M618.049,206.067c0-3.81-0.059-7.621,0.028-11.428
	c0.036-1.606-0.504-2.157-2.126-2.142c-7.064,0.068-14.131,0.074-21.193-0.003c-1.714-0.019-2.225,0.576-2.223,2.245
	c0.033,37.681,0.033,75.36-0.001,113.041c-0.001,1.728,0.624,2.206,2.275,2.193c8.185-0.065,16.368-0.029,24.552-0.029
	c2.85-0.001,2.876-0.004,2.853-2.796c-0.144-16.068,0.261-32.139-0.23-48.207c-0.217-7.119,0.173-14.237,1.042-21.311
	c0.662-5.392,1.619-10.718,4.709-15.391c2.271-3.434,5.125-6.004,9.392-6.506c2.8-0.33,5.338,0.697,7.815,1.801
	c1.265,0.564,1.906,0.31,2.374-1.008c2.619-7.379,5.262-14.748,7.978-22.091c0.516-1.393,0.109-1.977-1.141-2.542
	c-9.516-4.292-21.185-2.255-28.732,4.985C622.585,199.596,620.308,202.699,618.049,206.067L618.049,206.067z M696.796,251.41
	c0-18.838,0.001-37.678-0.003-56.515c0-2.313-0.059-2.366-2.387-2.367c-8.36-0.006-16.718,0.041-25.078-0.037
	c-1.778-0.016-2.32,0.536-2.318,2.317c0.043,37.617,0.043,75.232,0,112.851c-0.001,1.78,0.54,2.337,2.32,2.32
	c8.241-0.079,16.482-0.032,24.725-0.035c2.733,0,2.739-0.004,2.739-2.727C696.797,288.614,696.795,270.012,696.796,251.41
	L696.796,251.41z M183.28,87.955c-0.551,0.088-0.87,0.536-1.236,0.902c-5.664,5.656-11.294,11.345-17.002,16.955
	c-1.197,1.178-1.015,1.914,0.083,3.01c20.122,20.074,40.218,40.174,60.29,60.298c1.082,1.085,1.749,1.129,2.847,0.012
	c5.485-5.583,11.047-11.091,16.581-16.627c1.655-1.656,1.655-1.662,0.015-3.302c-8.862-8.865-17.726-17.728-26.59-26.592
	c-11.153-11.153-22.305-22.304-33.462-33.452C184.355,88.712,183.987,88.144,183.28,87.955L183.28,87.955z M290.764,91.716
	c0,14.128,0.027,28.255-0.032,42.383c-0.007,1.755,0.499,2.369,2.301,2.351c7.711-0.081,15.423-0.029,23.134-0.038
	c2.186-0.001,2.284-0.103,2.286-2.3c0.004-28.256,0.004-56.511,0-84.768c0-2.208-0.099-2.314-2.273-2.317
	c-7.651-0.01-15.304-0.008-22.958-0.001c-2.411,0.001-2.456,0.05-2.456,2.483C290.762,63.579,290.764,77.647,290.764,91.716
	L290.764,91.716z M165.573,209.487c-14.13,0-28.259-0.001-42.389,0.003c-2.326,0-2.354,0.031-2.355,2.383
	c-0.006,7.652-0.006,15.307,0,22.962c0.001,2.284,0.055,2.337,2.413,2.337c28.201,0.002,56.403,0.002,84.605-0.002
	c2.276,0,2.405-0.129,2.407-2.394c0.007-7.536,0.006-15.071,0.001-22.608c-0.001-2.654-0.025-2.678-2.644-2.678
	C193.597,209.486,179.585,209.488,165.573,209.487L165.573,209.487z M700.747,163.397c-0.028-10.747-8.274-18.939-19.05-18.921
	c-10.379,0.016-18.835,8.297-18.772,18.689c0.069,11.515,9.524,19.482,19.288,19.272
	C692.706,182.213,700.776,174.108,700.747,163.397z"/>
<path id="path9" inkscape:connector-curvature="0" fill="#0091F6" d="M309.438,313.836c-15.732,0.115-29.816-2.373-42.729-9.356
	c-22.729-12.294-36.688-31.217-41.276-56.733c-2.629-14.623-2.197-29.214,2.212-43.49c6.043-19.573,18.294-34.267,35.83-44.648
	c11.469-6.79,23.806-10.955,37.141-11.982c26.395-2.033,49.415,5.912,69.244,23.367c2.485,2.188,4.676,4.636,6.961,7.009
	c0.855,0.889,0.813,1.501-0.066,2.33c-6.428,6.049-12.839,12.118-19.218,18.22c-1.063,1.016-1.631,0.316-2.307-0.38
	c-4.159-4.28-8.703-8.098-13.725-11.328c-8.931-5.743-18.626-9.154-29.287-9.846c-14.678-0.954-27.889,2.65-39.196,12.287
	c-10.326,8.8-16.669,19.837-18.237,33.418c-1.279,11.078-0.227,21.885,4.632,32.056c7.685,16.091,20.756,25.306,38.014,28.498
	c19.129,3.539,36.159-1.271,50.854-14.096c2.392-2.087,4.758-4.209,7.067-6.392c0.858-0.812,1.444-0.947,2.32-0.027
	c6.043,6.354,12.109,12.688,18.206,18.991c1.053,1.088,0.991,1.805-0.115,2.875c-7.896,7.658-16.394,14.524-26.076,19.805
	c-8.793,4.795-18.281,7.437-28.185,8.679C317.121,313.643,312.724,313.957,309.438,313.836z"/>
<path id="path11" inkscape:connector-curvature="0" fill="#0091F6" d="M540.253,297.921c-3.399,2.821-6.289,5.436-9.64,7.403
	c-17.622,10.355-35.588,10.428-52.958,0.109c-17.188-10.211-26.874-25.846-28.942-45.869c-1.288-12.479-0.349-24.808,4.999-36.313
	c8.864-19.073,23.293-31.219,44.723-33.384c14.416-1.458,27.378,2.652,38.466,12.189c0.974,0.836,1.958,1.659,3.083,2.608
	c0.484-1.523,0.226-2.924,0.258-4.292c0.047-2.06,0.03-4.121,0.012-6.181c-0.009-1.042,0.308-1.673,1.503-1.67
	c8.891,0.018,17.782,0.015,26.673,0.001c1.033-0.001,1.53,0.437,1.51,1.472c-0.01,0.53,0.011,1.06,0.011,1.59
	c0,37.095,0,74.19,0,111.286c0,0.471-0.028,0.943-0.003,1.412c0.063,1.203-0.495,1.682-1.693,1.666
	c-3.119-0.037-6.24-0.009-9.361-0.009c-5.535,0-11.07-0.04-16.603,0.024c-1.539,0.02-2.092-0.521-2.056-2.051
	C540.308,304.756,540.253,301.589,540.253,297.921L540.253,297.921z M541.675,250.93c-0.012-10.176-2.712-18.031-8.811-24.451
	c-7.22-7.599-16.235-10.494-26.577-9.535c-12.188,1.133-20.466,7.754-25.455,18.608c-2.962,6.446-3.505,13.349-2.754,20.396
	c1.025,9.631,5.201,17.539,12.79,23.523c6.457,5.094,13.907,6.793,22.058,6.068c8.906-0.793,16.018-4.751,21.551-11.667
	C539.842,267.165,541.654,259.322,541.675,250.93L541.675,250.93z"/>
<path id="path13" inkscape:connector-curvature="0" fill="#0091F6" d="M836.948,265.677c2.11-4.568,4.019-8.665,5.9-12.777
	c5.948-13.009,11.879-26.026,17.829-39.034c2.987-6.531,6.037-13.034,8.976-19.585c0.561-1.25,1.219-1.792,2.626-1.783
	c8.832,0.055,17.665,0.021,26.498,0.034c1.95,0.003,2.068,0.231,1.236,2.037c-12.245,26.635-24.495,53.269-36.739,79.904
	c-10.693,23.266-21.383,46.535-32.072,69.804c-1.032,2.247-2.083,4.485-3.049,6.762c-0.501,1.177-1.213,1.683-2.545,1.674
	c-8.951-0.049-17.9-0.019-26.851-0.028c-1.902-0.003-2.026-0.189-1.232-1.886c6.08-13.014,12.17-26.022,18.259-39.031
	c1.322-2.826,2.597-5.677,4.02-8.452c0.818-1.596,0.815-2.986,0.117-4.663c-7.882-18.975-15.697-37.974-23.519-56.973
	c-6.478-15.734-12.939-31.474-19.406-47.209c-0.76-1.845-0.705-1.938,1.349-1.94c8.773-0.007,17.548,0.024,26.32-0.029
	c1.393-0.009,2.115,0.476,2.646,1.758c9.437,22.854,18.913,45.691,28.38,68.531C836.028,263.598,836.391,264.395,836.948,265.677
	L836.948,265.677z"/>
<path id="path15" inkscape:connector-curvature="0" fill="#0091F6" d="M726.776,263.736c0-14.543,0.001-29.088-0.001-43.633
	c-0.001-2.361-0.012-2.367-2.345-2.372c-3.649-0.007-7.303-0.042-10.952,0.015c-1.363,0.021-1.889-0.481-1.881-1.854
	c0.037-7.184,0.037-14.368,0-21.551c-0.007-1.39,0.552-1.854,1.898-1.833c3.709,0.056,7.422-0.06,11.129,0.05
	c1.739,0.053,2.19-0.589,2.183-2.245c-0.056-12.719-0.03-25.438-0.03-38.157c0.001-2.729,0.006-2.734,2.722-2.735
	c8.065-0.001,16.135-0.001,24.2,0c2.758,0,2.764,0.003,2.766,2.706c0.003,12.306,0,24.613,0,36.92
	c0.002,3.812-0.241,3.468,3.391,3.477c4.005,0.009,8.009,0.046,12.013-0.019c1.441-0.023,1.986,0.476,1.976,1.938
	c-0.045,7.124-0.045,14.25,0,21.374c0.011,1.47-0.552,1.954-1.984,1.933c-4.181-0.062-8.361-0.023-12.543-0.02
	c-2.849,0-2.853,0.002-2.853,2.783c-0.001,19.254,0,38.509,0,57.764c0,9.716,0.003,19.432-0.003,29.148
	c-0.001,2.459-0.058,2.518-2.423,2.519c-8.304,0.004-16.604,0.004-24.908-0.001c-2.308-0.001-2.354-0.047-2.354-2.396
	C726.775,292.944,726.776,278.34,726.776,263.736L726.776,263.736z"/>
<path id="path17" inkscape:connector-curvature="0" fill="#0091F6" d="M397.846,228.428c0-26.076,0-52.154,0-78.231
	c0-2.893,0.003-2.895,2.915-2.895c8.182-0.001,16.364,0.046,24.546-0.037c1.813-0.018,2.3,0.604,2.299,2.347
	c-0.037,52.684-0.037,105.369,0.001,158.052c0.001,1.783-0.56,2.332-2.334,2.314c-8.357-0.077-16.716-0.031-25.076-0.035
	c-2.3-0.002-2.35-0.053-2.35-2.402C397.844,281.171,397.846,254.801,397.846,228.428z"/>
<path id="path19" inkscape:connector-curvature="0" fill="#0091F6" d="M618.049,206.067c2.259-3.368,4.536-6.472,7.368-9.188
	c7.548-7.24,19.216-9.276,28.732-4.985c1.251,0.565,1.656,1.15,1.141,2.542c-2.716,7.344-5.358,14.713-7.978,22.092
	c-0.469,1.316-1.11,1.57-2.375,1.008c-2.478-1.104-5.014-2.131-7.815-1.802c-4.265,0.502-7.119,3.072-9.391,6.507
	c-3.092,4.672-4.047,9.998-4.71,15.39c-0.868,7.073-1.259,14.192-1.042,21.312c0.492,16.068,0.089,32.139,0.231,48.207
	c0.024,2.791-0.003,2.794-2.854,2.795c-8.184,0-16.367-0.035-24.551,0.029c-1.652,0.014-2.277-0.465-2.276-2.193
	c0.035-37.68,0.035-75.359,0.001-113.041c-0.001-1.669,0.51-2.264,2.224-2.245c7.063,0.077,14.13,0.071,21.192,0.003
	c1.624-0.015,2.164,0.536,2.126,2.142C617.989,198.446,618.049,202.258,618.049,206.067L618.049,206.067z"/>
<path id="path21" inkscape:connector-curvature="0" fill="#0091F6" d="M696.796,251.41c0,18.602,0.001,37.204-0.001,55.808
	c0,2.722-0.006,2.727-2.739,2.727c-8.243,0.003-16.484-0.043-24.726,0.035c-1.779,0.017-2.321-0.54-2.32-2.32
	c0.043-37.618,0.043-75.233,0-112.851c0-1.78,0.541-2.333,2.319-2.317c8.36,0.078,16.718,0.031,25.078,0.037
	c2.327,0.001,2.386,0.055,2.386,2.368C696.798,213.732,696.797,232.572,696.796,251.41L696.796,251.41z"/>
<path id="path23" inkscape:connector-curvature="0" fill="#0091F6" d="M183.28,87.955c0.707,0.188,1.075,0.758,1.524,1.206
	c11.159,11.146,22.311,22.299,33.462,33.452c8.864,8.864,17.728,17.727,26.59,26.592c1.64,1.64,1.64,1.646-0.015,3.302
	c-5.532,5.536-11.096,11.043-16.581,16.627c-1.099,1.117-1.765,1.073-2.847-0.012c-20.07-20.125-40.168-40.224-60.29-60.298
	c-1.098-1.097-1.281-1.833-0.083-3.01c5.708-5.611,11.338-11.299,17.002-16.955C182.41,88.491,182.73,88.042,183.28,87.955
	L183.28,87.955z"/>
<path id="path25" inkscape:connector-curvature="0" fill="#0091F6" d="M290.764,91.716c0-14.069-0.001-28.139,0.001-42.207
	c0-2.434,0.046-2.48,2.456-2.483c7.652-0.006,15.305-0.008,22.958,0.001c2.174,0.003,2.272,0.107,2.272,2.317
	c0.005,28.255,0.005,56.512,0,84.768c0,2.197-0.1,2.298-2.286,2.3c-7.711,0.009-15.423-0.043-23.133,0.038
	c-1.802,0.019-2.308-0.595-2.301-2.351C290.79,119.973,290.763,105.845,290.764,91.716L290.764,91.716z"/>
<path id="path27" inkscape:connector-curvature="0" fill="#0091F6" d="M165.573,209.487c14.014,0,28.025-0.001,42.038,0.001
	c2.62,0,2.642,0.025,2.644,2.678c0.003,7.536,0.006,15.072-0.001,22.607c-0.001,2.265-0.131,2.395-2.407,2.395
	c-28.202,0.004-56.403,0.004-84.605,0.001c-2.358,0-2.411-0.052-2.413-2.337c-0.007-7.653-0.006-15.307,0-22.961
	c0.001-2.354,0.029-2.383,2.355-2.383C137.313,209.484,151.444,209.486,165.573,209.487L165.573,209.487z"/>
<path id="path29" inkscape:connector-curvature="0" fill="#0091F6" d="M700.747,163.397c0.029,10.711-8.042,18.816-18.536,19.041
	c-9.763,0.21-19.219-7.758-19.288-19.272c-0.062-10.394,8.395-18.673,18.773-18.689C692.473,144.458,700.721,152.65,700.747,163.397
	z"/>
<path id="path31" inkscape:connector-curvature="0" fill="none" d="M541.675,250.93c-0.021,8.393-1.833,16.235-7.2,22.943
	c-5.532,6.916-12.645,10.875-21.551,11.668c-8.149,0.724-15.601-0.975-22.058-6.068c-7.587-5.984-11.763-13.895-12.79-23.523
	c-0.751-7.048-0.209-13.951,2.755-20.396c4.987-10.854,13.266-17.476,25.455-18.607c10.342-0.96,19.357,1.935,26.576,9.535
	C538.963,232.898,541.663,240.754,541.675,250.93L541.675,250.93z"/>
<rect x="265" y="334.5" fill="none" width="494" height="39"/>
<text transform="matrix(1 0 0 1 395.02 371.2998)" display="none" fill="#717171" font-family="'CenturyGothic-BoldItalic'" font-size="50">CONSOLE</text>
<g>
	<path fill="#717171" d="M432.227,340.037l-4.907,4.55c-1.058-1.219-2.352-2.158-3.882-2.816c-1.53-0.658-3.19-0.988-4.98-0.988
		c-2.507,0-4.907,0.643-7.202,1.927c-2.295,1.285-4.082,2.984-5.359,5.098c-1.278,2.114-1.917,4.366-1.917,6.756
		c0,3.252,1.123,5.955,3.369,8.11c2.246,2.154,5.127,3.231,8.643,3.231c3.76,0,7.015-1.09,9.766-3.271l3.979,5.249
		c-4.085,2.881-8.813,4.321-14.185,4.321c-3.776,0-6.987-0.717-9.631-2.148c-2.645-1.432-4.769-3.536-6.372-6.312
		c-1.604-2.774-2.405-5.781-2.405-9.021c0-3.467,0.948-6.791,2.844-9.974c1.896-3.182,4.463-5.688,7.703-7.52
		c3.239-1.83,6.771-2.746,10.596-2.746C423.658,334.483,428.304,336.335,432.227,340.037z"/>
	<path fill="#717171" d="M457.081,334.483c4.932,0,9,1.587,12.207,4.761c3.206,3.174,4.81,7.202,4.81,12.085
		c0,3.744-0.948,7.271-2.844,10.584c-1.896,3.312-4.419,5.855-7.568,7.629s-6.767,2.661-10.852,2.661
		c-5.111,0-9.192-1.514-12.244-4.541s-4.578-7.015-4.578-11.963c0-5.615,1.823-10.44,5.469-14.478
		C445.549,336.729,450.749,334.483,457.081,334.483z M456.836,340.855c-2.572,0-4.919,0.622-7.043,1.868
		c-2.124,1.244-3.837,3.035-5.139,5.371c-1.302,2.335-1.953,4.748-1.953,7.238c0,2.946,0.903,5.444,2.71,7.495
		s4.402,3.076,7.788,3.076c3.922,0,7.255-1.383,9.998-4.15c2.742-2.767,4.114-6.128,4.114-10.083c0-3.271-0.964-5.892-2.893-7.861
		C462.488,341.841,459.961,340.855,456.836,340.855z"/>
	<path fill="#717171" d="M482.59,335.387h5.884l12.952,24.414l3.336-24.414h6.578l-4.883,35.913h-5.758l-13.122-24.683
		l-3.373,24.683h-6.472L482.59,335.387z"/>
	<path fill="#717171" d="M537.817,340.392l-4.907,4.346c-2.019-2.604-3.898-3.906-5.64-3.906c-0.863,0-1.579,0.256-2.148,0.77
		c-0.57,0.512-0.854,1.127-0.854,1.843c0,0.668,0.26,1.408,0.781,2.222c0.521,0.814,2.1,2.612,4.736,5.396
		c1.399,1.481,2.319,2.531,2.759,3.149c1.058,1.433,1.819,2.771,2.282,4.016c0.465,1.246,0.696,2.512,0.696,3.797
		c0,2.881-1.025,5.298-3.076,7.251s-4.68,2.93-7.886,2.93c-4.883,0-8.862-2.319-11.938-6.958l5.176-4.175
		c2.083,3.174,4.337,4.761,6.763,4.761c1.155,0,2.128-0.374,2.918-1.123c0.789-0.748,1.184-1.651,1.184-2.71
		c0-0.83-0.24-1.676-0.721-2.539c-0.479-0.862-1.852-2.49-4.113-4.883c-2.393-2.522-3.964-4.427-4.712-5.713
		c-1.01-1.741-1.514-3.45-1.514-5.127c0-2.213,0.724-4.199,2.173-5.957c1.822-2.197,4.28-3.296,7.373-3.296
		C531.396,334.483,534.952,336.453,537.817,340.392z"/>
	<path fill="#717171" d="M562.061,334.483c4.932,0,9,1.587,12.207,4.761c3.206,3.174,4.81,7.202,4.81,12.085
		c0,3.744-0.948,7.271-2.844,10.584c-1.896,3.312-4.42,5.855-7.568,7.629c-3.15,1.773-6.768,2.661-10.853,2.661
		c-5.111,0-9.192-1.514-12.243-4.541c-3.053-3.027-4.578-7.015-4.578-11.963c0-5.615,1.822-10.44,5.469-14.478
		C550.528,336.729,555.729,334.483,562.061,334.483z M561.816,340.855c-2.572,0-4.919,0.622-7.044,1.868
		c-2.123,1.244-3.837,3.035-5.139,5.371c-1.303,2.335-1.953,4.748-1.953,7.238c0,2.946,0.903,5.444,2.71,7.495
		s4.402,3.076,7.788,3.076c3.922,0,7.255-1.383,9.998-4.15c2.742-2.767,4.113-6.128,4.113-10.083c0-3.271-0.965-5.892-2.893-7.861
		C567.468,341.841,564.941,340.855,561.816,340.855z"/>
	<path fill="#717171" d="M587.646,335.387h6.783l-4.112,29.736h11.147l-0.781,6.177h-17.944L587.646,335.387z"/>
	<path fill="#717171" d="M609.155,335.387h19.312l-0.827,6.372h-12.531l-1.03,7.422h12.598l-0.82,6.323h-12.654l-1.321,9.521h12.738
		l-0.814,6.274h-19.556L609.155,335.387z"/>
</g>
</svg>
