<?xml version="1.0" encoding="UTF-8" standalone="no"?>
<!-- Created with Inkscape (http://www.inkscape.org/) -->

<svg
   xmlns:dc="http://purl.org/dc/elements/1.1/"
   xmlns:cc="http://creativecommons.org/ns#"
   xmlns:rdf="http://www.w3.org/1999/02/22-rdf-syntax-ns#"
   xmlns:svg="http://www.w3.org/2000/svg"
   xmlns="http://www.w3.org/2000/svg"
   xmlns:sodipodi="http://sodipodi.sourceforge.net/DTD/sodipodi-0.dtd"
   xmlns:inkscape="http://www.inkscape.org/namespaces/inkscape"
   id="svg3667"
   version="1.1"
   inkscape:version="0.48.4 r9939"
   width="228.59193"
   height="498.85739"
   xml:space="preserve"
   sodipodi:docname="female_icon.svg"><metadata
     id="metadata3673"><rdf:RDF><cc:Work
         rdf:about=""><dc:format>image/svg+xml</dc:format><dc:type
           rdf:resource="http://purl.org/dc/dcmitype/StillImage" /><dc:title></dc:title></cc:Work></rdf:RDF></metadata><defs
     id="defs3671" /><sodipodi:namedview
     pagecolor="#ffffff"
     bordercolor="#666666"
     borderopacity="1"
     objecttolerance="10"
     gridtolerance="10"
     guidetolerance="10"
     inkscape:pageopacity="0"
     inkscape:pageshadow="2"
     inkscape:window-width="966"
     inkscape:window-height="623"
     id="namedview3669"
     showgrid="false"
     inkscape:zoom="0.57058824"
     inkscape:cx="34.018935"
     inkscape:cy="262.97419"
     inkscape:window-x="264"
     inkscape:window-y="44"
     inkscape:window-maximized="0"
     inkscape:current-layer="g3675"
     fit-margin-top="0"
     fit-margin-left="0"
     fit-margin-right="0"
     fit-margin-bottom="0" /><g
     id="g3675"
     inkscape:groupmode="layer"
     inkscape:label="toilets"
     transform="matrix(1.25,0,0,-1.25,-7.7151879,507.975)"><g
       id="g3021"
       style="fill:#f60091;fill-opacity:1"><path
         d="m 97.98,341.58 c 17.78352,-0.0576 32.29584,14.4528 32.4,32.4 -0.10416,17.856 -14.61648,32.3712 -32.4,32.4 -18.01776,-0.0288 -32.53224,-14.544 -32.64,-32.4 0.10776,-17.9472 14.62224,-32.4576 32.64,-32.4"
         style="fill:#f60091;fill-opacity:1;fill-rule:nonzero;stroke:none"
         id="path3681"
         inkscape:connector-curvature="0" /><path
         d="m 93.18,135.9 0,-113.28 C 93.0816,2.2153128 62.51712,2.2153128 62.46,22.62 l 0,113.28 -40.56,0 43.44,150.48 -6.72,0 -25.68,-85.92 C 26.92872,181.72968 1.2121872,189.4248 7.02,209.58 l 28.32,93.12 c 3.13224,10.7256 16.58808,29.5896 39.84,29.52 l 21.6,0 23.04,0 c 23.07552,0.0696 36.59352,-18.9528 40.08,-29.52 l 28.32,-93.12 c 5.70552,-20.0532 -19.80936,-28.35552 -25.92,-8.88 l -25.44,85.68 -7.44,0 43.92,-150.48 -40.8,0 0,-113.52 c 0.029,-20.1646872 -30.40776,-20.0643744 -30.48,0 l 0,113.52 -8.88,0"
         style="fill:#f60091;fill-opacity:1;fill-rule:nonzero;stroke:none"
         id="path3683"
         inkscape:connector-curvature="0" /></g></g></svg>