<?xml version="1.0" encoding="UTF-8" standalone="no"?>
<!-- Created with Inkscape (http://www.inkscape.org/) -->

<svg
   xmlns:dc="http://purl.org/dc/elements/1.1/"
   xmlns:cc="http://creativecommons.org/ns#"
   xmlns:rdf="http://www.w3.org/1999/02/22-rdf-syntax-ns#"
   xmlns:svg="http://www.w3.org/2000/svg"
   xmlns="http://www.w3.org/2000/svg"
   xmlns:sodipodi="http://sodipodi.sourceforge.net/DTD/sodipodi-0.dtd"
   xmlns:inkscape="http://www.inkscape.org/namespaces/inkscape"
   id="svg3667"
   version="1.1"
   inkscape:version="0.48.4 r9939"
   width="188.40062"
   height="497.9744"
   xml:space="preserve"
   sodipodi:docname="male_icon.svg"><metadata
     id="metadata3673"><rdf:RDF><cc:Work
         rdf:about=""><dc:format>image/svg+xml</dc:format><dc:type
           rdf:resource="http://purl.org/dc/dcmitype/StillImage" /><dc:title /></cc:Work></rdf:RDF></metadata><defs
     id="defs3671" /><sodipodi:namedview
     pagecolor="#ffffff"
     bordercolor="#666666"
     borderopacity="1"
     objecttolerance="10"
     gridtolerance="10"
     guidetolerance="10"
     inkscape:pageopacity="0"
     inkscape:pageshadow="2"
     inkscape:window-width="840"
     inkscape:window-height="623"
     id="namedview3669"
     showgrid="false"
     inkscape:zoom="0.57058824"
     inkscape:cx="-85.074934"
     inkscape:cy="272.09179"
     inkscape:window-x="264"
     inkscape:window-y="44"
     inkscape:window-maximized="0"
     inkscape:current-layer="g3675"
     fit-margin-top="0"
     fit-margin-left="0"
     fit-margin-right="0"
     fit-margin-bottom="0" /><g
     id="g3675"
     inkscape:groupmode="layer"
     inkscape:label="toilets"
     transform="matrix(1.25,0,0,-1.25,-360.07493,507.975)"><g
       id="g3017"
       style="fill:#0091ff;fill-opacity:0.94117647"><path
         d="m 329.1,332.46 c -22.7352,-0.0504 -41.076,-18.9168 -41.04,-42.48 l 0,-100.32 c -0.036,-19.45032 28.0992,-19.45032 28.08,0 l 0,91.68 6.72,0 0,-254.16 c -0.0408,-25.9546872 37.428,-25.1878128 37.44,0 l 0,148.8 6.48,0 0,-148.8 c -0.0384,-25.1878128 37.6344,-25.9546872 37.68,0 l 0,254.16 6.48,0 0,-91.68 c -0.0216,-19.60128 27.9696,-19.60032 27.84,0 l 0,99.84 c 0.0768,21.6096 -16.536,42.8664 -41.52,42.96 l -68.16,0"
         style="fill:#0091ff;fill-opacity:0.94117647;fill-rule:nonzero;stroke:none"
         id="path3685"
         inkscape:connector-curvature="0" /><path
         d="m 363.42,341.58 c 17.8416,-0.0576 32.3544,14.4528 32.4,32.4 -0.0456,17.856 -14.5584,32.3712 -32.4,32.4 -17.9592,-0.0288 -32.472,-14.544 -32.4,-32.4 -0.072,-17.9472 14.4408,-32.4576 32.4,-32.4"
         style="fill:#0091ff;fill-opacity:0.94117647;fill-rule:nonzero;stroke:none"
         id="path3687"
         inkscape:connector-curvature="0" /></g></g></svg>